<svg width="800.71" height="456.56" version="1.1" viewBox="0 0 800.71 456.56" xml:space="preserve" xmlns="http://www.w3.org/2000/svg"><title>dc3 CCCamping Logo</title><g stroke="#000" stroke-width=".625"><path d="m358.77 176.38c-2.852-0.0642-6.6836 1.4316-6.6836 1.4316 1.9723 5.5924 0.99623 9.9319-4.9421 15.059-16.271 14.049-34.979 30.339-44.589 49.418-3.5213 6.9911-1.8392 19.255-3.5931 27.985-11.424 28.218-30.697 27.378-48.552 20.105-10.007-4.0761-20.802-15.658-27.723-23.669l8.6368 24.37c18.005 6.0052 26.071 8.3684 35.392 8.5836 16.543 0.38197 31.484-10.538 36.418-27.018 2.325-7.7664 0.33922-24.27 5.5052-31.475 13.658-21.08 30.698-33.284 48.234-49.431l1.957 4.1328c2.8288 21.758-6.5698 36.456-6.1335 57.994-0.2175 12.185 4.7111 18.37 15.809 24.243 0.54059 0.20291 8.7733 2.7737 11.759 3.2595 5.5334 0.90038 25.211 3.4005 19.141 12.981-1.9758 3.1182 15.397-21.702 12.611-19.094-8.6564 8.1016-34.546-0.78234-38.35-3.3267-7.8325-6.525-12.484-10.666-13.789-20.022 3.0462-25.02 12.66-51.029 0.0417-75.397-0.35343-0.0817-0.74101-0.12363-1.1484-0.13281z"/><path d="m374.06 164.11-7.834 7.1797c11.966 13.055 17.406 30.678 12.402 48.518-0.32 8.4875-11.248 14.81-13.488 16.314-0.5025 1.8288-0.78295 4.6126-1.368 7.5501 1.9338-0.34 3.746-1.7097 7.0235-3.411 11.314-7.8325 16.098-20.015 17.404-32.854 0.87125-4.7862-1.9562-9.1384 0-13.055 9.1388 2.6112 20.887 3.9171 29.59-0.65039 4.4083-1.9508 14.463-2.8531 22.913-4.1351 10.848-0.47383 23.185 0.37525 33.782 2.5826 18.086 3.7672 26.082 9.7034 40.135 15.779 6.1506 2.9785 3.3166 9.709 8.6892 21.779 10.293 23.124 5.5086 14.178 15.253 28.386 6.6772 9.7359 19.234 9.7275 23.366 9.5236 4.5863-0.22637 10.637-5.9827 0.79463-3.0303-4.897 1.4689-16.846-2.774-22.704-10.672-4.6775-7.6492-7.64-7.9657-13.771-27.175-5.182-16.498 2.7762-16.223 4.0337-16.026 15.815 2.4827 20.176-0.86776 36.155-4.4462 3.9282-0.87975 47.144-14.433 89.536 0.0523 28.712 9.8106 50.065 27.099 39.815 37.065-3.9202 3.8118 8.3251-1.6812 8.205-2.803-2.0434-19.087-19.415-27.547-47.205-37.013-40.29-13.723-82.516-2.4212-87.433-1.9931-17.272 1.5038-28.496 8.6665-47.018 0.45647-23.765-10.534-48.5-16.239-50.493-16.625-2.5282-0.48922-20.876-2.1113-20.989-2.1318-5.6176-1.0209-34.942 2.5923-38.172 3.5418-4.2246 1.2422-10.779 3.0458-17.301 1.6609l-2e-3 -2e-3c-11.581-2.4612-16.752-15.23-21.32-24.367z"/><path d="m378.4 132.99c-0.13332-4e-3 -0.2761 8e-5 -0.42579 0.0137-8.7012 15.23-19.581 37.858-41.121 36.988v2.1738c5.6575 5.0062 15.232 1.7416 21.324-1.0859 13.924-6.745 20.451-20.888 23.061-34.377-0.61055-1.6324-0.83819-3.6466-2.8379-3.7129z"/><path d="m375.68 122.39c-0.51565-0.0684-1.0055 0.39336-1.6211 0.81836-7.7012 13.56-20.236 26.98-35.465 31.332-5.8762 3.6988-15.013 0.65195-20.018 5.2207 7.3975 9.1375 19.145 3.0466 28.285 1.0879 14.576-7.8325 26.109-21.974 29.807-37.641-0.36094-0.54562-0.67889-0.77731-0.98828-0.81836z"/><path d="m189.77 56.412c-1.9588 8.7025-2.6748 24.584 1.5215 27.197 17.18 10.7 41.897 6.3791 62.664 6.3066 11.838-0.04 44.597-4.7847 60.48 10.445 1.305 1.3062 3.4808 2.8284 2.1758 4.5684-7.615-4.1338-19.373-7.8383-25.023-7.832-35.044 0.0375-101.33 0.67531-104.43-1.5234-14.08-9.9762-21.54-25.455-32.418-38.072l-8.4863-0.4375 16.754 21.322c7.8325 7.615 13.056 20.016 23.064 23.062 36.986 2.3925 75.059 1.5226 112.7 2.6113 6.745 0.86875 15.231 2.6105 17.842 9.3555-4.5688-1.9575-9.7919-2.6117-14.578-3.6992 0 0-105.13-3.5024-115.96-0.43359-3.8925 1.1012-5.5102 1.4223-7.834 3.4785-14.415 12.75-25.673 29.374-36.117 43.951h7.834c16.752-17.406 26.245-44.065 52.756-42.611 17.924 0.98375 62.121 0.83649 90.404 1.2715 8.92-0.2175 18.059 0 23.934 5.875-20.669-1.5238-46.401-0.80508-68.424-0.36133-12.052 0.24375-53.745-3.4709-58.424 7.5391-3.6988 8.7025-2.0408 24.958-1.5195 27.85 2.2275 0.98875 5.2871 0.0918 5.2871 0.0918 4.1412-3.7112-0.30367-13.576 1.4551-20.541 0.69625-2.75 1.1121-6.1459 4.7871-6.7422 33.506-5.4388 69.843-0.65594 104.44-2.1797 0.65375 0.21875 1.959 0.87078 1.5215 2.1758-1.0862 1.305-0.21657 3.6978 1.5234 4.1328 20.451 8.2675 40.903-2.3933 57.439-13.488l0.43555 0.4336c-10.444 13.925-26.977 20.235-44.385 20.887-2.8275 0.43625-6.7465 0.87047-7.834 3.6992 5.875 6.09 16.318 3.699 24.15 1.959 15.012-3.48 32.2-15.665 35.465-31.33-6.745-0.43375-0.21844-5.8742-1.5234-9.3555-3.915-5.6575-5.4394 3.9166-8.4844 4.1328-3.2638-8.4838-3.0474-19.363-12.402-24.367-1.5238 0-1.5226 1.5238-2.1738 2.6113 3.9162 8.05 7.1781 16.534 8.4844 26.107-0.87 1.5225-3.0471 3.9163-4.7871 2.6113-2.3925-12.184-9.356-22.627-15.666-33.07-3.045-2.3938-6.7426-6.5273-10.441-4.1348 8.2675 13.272 18.059 25.892 21.322 41.34l-1.5234 1.5215c-1.0875 1.5238-2.3931-0.21789-3.0469-1.0879-3.6988-14.36-13.489-26.544-23.062-38.51-2.61-1.0875-5.6556-5.2215-8.2656-1.7402 9.355 11.53 19.145 22.845 23.932 36.117v4.7871c-4.1325-10.444-10.661-20.234-19.363-28.719-32.201-19.799-76.368-5.658-114.22-12.186-10.444-4.3512-3.4798-16.97-6.3086-25.02h-5.6582z"/><path d="m162.58 44.011c-23.884 5e-3 -64.225 2.7093-71.445 3.0918-9.7162 0.51625-11.583 46.697-10.865 58.201 0.60875 9.7875 0.84016 63.71 12.254 64.023 39.381 1.09 80.499-0.21516 121.19 0.87109 8.05 0 20.211 1.318 21.975-5.2207 2.44-9.055 4.1888-16.836 4.7051-22.686 0.49625-5.625-0.14344-8.567-3.3984-8.6445-6.18-0.145-4.3662 5.2872-6.0938 13.055-0.98625 4.435-2.8958 11.312-7.582 13.184-6.47 2.5812-60.082 1.6113-89.453 1.6113-16.328-0.59875-34.294 4.1002-39.164-9.5723-5.6563-15.882-6.151-31.53-5.8848-45.844 0.32-17.2-1.6834-49.695 14.807-51.193 38.078-3.4612 112.48-5.2778 123.14 2.1797 7.3587 5.15 2.4602 19.001 7.709 20.385 1.68 0.025 4.2512 0.71906 6.4688-0.46094 0.805-18.361-5.8483-28.359-9.0508-28.889-21.351-3.5288-46.08-4.098-69.307-4.0918z"/><path d="m382.61 156.89c0.40107-2.8244 2.5009-6.3613 2.5009-6.3613 15.227 3.7634 33.267-9.0375 41.411-16.907 6.7838-6.7515 11.827-17.695 19.328-25.178 13.159-13.246 24.975-17.287 45.086-18.966 15.123-1.1444 24.344 0.38564 34.038 1.5084-1.1462 1.1876-0.0714 3.7034-4.1321 8.8162-3.3646-3.1869-13.97-6.3933-33.561-4.927-7.3133 0.54738-15.023 1.5793-23.434 5.9442-19.59 9.0462-24.021 23.765-33.817 36.164-5.7115 7.1495-14.277 10.752-15.92 11.454-5.7775 2.4662-11.161 5.8429-16.036 9.0831l3.759 2.6039c18.94 5.2804 39.884-5.0916 62.607-0.36771 14.762 2.7085 34.38 9.2408 54.939 8.9889 17.159-0.21019 37.193-2.3541 46.255-22.147 3.7579-6.3023 0.63259 11.933-0.43091 13.734-11.482 15.815-31 13.852-45.57 14.328-22.257 0.7264-39.041-6.6048-53.939-8.9173-11.43-0.48503-25.811-2.0872-39.572 0.28238-16.557 2.8508-31.561 0.98669-43.569-7.9796-0.023-0.36203-1e-3 -0.75126 0.056-1.1547z"/></g><path d="m718.11 325.18c0.53107-0.37198 1.289-0.5522 1.6844-0.4005 1.0853 0.41647 2.137-0.64258 1.6122-1.6234-0.34459-0.64386 0.10116-1.4024 2.2642-3.8526 3.0972-3.5084 3.4366-4.9726 1.5051-6.4919-1.9018-1.496-2.7975-1.216-3.8618 1.2074-0.5174 1.1781-1.5323 3.0073-2.2554 4.0648l-1.3146 1.9228-2.5669-2.0205c-3.4192-2.6914-5.7773-4.7293-5.4895-4.7442 0.1287-7e-3 3.8409-0.62013 8.2493-1.3632 11.862-1.9996 23.798-5.0932 27.254-7.0639l1.9165-1.0928-0.0196-2.7994c-0.0106-1.5397-0.18801-3.6702-0.39379-4.7344-0.20578-1.0643-0.22429-1.876-0.0412-1.8038 2.2031 0.86842 20.725 11.078 20.734 11.429 7e-3 0.26147-0.5958 1.4353-1.3399 2.6086-1.8082 2.8512-1.7433 3.3227 0.48717 3.5354 1.4995 0.143 1.9272 6e-3 2.3113-0.74179 0.2592-0.50449 0.95491-1.5656 1.5461-2.358 0.98653-1.3225 1.1859-1.402 2.4292-0.96855 0.74497 0.2597 1.7071 0.33318 2.138 0.16331 0.67074-0.2644 0.55899-0.49802-0.77653-1.6233l-1.56-1.3145 1.2218-2.4912c0.672-1.3702 1.2218-2.7911 1.2218-3.1577 0-1.8469-3.7275-3.3127-4.8483-1.9065-0.24712 0.31002-0.58808 1.5228-0.75773 2.6952-0.1696 1.1723-0.49017 2.2438-0.7124 2.3812-0.43629 0.26965-9.9307-4.3694-16.365-7.9963-4.2916-2.4189-6.4268-4.2137-14.093-11.846-7.5828-7.5491-13.18-14.603-24.157-30.441-6.1229-8.8347-9.0241-13.434-10.312-16.347-0.52089-1.1781-1.0244-2.142-1.1188-2.142-0.0945 0-0.94144 1.2683-1.8822 2.8184-3.6778 6.06-10.198 11.166-17.52 13.72-3.1968 1.1152-4.2493 1.2593-9.2444 1.2662-6.4128 8e-3 -8.1428-0.4201-14.574-3.6127-4.851-2.4083-10.05-5.8442-15.333-10.133-2.1877-1.776-4.2378-3.1292-4.5559-3.0072-0.34579 0.13269-0.70277 1.4615-0.88796 3.3054-0.4111 4.0932-2.1525 10.909-4.1639 16.297-5.4265 14.536-15.634 34.877-19.68 39.217-1.1866 1.273-4.14 2.6736-15.976 7.5766-10.366 4.2939-10.14 4.2797-10.787 0.67943-0.38106-2.119-0.92591-2.74-2.4037-2.74-1.3013 0-3.18 1.6301-3.18 2.7592 0 0.36949 0.62322 1.6545 1.3849 2.8556 1.0081 1.5897 1.2356 2.2761 0.83618 2.523-0.86335 0.53358-0.11481 1.8909 0.8704 1.5782 0.62647-0.19884 1.2792 0.28251 2.5568 1.8854 2.3336 2.9278 2.87 3.3062 4.2326 2.9864 1.9728-0.46309 2.0321-0.9144 0.41697-3.1736-0.8532-1.1934-1.6888-2.3975-1.857-2.6758-0.19012-0.31461 0.50076-0.80737 1.8272-1.3032 1.1731-0.43852 6.4868-2.7102 11.808-5.0483 8.4281-3.7029 9.816-4.1869 10.766-3.7541 0.99487 0.4533 1.0664 0.68337 0.81562 2.623-0.15121 1.1694-0.40746 3.5864-0.56945 5.3712-0.28695 3.1617-0.26683 3.2509 0.7826 3.4715 1.1027 0.23176 30.285 1.5606 30.516 1.3895 0.0703-0.052-1.1042-13.755-2.6101-30.45-1.5059-16.696-2.6734-30.674-2.5944-31.062 0.17702-0.87103 3.8772 12.822 5.7756 21.373 2.1254 9.5736 3.9593 21.088 4.9928 31.347 0.51278 5.09 1.0653 9.3887 1.2278 9.5526 0.16254 0.1639 7.6008 0.98034 16.53 1.8143 16.701 1.56 19.029 1.6035 31.784 0.59394l3.9826-0.31522 3.9873 3.4964c6.4427 5.6494 5.9252 4.9453 4.64 6.3134-1.0808 1.1505-1.0855 1.1881-0.22836 1.8149 1.1307 0.82683 2.5096 0.8134 3.7226-0.0362z" stroke-width=".45094"/><path d="m602.57 172.22c-7.9108-1.3479-17.379-3.5806-22.628-5.3362-8.1274-2.7179-16.398-6.3545-18.597-8.177l-1.6878-1.399 7.595-14.874c7.6005-14.885 13.739-26.865 21.892-42.725 2.3905-4.65 7.8878-15.392 12.216-23.872 4.3284-8.4794 10.268-20.103 13.198-25.83l5.3284-10.413-9.853-19.687 4.093-2.0075c0.087 0.0102 1.6072 2.9254 3.3768 6.501l3.2174 6.501 0.24866-7.1227 0.24866-7.1226h3.4813l0.24866 7.7086 0.24868 7.7086 1.2705-2.4866c0.69878-1.3676 2.3249-4.5595 3.6136-7.0929l2.3431-4.6063 1.9813 1.0108c1.0897 0.55594 1.9813 1.1167 1.9813 1.2462s-2.2852 4.8122-5.0782 10.406l-5.0782 10.171 1.7867 3.3846c0.98268 1.8615 6.3188 12.225 11.858 23.029s13.871 27.03 18.516 36.056c4.6446 9.0265 10.799 21 13.676 26.607 2.877 5.6074 7.2192 14.034 9.6493 18.726l4.4184 8.5311-1.9041 1.508c-2.049 1.6229-6.2415 3.4117-14.523 6.1966-7.3712 2.4788-18.286 5.3782-20.639 5.4822-1.7808 0.0787-2.004-0.0425-2.1296-1.1554-0.75198-6.6659-3.7376-17.158-6.488-22.801-2.1505-4.4118-5.9887-8.8198-8.7866-10.091-2.6404-1.1995-6.7366-1.1901-9.1105 0.021-6.9847 3.5633-12.205 15.364-15.257 34.487-0.27518 1.7245-0.41769 1.8599-1.8914 1.7972-0.87658-0.0373-2.1533-0.16306-2.8371-0.27958zm-0.99465-8.6819c0-1.9036-4.8488-7.2914-7.5842-8.4273-0.75221-0.31234-1.3667-0.70859-1.3655-0.88055 8.7e-4 -0.17196 0.92782-1.5435 2.0592-3.048 6.6528-8.8463 15.576-17.896 20.595-20.888l2.9204-1.7406h13.961l3.1488 1.7072c7.0923 3.8452 12.477 12.611 16.021 26.078 0.78223 2.973 1.5387 5.522 1.681 5.6643 0.58653 0.58651 23.163-6.6249 23.163-7.3988 0-0.46869-17.3-34.231-17.872-34.877-0.18094-0.20473-2.3323 0.20958-4.7808 0.92068-19.569 5.6834-40.568 5.9381-59.406 0.72053-2.8721-0.79544-5.5777-1.5844-6.0125-1.7532-0.62844-0.24401-2.6528 3.3301-9.8687 17.424-4.9929 9.7519-8.8893 17.905-8.6586 18.119 0.60258 0.55793 11.687 4.6791 16.067 5.9737 4.6926 1.387 13.343 3.398 14.814 3.4437 0.8251 0.0256 1.119-0.24681 1.119-1.0373zm37.057-51.148c5.8287-0.99648 10.6-2.0991 12.951-2.9931 1.1878-0.45161 1.2133-0.54146 0.52377-1.8486-0.39861-0.75563-2.1848-2.8108-3.9692-4.567l-3.2445-3.1931-10.563 9.7819-10.854-10.82-1.862 1.7229c-1.0241 0.94758-3.546 3.3396-5.6042 5.3156l-3.7422 3.5927-10.194-10.151-4.7251 4.7054c-2.5988 2.588-4.7251 4.8426-4.7251 5.0102 0 0.8161 12.632 3.547 20.39 4.4081 6.1215 0.67948 18.793 0.20248 25.618-0.96434zm5.7134-19.567c0-0.78258-20.529-40.936-21.354-41.768-0.22576-0.22754-3.4867 5.5912-7.2466 12.93-3.7599 7.3393-8.7098 16.952-11 21.362-2.2901 4.4097-4.1638 8.1857-4.1638 8.3911s0.34904 0.0838 0.77562-0.2702c0.66677-0.55337 1.4532 0.0313 5.6038 4.1664 2.6555 2.6455 5.0443 4.8101 5.3085 4.8101 0.26417 0 2.8338-2.3432 5.7104-5.207l5.23-5.207 11.438 10.881 4.8489-4.8243c2.6669-2.6534 4.8489-5.0222 4.8489-5.2641z" stroke-width=".49733"/><path d="m590.14 91.559c-1.6976-3.6424-5.8659-11.168-7.6257-14.934-5.5842-11.949-14.037-30.061-15.822-33.898-0.94724-2.0372-2.9072-6.2455-4.3555-9.3518-2.6022-5.5811-2.6295-5.6565-2.3142-6.398 1.885-2.4957 4.0784-6.9864 5.4999-10.073 1.8651-4.0498-1.2917-11.516-8.2609-0.16236-0.65604 1.4508-1.2641 2.6378-1.3512 2.6378-0.087 0-0.69475-1.187-1.3504-2.6378-2.6374-5.8364-3.1182-6.6962-4.031-7.2093-2.2231-1.2495-4.833 0.0554-5.115 2.5575-0.0961 0.85247 0.0747 1.367 1.3529 4.0765 5.2247 11.074 5.3708 11.43 5.0282 12.235-0.17413 0.409-1.1255 2.461-2.1142 4.56s-3.1352 6.6955-4.77 10.214-4.462 9.5802-6.2828 13.469c-1.8208 3.8893-3.9213 8.3848-4.6679 9.9899-0.74658 1.6051-1.8319 3.9286-2.4118 5.1633-0.57993 1.2347-1.2329 2.649-1.451 3.1429-0.21811 0.49387-1.9615 4.2317-3.8741 8.3062-3.9474 8.4091-6.731 14.375-9.3741 20.092-0.71358 1.5434-2.5708 5.5122-4.1272 8.8195s-2.8911 6.3967-2.966 6.8654c-0.18371 1.1488 0.42879 3.4517 1.3024 4.8966 2.5992 4.2994 8.9655 7.8417 18.25 10.154 4.1887 1.0434 10.347 2.0767 12.378 2.0771 1.0813 1.8e-4 2.1842-0.50834 2.6471-1.2205 0.17889-0.27524 2.4067-6.6122 4.9508-14.082 6.3849-18.748 6.4998-19.078 6.6262-19.079 0.0618-1.6e-4 0.48339 1.0851 0.93701 2.4117s2.408 7.0589 4.3431 12.739c4.3222 12.686 5.4218 15.889 5.8801 17.126 0.27539 0.74359 0.83839 1.4556 1.4875 1.8173 2.172-2.9996 2.6883-5.2047 3.7198-7.657l11.678-24.042c3.3379-4.7116 5.6005-8.9943 6.1838-12.608zm-20.439 29.165c-1.5572-4.5607-3.1251-9.1444-3.4842-10.186-0.35911-1.0418-0.65293-1.9617-0.65293-2.0443s0.81985-0.21847 1.8219-0.30204c2.0682-0.17248 7.6401-1.0862 9.8411-1.6138 2.7975-0.67057 5.0008-1.4973 6.7294-2.4113l-11.678 24.042c-1.9007-2.1492-1.8472-5.2659-2.5772-7.4844zm-35.049 7.5478c-8.9558-1.7796-15.722-4.7509-17.725-7.7844-0.35421-0.53622-0.73017 0.38482 3.7922-9.2902 1.414-3.025 2.8496-6.1238 3.1903-6.8862l0.61941-1.3861 1.38 0.75181c2.4903 1.3567 7.6521 2.9279 12.222 3.7203l1.638 0.28401-1.0768 1.1113c-1.8512 1.9106-4.8318 4.2864-6.3928 5.0957l-1.4983 0.77685 1.8387 1.9142c3.0887 3.2155 5.355 7.0662 6.2132 10.557 0.1366 0.55561 0.29966 1.187 0.36236 1.4031 0.16335 0.56285-0.61436 0.51727-4.5631-0.26739zm28.698-26.11c-0.38779-1.1421-0.70493-2.1893-0.70476-2.327 1.9e-4 -0.15685 1.0703-0.35307 2.8626-0.52486 7.2967-0.69941 12.998-2.0481 17.722-4.1925 0.24544-0.11139 1.5808 2.2209 1.9448 3.3968 0.43214 1.3959-7.0727 3.9999-14.888 5.1658-1.9188 0.28625-4.106 0.52897-4.8604 0.53938l-1.3718 0.0189-0.70508-2.0765zm-28.131 0.39183c-1.2754-0.3185-2.9755-0.79114-3.778-1.0503-1.8136-0.58567-4.9388-2.1294-4.9388-2.4395 0-0.32818 1.6081-3.8051 1.7599-3.8051 0.0692 0 1.0402 0.34784 2.1575 0.77296 3.8344 1.4589 7.2931 2.2623 12.695 2.9488 1.6669 0.21185 3.0711 0.41921 3.1206 0.46081 0.0873 0.0734-2.1099 3.0818-2.9461 4.0338l-0.41408 0.47148-2.6686-0.40693c-1.4677-0.22382-3.712-0.66754-4.9874-0.98604zm24.932-9.8137c-1.2951-3.694-1.5071-4.1392-2.1887-4.5966-1.7584-1.1799-3.8774-0.76944-4.9358 0.95614-0.3274 0.53379-1.5045 2.4373-2.6157 4.23l-2.0204 3.2594-1.0195 9e-3c-2.6482 0.0218-10.361-1.3123-13.719-2.3729-2.3414-0.73965-4.2954-1.595-4.1642-1.8228 0.055-0.0954 0.4028-0.83011 0.773-1.6327 0.93931-2.0364 8.0057-17.212 9.0942-19.531 0.49271-1.0495 1.1751-2.5143 1.5164-3.2551 0.34132-0.74082 1.0978-2.3572 1.6811-3.5919 0.86808-1.8376 6.0112-12.87 9.2094-19.755 0.40147-0.8643 1.2854-2.7485 1.9644-4.187 0.67891-1.4386 1.4171-3.0297 1.6404-3.5357s0.47511-0.92014 0.55962-0.92014c0.0845 0 0.36077 0.48148 0.61392 1.07 0.25316 0.58848 1.3129 2.8867 2.3549 5.1072s3.2858 7.0173 4.986 10.66c1.7002 3.6424 3.4938 7.4812 3.9857 8.5307 0.49192 1.0495 1.1707 2.5143 1.5084 3.2551 0.33772 0.74082 1.3256 2.8623 2.1952 4.7143 0.86965 1.852 3.0174 6.4485 4.7728 10.214 1.7554 3.7658 3.7859 8.0978 4.5123 9.6266s1.3207 2.9067 1.3207 3.062c0 0.49628-3.1715 1.7416-6.8186 2.6774-3.114 0.799-8.6634 1.5911-13.186 1.8821-0.56462 0.0363-0.63981-0.11449-2.0204-4.0524z" stroke-width=".22449"/><path d="m676.39 248.14c-1.5311-1.3997-3.0314-2.8825-4.2825-4.3214-3.2203-3.7038-6.9318-8.5731-11.944-15.671-6.5214-9.234-9.4639-13.807-10.459-16.255l-0.34288-0.84366-0.73375 1.2336c-2.3837 4.0072-6.1162 7.5498-10.004 9.495-4.9791 2.4912-10 3.5316-14.215 2.9454-6.0645-0.8435-14.074-5.2395-22.377-12.281-0.78592-0.66653-1.4595-1.2119-1.4968-1.2119s-0.1142 0.64605-0.17082 1.4357c-0.44466 6.2012-2.9582 12.384-8.5535 24.687-4.5362 9.9745-10.867 16.265-13.299 18.669-1.3376 1.3218-3.1611 3.0245-16.389 8.5245-0.0294 0.55992-1.5458 3.8207 1.7281 2.8264 0.43254-0.13137 2.1175-0.56736 3.1408-1.0909 3.483-1.7819 9.5888-4.8296 9.7357-4.8615 2.2425-1.0181 4.0425-2.5413 4.1282-2.5413 0.0856 0 0.57977 0.25262 1.0981 0.56137 0.77775 0.46331 0.94236 0.63378 0.94236 0.976 0 0.22803-0.17461 2.0087-0.38802 3.957-0.2134 1.9483-0.38791 3.6568-0.3878 3.7966 1.5e-4 0.23073 0.54777 0.25558 5.9367 0.26936 5.708 0.0147 6.1973 0.04 12.717 0.65963 3.7294 0.35445 6.8284 0.64444 6.8866 0.64444 0.32321 0-0.75697-14.891-1.7248-23.778-0.89888-8.2538-3.146-25.181-3.7266-28.072-0.0735-0.3661-0.0215-0.41266 0.62685-0.56102 0.65883-0.15076 0.71195-0.13942 0.7794 0.16642 0.0399 0.18053 0.38981 2.8426 0.77777 5.9157s0.80693 6.3557 0.93105 7.2947c1.1186 8.4631 3.434 30.656 3.8971 37.354 0.0571 0.82554 0.15275 1.5802 0.21259 1.677 0.0599 0.0968 0.80074 0.2423 1.6464 0.3233 0.82872 0.0794 7.234 0.71852 13.82 1.3452 0 0 0.92311-1.4437 1.9227-3.4552l7.34-14.771c0.20037-0.40322 1.0656-1.9801 1.136-2.5279l38.919-1.694c0.52452-0.0229 1.8662-0.60912 2.1718-0.82016zm-61.302 18.914c-3.6282-6.8773-3.9892-14.11-5.021-21.419-1.1681-8.097-1.6999-16.302-3.3414-23.544-0.25041-1.1046-0.43728-2.0265-0.41526-2.0486 0.022-0.022 0.51692 0.67637 1.0998 1.5521 3.2518 4.8856 7.5047 10.777 11.639 15.477 3.8048 4.3247 10.254 11.161 15.113 16.11l-7.34 14.771c-4.2103-0.59236-8.5476-0.96289-11.735-0.89859zm-31.881-0.32732c0-0.0371 0.31332-1.6933 0.69625-3.6806 0.38294-1.9873 1.4078-3.841 1.345-3.8975s-0.5682-0.29818-1.1231-0.53704c-0.55486-0.23884-1.0656-0.48231-1.1349-0.54101s0.36692-1.544 1.6376-3.6259c5.5201-9.0439 9.4784-15.731 12.321-21.371 2.5603-5.0807 3.4232-7.8279 3.6368-9.4377 1.0481 4.4827 1.3534 8.4628 2.1244 14.867 1.1379 9.2395 1.9779 17.579-2.3012 26.264l-0.59126 1.2644-7.0707 0.33213c-4.1755 0.19614-7.9486 0.17497-8.3755 0.25087-1.0021 0.17822-1.164 0.19382-1.164 0.11211zm52.092-16.073c-1.8313-1.8756-3.6856-3.9215-4.6114-4.9789-3.4198-3.9058-9.1559-11.184-15.091-19.012-1.4812-1.9538-2.6294-3.5246-2.5515-3.4908s0.70034 0.34897 1.3832 0.70028c3.0068 1.5468 5.033 2.3811 8.7364 2.742 1.3019 0.12688 3.8339 0.34061 5.6265 0.47495 3.3142 0.24836 4.4371-0.37943 5.1821 6e-3 1.1494 0.59439 1.518 2.7322-0.71309 5.2836-0.52252 0.59755-0.88289 1.1014-0.8066 1.1347 0.44688 0.19481 2.8292-1.0627 4.0391-3.2926 0.69432-1.2797 0.68817-2.1263 1.5887-3.8814 1.4119-2.7518 2.1318-3.1877 5.674-5.2354 2.5192-1.3971 4.1489-3.2982 5.3472-5.7288 2.7855 5.9622 6.4016 10.727 9.5368 14.899 6.0442 8.0863 10.208 13.186 15.579 18.685z" stroke-width=".15521"/><text x="485.82239" y="431.56564" font-family="Lato" font-size="115.48px" letter-spacing="0px" stroke-width="2.8871" word-spacing="0px" style="line-height:1.25" xml:space="preserve"><tspan x="485.82239" y="431.56564" font-family="Lato" font-weight="bold" stroke-width="2.8871">#dC3</tspan></text><path d="m474.49 329.02c-0.84345-7.0159-9.1258-6.002-14.369-7.3555-19.729-2.7255-39.194-7.066-58.916-9.813-4.7287-2.2315-8.599 3.0933-12.56 1.398 4.8795-3.9746 6.2409-10.019 7.8736-15.701 3.4106-4.8438 7.8235-9.4072 9.6733-15.339 4.496-7.0548 11.339-12.353 15.833-19.398 5.6698-5.0332 11.951-9.3429 17.476-14.545 5.7799-4.4245 13.094-5.9026 19.725-8.3871 13.863 3.3858 26.627 10.498 37.682 19.437 6.7511 8.0146 14.487 15.516 19.274 24.973-1.4902 1.5634-6.021-9.8233-7.6245-7.6134 1.9125 5.9872 7.75 8.2812 11.566 12.286 2.0567 2.8915 6.6137 9.6679 7.6524 13.753 0.36168 1.4225 9e-3 3.0435-0.7146 2.1036-4.0522-5.2672-6.7735-2.4747-8.2986-1.9241-2.8136 0.87085-5.6546 2.5304-8.0638 3.5039-10.257 5.4977-20.89 10.38-30.66 16.726-3.2911 0.51453-1.8806 9.0812-5.5492 5.8957zm1.6272-8.4782c-0.26916-1.0252-0.86915-6.4251-0.83218-3.4018 0.18013 3.0214-0.71228 6.5447 0.49638 9.1982 1.4819-1.4503 0.42481-4.0113 0.3358-5.7964zm-1.9195-4.2498c1.7312-7.5472-7.9048-5.5779-12.53-6.3342-18.24-1.8667-36.16-5.9187-54.281-8.5958-2.8564-0.0151-6.5688-2.4562-1.3909-1.6078 6.6758 2.3781 7.3339-8.2925 10.669-12.066 4.6985-8.198 9.4982-16.8 16.879-22.898 8.2187-5.282 21.259-4.5176 26.485 4.5937 5.1562 10.106 4.9039 21.844 5.9351 32.883 0.14284 2.2206 0.28569 4.4412 0.42853 6.6618h7.8804c-0.86719-13.418-1.3072-26.936-3.7274-40.181-2.473-4.7334-0.55711-14.421-7.5061-14.744-6.6198-1.2544-13.43-3.3356-20.195-2.2349-2.7272 3.0746-1.7093-2.5381-3.3595 1.8189-5.8902 4.9259-11.73 9.9716-16.619 15.946-7.4033 8.6194-14.435 17.735-19.205 28.1-2.3097 3.651-9.4604 11.791-1.0511 12.119 10.654 2.5114 21.653 3.1131 32.278 5.8144 12.979 2.2096 25.969 4.8288 39.137 5.5209 0.0575-1.599 0.11544-3.1979 0.17316-4.7968zm31.809-10.066c4.196-2.4863 8.5126-4.0628 12.751-6.4336 2.0624-0.91793-0.99934-3.258-1.2636-4.8217-1.0412-1.499-1.458-4.9371-3.6813-2.7646-10.575 5.468-21.462 10.378-31.69 16.48-3.7376 2.0788-3.394 7.6312-4.1903 10.707 6.6978-1.9291 12.647-5.9871 19.014-8.8403 3.006-1.4715 6.0048-2.961 9.0607-4.3273zm-29.284 5.5399c-1.6671-6.9158-0.99626 6.7619 0 0zm-79.527-5.3905c2.618-6.4017-3.3834 0.0264-1.7081 2.5531 0.99156-0.41317 1.2968-1.6769 1.7081-2.5531zm66.045-0.8924c0.0714-3.8394 2.9583-13.931-3.9064-10.094-8.3973 2.4572-17.195 4.5105-25.361 7.2 7.1213 1.6886 14.495 2.5432 21.654 4.2254 2.3414 0.15136 6.4196 1.5818 7.6132-1.331zm34.22-6.7763c5.7288-2.9205 11.478-5.8015 17.171-8.7916-3.9937-7.5961-9.7881-14.098-14.983-20.845-6.0677-6.0993-11.84-12.937-19.477-17.09-6.9588-2.3193-10.389 4.2552-6.1369 9.632 3.3927 5.094 0.48277 10.303 2.1125 15.717 2.1931 9.0363 1.0684 18.357 1.7347 27.521 1.8336 5.7507 8.9892-2.1283 12.912-2.8036 2.2277-1.1016 4.4493-2.2154 6.6659-3.3394zm-61.07 5.6314c-3.0805-0.7195-2.2168 1.18 0.23355 0.15876zm40.083-4.1092c-1.2895 0.2021 0.60729 5.2557 0 0zm-36.638-1.9168c7.9564-2.0198 15.918-4.0227 23.916-5.8734 0.0971-7.4248-1.3297-15.021-4.4801-21.747-3.7062-7.1564-12.775-7.458-19.811-6.9044-8.3177 3.2293-13.403 11.372-17.999 18.591-1.8922 5.3051-8.9656 12.274-5.892 17.401 5.7595 1.801 11.916 2.0978 17.693 0.18711 2.195-0.53561 4.3838-1.0971 6.5737-1.6533zm-18.646-2.8161c2.0397-0.94464 7.7235-1.1302 2.3964 0.34072-2.3114 0.92606-7.8873 1.1104-2.3964-0.34072zm6.2912-0.83059c11.345-3.4863 22.951-6.1418 34.44-9.0976-3.7757 2.6611-9.599 3.0848-14.228 4.6351-6.7813 1.5245-13.697 3.8037-20.422 4.6982zm-27.437 4.824c1.2702-5.0706-4.2508 2.4944-0.57373 0.94078l0.57365-0.94078zm5.9504-9.6292c2.1054-2.221 3.6447-7.8351 0.22027-2.7704-0.9409 1.7268-5.673 7.3686-3.7881 7.6189 1.3318-1.504 2.4508-3.1835 3.5678-4.8485zm70.728-2.8206c0.33628-5.342-2.7959-2.0375-1.3739 1.1595 1.0249 4.2624 1.4888 0.66669 1.3739-1.1595zm41.329 2.0071c-2.4351-3.0116-1.1314 2.5715 0.52306 0.90675zm-105.08-10.294c-3.6402-2.2882-3.9843 7.6802-0.52306 1.7503 0.22894-0.53133 0.71017-1.1217 0.52306-1.7503zm5.8334-6.9136c1.2974-1.5538 2.595-3.1077 3.8924-4.6615-2.9102 2.9059-6.4509 5.446-8.2967 9.1817 1.61-0.59651 3.0291-3.2257 4.4043-4.5202zm88.698 2.4321c-0.53595-3.4267-5.1927-3.9926-1.4644-0.43431 0.3045 0.28937 1.5527 1.7665 1.4644 0.43431zm-35.108-5.2695c-1.3345 0.85056 0.79448 4.072 0 0zm27.559-4.513c-1.9396-2.709-6.4821-4.3268-2.4022-0.10723 0.92079 1.7571 8.3622 7.7653 4.4244 2.3414-0.63234-0.78121-1.3124-1.5229-2.0223-2.2341zm-25.902 1.5004c-1.6862-4.9985-1.7832 1.9016 0.23201 2.8136 0.5576-0.83278-0.0236-1.9672-0.23201-2.8136zm-48.404-2.0542c1.4455-3.9016-3.5656 3.761 0 0zm67.288-5.6749c-2.7736-3.105-0.70823 2.8839 0.71162 1.4041l-0.0948-0.39857zm-58.166-2.0267c2.1957-0.87206 4.5902-4.6378 0.58954-1.8163-2.0824 1.2559-7.7401 6.6834-2.2247 2.9002l0.77009-0.50652zm54.923-0.35015c-0.64953-0.90677-7.4855-5.4797-3.7666-2.546 1.1229 0.68345 2.7784 3.1212 3.7666 2.546zm-25.016-7.5298c-1.7926-6.8888-9.175-4.6208-13.815-2.4574-4.7927 0.85154-2.7322 3.4548 1.0331 3.0719 4.6462-0.21345 10.303 2.2086 14.039 2.2114-0.26331-1.0033-0.81231-1.8983-1.2574-2.826zm11.234 1.6581c-1.745-2.4252-7.686-5.5213-10.272-5.208 1.8579 5.3552 4.264 8.7554 10.272 5.208z" stroke-width=".8107"/><path d="m259.04 421.55c0.19276-0.20401 0.48791-0.63056 0.65592-0.94788 0.34796-0.65725 1.3932-2.0991 3.5554-4.9045 0.8246-1.0699 1.5915-2.1176 1.7042-2.3283 0.14537-0.27161 0.30866-0.36031 0.56133-0.30492 0.19597 0.043 1.2094 0.26853 2.252 0.50126 5.1325 1.1084 9.7432 1.3938 14.778 2.3436 10.039 1.6413 15.154 1.3874 21.241 1.2658 11.595-0.23122 16.785-0.53195 20.468-1.186 0.46844-0.0831 1.1133-0.10877 1.433-0.0569 0.31974 0.0519 1.0863-0.022 1.7034-0.16409 1.5985-0.36812 2.1646-0.42242 6.3147-0.60565 5.0666-0.2237 8.3983-0.30051 16.891-1.8265 4.8468-0.87089 7.3493-1.5673 9.4845-1.7833 0.86134-0.0871 1.8124-0.28306 2.1136-0.4354 0.64606-0.32679 1.888-0.27944 4.3155 0.16455 1.6176 0.29588 2.9911 0.26472 3.1028-0.0704 0.0351-0.10543 0.23035-0.255 0.43379-0.33234 0.45922-0.17459 0.55039-0.95049 0.73539-6.2586 0.23888-6.8538 0.27407-14.455-0.73735-20.341-0.62236-3.496-0.5981-4.153-1.65-6.3763-0.15144-0.59664-0.14208-0.64253 0.0921-0.45103 0.39975 0.32702 1.7727 1.2337 2.9621 3.1275 0.58563 0.93251 1.475 2.2518 1.9763 2.9318 2.6204 3.6762 19.098 32.036 23.303 28.059 0.36655-0.40502 0.93041-1.694 0.93474-2.1368 3e-3 -0.29923 0.0968-0.37092 0.48551-0.37092 0.66021 0 1.4973-0.72469 1.4926-1.2922-4e-3 -0.53755-0.5069-1.6775-0.87292-1.9804-0.51613-0.42711-3.3027-0.34523-3.7897 0.11135-0.3069 0.2877-0.43303 0.32871-0.50716 0.16484-0.0543-0.11996-0.0662-0.0697-0.0265 0.11158 0.27338 1.2499 0.29455 1.6102 0.087 1.482-0.14125-0.0873-0.17289-0.0667-0.0938 0.0613 0.0656 0.10616 0.18617 0.15167 0.26791 0.10109 0.17288-0.10684 0.41451 0.70943 0.25672 0.86722-0.10518 0.10518-0.40401-0.25222-0.96947-1.1595-0.17647-0.28315-0.20945-0.42526-0.0824-0.35537 0.11639 0.064 0.0262-0.0648-0.20047-0.28613-3.7336-6.2397-4.9174-7.3511-9.4005-13.898-0.60716-0.85927-7.4433-11.291-10.617-16.201-4.2558-6.5845-6.034-9.1255-9.4924-13.564-1.732-2.2231-2.8071-6.7752-2.8071-6.9953-5.2322-8.3151-14.914-17.036-22.636-20.987-3.5803-1.8176-10.324-3.3452-18.055-4.2447-16.465-0.54386-31.972 1.1567-46.565 6.7662-8.5617 3.0051-16.628 10.534-21.643 16.248-1.6493 1.902-3.9198 4.8787-4.8626 6.3749-2.5603 4.0632-3.329 5.1454-5.8288 8.2057-0.72534 0.88799-1.5023 1.8447-1.7266 2.1261-0.22429 0.28136-1.2628 1.5776-2.3078 2.8804-1.045 1.3029-2.1968 2.7604-2.5594 3.2389-0.36268 0.47854-1.2847 1.6751-2.049 2.659-1.7253 2.2211-7.2399 9.5407-9.1101 12.092-0.56495 0.77066-1.0745 1.4383-1.1324 1.4836-0.0579 0.0453-0.29681 0.37915-0.53096 0.74182-1.2763 1.9768-6.0502 8.4005-6.2143 8.3619-0.10583-0.0249-0.14463 0.0321-0.0862 0.12666 0.0938 0.15197-0.49902 1.3198-0.67012 1.3198-0.0368 0-0.25601-0.29955-0.48714-0.66568-0.56957-0.90227-1.0148-1.0866-1.9752-0.81766-1.6408 0.45941-2.6759 1.6445-2.484 2.8443 0.18976 1.1868 1.0903 2.4305 1.7599 2.4305 0.21625 0 0.32654 0.16981 0.40152 0.61818 0.35619 2.13 0.87439 3.0092 1.7725 3.0074 0.97817-2e-3 1.6371-0.63491 3.6029-3.4607 1.6159-2.3227 1.933-2.722 2.1248-2.6747 0.10099 0.0249 0.13778-0.0289 0.0817-0.11946-0.056-0.0906 0.48301-1.0012 1.1978-2.0235 1.7583-2.5146 4.6676-6.8952 8.1024-12.199 1.6034-2.4761 2.9274-4.3605 3.0224-4.3018 0.0953 0.0588 0.11937 0.024 0.0553-0.08-0.0959-0.15521 2.2903-3.8425 4.9809-7.6968 1.3002-1.8625 1.396-1.9343 0.87957-0.65939-1.2421 3.0665-3.4797 10.351-4.6495 15.137-1.6522 6.7593-1.7086 11.412-0.16775 13.837 0.93062 1.4646 2.0765 1.9771 5.284 2.3631 6.6848 0.82477 12.773 1.7416 19.369 2.7233 1.36 0.20233 2.5008 0.38916 2.5351 0.41516 0.079 0.06-0.85295 1.5186-1.2498 1.9562-0.16416 0.18102-0.64214 0.79563-1.0622 1.3658-0.72248 0.98081-0.77897 1.0214-1.0474 0.75295-0.21882-0.21882-0.26116-0.44866-0.18499-1.0043 0.16184-1.1808-0.5154-2.0078-1.6513-2.0165-0.92699-7e-3 -2.797 1.324-3.6428 2.593-0.69992 1.0502 0.70761 2.8417 2.2327 2.8417 0.41322 0 0.56777 0.12387 0.93376 0.74838 1.2562 2.1435 2.9395 3.0153 3.8867 2.0128zm-2.6634-2.5574c-0.91014-1.3942-0.89503-1.3458-0.55646-1.7795 0.31272-0.40054 0.39427-0.30808 1.5735 1.7838 0.9629 1.7081 0.94713 1.6345 0.30176 1.4095-0.36854-0.12848-0.73894-0.52556-1.3188-1.4138zm2.1321-0.28362c-0.2277-0.49978-0.0644-0.76764 2.6801-4.3994 1.0502-1.3897 2.1875-3.0317 2.5274-3.649 0.33988-0.61733 0.92716-1.4716 1.3051-1.8984 0.37791-0.42678 1.2378-1.5537 1.9108-2.5042 3.6304-5.0814 6.8282-10.065 10.292-15.246 5.1006-6.9813 8.9731-14.396 14.077-21.265 0.0681-0.0908 0.78646-1.0551 1.5963-2.143 1.6256-2.1838 3.6067-4.6084 3.9265-4.8057 0.11326-0.0699-0.0232 0.16688-0.30317 0.52612-10.052 15.563-19.811 30.553-30.068 45.327-0.9475 1.36-3.0047 4.2039-4.5716 6.3197-1.5668 2.1158-2.8488 3.9147-2.8488 3.9975 0 0.30682-0.34288 0.13713-0.52338-0.25905zm-5.0186-1.7909-0.45007-0.38713 0.97664-0.77104c1.7938-1.4162 2.5859-1.2074 1.2872 0.33926-1.1719 1.3956-1.1531 1.3871-1.8137 0.81891zm39.837-3.5523c-0.57582-7.3913-0.89145-12.741-0.31796-20.133 1.1461-11.146 11.376-46.691 27.626-49.559 1.6898-0.21114 6.1049-0.15746 6.1001 0.5092-1e-3 0.18423 0.0843 1.3966 0.14468 4.2979 0.1208 5.7961-0.089 17.598-0.5903 33.217-0.52733 16.427-0.65805 21.867-0.65861 27.406 0 2.8786 0.0604 3.8937-0.0186 3.8937-0.0789 0-1.4699 0.14357-3.0909 0.31901-5.9586 0.64497-9.8604 0.38639-20.872 0.54629-3.3021 0.0664-5.0861-0.0335-8.3874 0.0665zm-11.338-0.36919c-2.2166-0.0331-14.954-1.898-15.413-2.3152 8.283-12.235 14.218-20.945 21.551-32.611 1.167-1.8648 2.8757-4.4986 4.598-7.0873 0.8143-1.224 1.9221-2.893 2.4618-3.709 1.2661-1.9142 1.3765-2.0226 0.83894-0.82423-3.8911 8.6752-6.3341 22.116-6.332 34.837 9.9e-4 4.9355-0.13995 10.914 0.2918 12.365-1.9634 0.48726-5.49-0.43669-7.9965-0.65586zm47.793-9.8453c-0.43483-20.353-7e-3 -40.396-0.33395-57.404 20.755 11.301 27.911 27.031 31.237 48.106 0.2357 2.3592 0.54796 14.507 0.3729 14.507-0.16614 0-3.7812 0.49833-5.2465 0.72322-0.86131 0.1322-3.4206 0.57614-5.6872 0.98652-2.2666 0.4104-4.6033 0.82229-5.1926 0.9153-7.1681 0.57622-8.3431 0.86359-15.254 1.0271zm-93.77 0.7429c-0.45998-0.91993-0.49343-1.11-0.47863-2.7199 1.2591-11.059 4.9518-19.419 9.4456-28.799 8.5651-15.65 17.488-23.668 31.212-29.961 19.846-5.0462 29.969-7.784 45.241-6.3652 6.0085 0.74968 9.0731 0.34931 11.618 1.7096 0.49867 0.26654 0.7583 0.43773 0.57697 0.38042-18.313-3.2225-23.25 3.9699-32.061 15.605-2.6261 3.4842-3.8369 6.7912-4.3045 7.1836-0.17558 0.14731-1.5373 1.7285-2.1293 2.4724-0.31733 0.39879-0.91178 1.1369-1.321 1.6402-0.40921 0.50335-1.1833 1.5086-1.7201 2.234-0.53682 0.72532-1.1713 1.5784-1.4099 1.8957-5.6736 8.4327-10.669 16.021-15.851 23.738-3.8289 5.3191-6.4204 9.7054-10.089 14.603-2.3992 3.7724-27.211-3.2112-28.73-3.6163zm31.024-29.465c0.19232-0.31119-0.28076-0.56858-2.1759-1.1838-1.992-0.64673-4.4656-1.1685-5.0506-1.0653-0.4457 0.0786 0.95192 0.76156 2.2713 1.1098 0.45332 0.11967 1.5754 0.46561 2.4936 0.76877 1.7719 0.58505 2.2816 0.66177 2.4616 0.37052zm7.4907-1.1648c0-0.088 1.9916-5.8451 2.3574-6.8145 1.1742-3.1122 2.6592-5.7316 4.5791-8.0775 1.1679-1.427 2.6246-3.5357 2.6246-3.7994 0-0.23788-1.4457-0.53832-3.2656-0.67865-0.73692-0.0568-1.312-0.14815-1.2779-0.20292 0.0341-0.0547-0.83985-0.0784-1.9421-0.0525s-3.0055-0.0112-4.2295-0.0824c-7.0151-0.40818-8.8849 0.034-11.223 2.6542-5.721 6.4109-8.5765 13.801-5.877 15.21 0.40702 0.21242 1.2146 0.30724 3.4178 0.40124 1.5866 0.0678 3.7379 0.24463 4.7805 0.39315 5.6285 0.8017 10.056 1.2637 10.056 1.0494zm-2.7162-1.2949c-1.0859-0.17906-2.6571-0.37357-3.4915-0.43222l-1.5171-0.10664-0.49903-1.254c-0.27445-0.68973-1.0688-2.9602-1.7651-5.0455-0.6964-2.0853-1.5526-4.4049-1.9028-5.1546-0.86146-1.8446-0.84635-1.9525 0.46814-3.3459 1.7039-1.8063 2.2534-2.0297 5.1684-2.1017 2.7053-0.0669 2.5519-0.132 3.0314 1.2884 0.16835 0.49868 0.71089 1.9452 1.2056 3.2145 2.626 6.7373 3.0299 8.6686 2.2141 10.586-0.27634 0.64943-0.55319 1.5191-0.61518 1.9326-0.062 0.4135-0.15997 0.75028-0.21767 0.74839-0.0576-2e-3 -0.99339-0.14992-2.0793-0.329zm-9.5649-1.1458c-1.4506-0.18143-3.2928-0.37956-4.0936-0.44029-2.1404-0.16231-2.1774-0.2344-1.4972-2.9141 0.54733-2.1562 2.106-5.3245 3.611-7.3398 0.62013-0.83045 1.1759-1.5099 1.2351-1.5099 0.0592 0 0.24006 0.42654 0.40201 0.94787s0.95483 2.8783 1.7619 5.2377c0.80711 2.3594 1.6116 4.7939 1.7878 5.41l0.32036 1.1202-0.44492-0.0909c-0.2447-0.0499-1.6318-0.2393-3.0825-0.42073zm13.27-5.0086c0-0.23461-1.3719-4.3378-2.7862-8.3334-0.46225-1.3058-0.84045-2.4742-0.84045-2.5963 0-0.39538 9.1223-0.11309 10.619 0.32859 0.0831 0.0245-0.22759 0.46275-0.69043 0.97381-1.2216 1.349-3.5698 4.9844-4.9006 7.5871-1.0798 2.1117-1.4012 2.5798-1.4012 2.0402zm4.3465 1.0729c0.69088-1.3523 2.5771-5.9184 2.5771-6.2386 0-1.1022-1.6451 1.9486-2.6278 4.8731-0.82579 2.4577-0.80421 3.0389 0.0507 1.3655zm116.26 42.603c0.3771-1.1962 0.49724-1.0761 0.14288 0.14289-0.14976 0.51512-0.30836 0.90052-0.35244 0.85642-0.044-0.0441 0.0502-0.49377 0.20956-0.99931zm-31.399-0.66246 0.0802-4.7224c0.52795-31.118-15.822-54.916-36.878-63.06 19.565 2.171 29.734 17.666 32.846 24.678 5.3503 12.506 8.0652 24.643 7.5715 37.622-0.23702 5.3476-0.29353 5.7916-0.72985 5.7351-1.4596-0.15984-1.4102-0.10473-2.8899-0.25335zm-150.45 0.27508c-0.41297-1.5282-0.51489-2.8448-0.23946-3.094 0.46779-0.42335 1.2472 2.8902 0.78779 3.3495-0.2975 0.29748-0.4135 0.24344-0.54833-0.25552zm161.65-24.109c-1.5097-2.3706-4.5556-6.9465-5.3973-8.1087-3.2888-4.5409-4.2063-5.9735-5.6157-8.7682-0.63022-1.2497-1.5112-3.4363-1.2978-3.221 0.11739 0.11839 2.4367 3.3505 3.4419 4.7965 0.52472 0.75482 1.3733 1.9658 1.8857 2.6912 1.6663 2.3587 7.5134 11.18 8.782 13.249 0.68 1.1091 2.9611 4.6138 5.069 7.7883 3.4395 6.3462 7.0141 10.625 10.057 15.435-5.1085-4.2509-13.185-18.016-16.925-23.862zm-159.92 20.382c0.54991-1.113 1.6181-2.5214 1.8583-2.4502 0.0842 0.0249 0.10946-0.0248 0.0565-0.11045-0.053-0.0857 0.3681-0.83801 0.93563-1.6719 0.56754-0.83389 1.2968-1.9382 1.6206-2.4541 0.54316-0.86528 2.7258-3.8878 5.4252-7.513 0.60759-0.81599 1.9139-2.5963 2.9028-3.9563 0.98895-1.36 1.8871-2.584 1.9959-2.72 0.38568-0.48217 1.7877-2.3606 2.2751-3.0482 0.272-0.3837 0.82835-1.1264 1.2364-1.6503 0.40799-0.52397 0.88862-1.1462 1.0681-1.3828 0.40669-0.5361 3.3629-4.2686 3.7352-4.7161 1.0058-1.2088 2.6805-3.1592 2.8308-3.2969 0.24894-0.22803-0.35371 0.54464-2.2409 2.8732-2.5929 3.1993-4.9067 6.5756-9.9084 14.459-1.35 2.1277-5.7262 8.6616-7.4372 11.104-0.66686 0.95201-1.6761 2.415-2.2427 3.2512-0.87407 1.2898-1.0695 1.491-1.289 1.3267-0.21513-0.16097-0.22439-0.15504-0.055 0.0351 0.24104 0.27064-0.1705 1.062-1.4817 2.8495-1.2279 1.6738-1.4908 1.8084-1.6549 0.84748-0.11419-0.66829-0.0679-0.89077 0.3694-1.7759zm180.56 1.8449c-0.71895-0.21786-0.67586-0.39376 0.10777-0.44 0.48825-0.0289 0.75673 0.0622 1.1127 0.37713l0.4692 0.4151-0.57696-0.0949c-0.31733-0.0523-0.81805-0.16802-1.1127-0.2573zm-184.59-2.0582c-0.30498-0.7299-0.10583-1.047 0.8399-1.3372 0.75938-0.23306 1.0566-0.11099 1.0534 0.43266-3e-3 0.5641-0.12291 0.73243-0.82171 1.1561-0.75542 0.45804-0.77726 0.45292-1.0716-0.25159z" stroke-width=".16485"/><path d="m-148.08 414.4c-4.5045-2.889-5.1059-5.3839-5.1059-5.3839l-19.242-32.628-0.75217-3.926 21.479-27.398 6.7377-3.5553 28.844-7.0356 4.1886 2.2496 23.356 30.983 0.18302 5.427-16.861 34.457-6.068 2.3337z" fill="#fff" stroke="#fff" stroke-width="1px"/><path d="m130.14 307.41c-3.5854 1.3674-14.479 3.1085-16.814 4.7145-0.69958 0.53661-0.43221 1.3809-0.13908 1.8342 0.66307 0.57638 2.2381-0.0797 3.5674-0.38974 4.9288-0.62977 9.5252-3.2618 14.483-3.5855 0.29245-0.0191 0.58509-0.0359 0.87794-0.0501l0.65119 6e-3c14.127 0.13879 28.258 0.39936 42.371 1.0545 3.4824 0.41758 6.5175 2.8877 9.8484 3.924 1.5722 0.4295 3.73 2.154 3.9161-0.38734-2.9992-3.0361-8.3238-3.9158-11.858-5.6706-0.99257-0.31848-2.8731-0.2439-4.2403-0.25745-5.7836-0.12721-20.189-1.1822-31.157-0.94789-5.9021 0.12609-9.4903-0.70369-11.508-0.24459zm10.093-96.595-32.213 5.7305-32.875 20.195-4.3672 6.3398c-2.4017 3.4865-6.8286 9.9645-9.8379 14.395l-5.4707 8.0547-3.3555 14.441-3.3535 14.443v29.766l9.1641 9.2891 14.443 4.5293c14.443 4.529 14.442 4.5297 34.439 7.4824 24.468 3.6129 21.536 3.559 49.006 0.87891 21.782-2.1252 23.357-2.3581 39.467-5.832l16.779-3.6172 8.6172-4.2969c8.6163-4.2975 8.6165-4.2975 8.6602-6.25 0.024-1.0739 0.48006-9.4517 1.0137-18.617l0.9707-16.666-8.9062-25.551-19.609-28.059-16.275-10.551c-8.9513-5.8031-16.498-10.553-16.77-10.553s-7.0255-1.248-15.01-2.7754zm-3.5703 3.1699c0.56157 4e-3 0.58186 0.18377 0.22266 0.54297-0.2101 0.2101-1.9387 0.44804-3.8418 0.52734l-3.4609 0.14453 3.6113-0.69922c1.8045-0.34858 2.9072-0.51974 3.4688-0.51562zm5.4746 0.0352c3.2815 0.0705 9.2157 0.88167 9.8828 1.5488 0.13438 0.13499-0.35932 0.19718-1.0977 0.13868-0.73833-0.0585-3.6948-0.24731-6.5703-0.41797-4.4959-0.26683-5.1005-0.4147-4.3184-1.0606 0.21068-0.17397 1.0097-0.23249 2.1035-0.20898zm2.7871 3.6133c0.35317-9e-3 0.91686 0.0201 1.6055 0.0898 1.3772 0.13954 7.0047 0.42813 12.506 0.64063l10.002 0.38476 1.1543 4.9199c0.74538 3.1797 0.93826 4.9011 0.54687 4.8672-0.54604-0.0474-24.826-10.038-26.158-10.764-0.15276-0.0832-9e-3 -0.12983 0.34375-0.13867zm-15.799 0.0879c0.0546 0.0274-4.4244 1.7967-9.9551 3.9316s-11.513 4.4398-13.293 5.123c-3.9611 1.5206-3.9598 1.4334 0.0488-3.7422l3.2266-4.166 9.9375-0.59765c5.4653-0.32917 9.9806-0.57623 10.035-0.54883zm9.125 0.31445c1.0439 0 30.706 12.492 29.938 12.607-0.45737 0.0689-7.5811 1.4007-15.83 2.959-8.249 1.5583-15.529 2.9622-16.178 3.1191-1.1758 0.28445-1.1776 0.26998-0.42578-4.3398 0.41488-2.544 1.0403-6.813 1.3906-9.4863 0.35032-2.6733 0.84854-4.8594 1.1055-4.8594zm-3.0312 0.17378c0.17205 0.17205-1.7592 14.25-2.3574 17.184-0.35661 1.7486-0.23932 1.7407-5.7793 0.42383-2.2914-0.54464-8.5977-1.9413-14.014-3.1035-5.4159-1.1622-9.7829-2.1761-9.7051-2.2539 0.34789-0.34788 31.701-12.405 31.855-12.25zm37.16 2.4531c0.23764-0.0193 0.64155 0.23674 1.2246 0.6543 0.84017 0.60169 5.9979 3.9837 11.461 7.5156 5.463 3.5319 9.7126 6.4029 9.4434 6.3789s-4.989-1.234-10.488-2.6875l-9.998-2.6426-0.92773-3.8398c-0.9547-3.9562-1.2377-5.3364-0.71484-5.3789zm-69.08 1.543c0.20124-0.0551-0.23976 0.73649-1.0977 1.9395-3.9728 5.5708-3.9635 5.5644-10.416 7.541-3.3478 1.0255-6.3057 1.8721-6.5742 1.8828-0.26852 0.0107 3.4808-2.382 8.332-5.3164 4.8513-2.9344 9.1854-5.6208 9.6309-5.9707 0.0557-0.0437 0.0962-0.0683 0.125-0.0762zm67.736 10.445c0.17472-0.0146 0.27403-0.015 0.29101 2e-3 0.13583 0.13582-0.38102 6.561-1.1504 14.277-0.76938 7.7163-1.4694 14.093-1.5547 14.172-0.22136 0.20339-31.533-21.62-31.537-21.98-2e-3 -0.16448 2.3087-0.71273 5.1348-1.2188 2.826-0.50603 10.476-1.9505 17-3.209 5.7082-1.1012 10.593-1.9409 11.816-2.043zm-71.049 0.0742c0.23678-0.23677 26.188 4.9867 30.09 6.0566 0.48014 0.13166-3.0451 2.4906-22.838 15.285-5.2624 3.4017-9.6988 6.1856-9.8594 6.1856-0.56552 0 1.9827-26.903 2.6074-27.527zm77.039 0.39844 11.553 3.0059c6.3533 1.6529 11.713 3.0068 11.91 3.0098 0.35 4e-3 1.0196 4.3378 2.1387 13.848 0.3028 2.5734 0.48847 4.7397 0.41407 4.8125-0.15281 0.14951-5.1215-4.5257-17.52-16.482zm-83.439 0.66797c0.07539 0.0754-5.1542 5.2482-11.621 11.494-6.4669 6.2459-11.568 10.855-11.336 10.244 0.23242-0.61104 1.7032-4.6464 3.2676-8.9668l2.8438-7.8555 8.3555-2.5254c4.5948-1.3898 8.4148-2.466 8.4902-2.3906zm80.332 0.17578c0.0707-0.25026 4.7476 3.9947 10.393 9.4336 5.645 5.439 11.983 11.537 14.084 13.553l3.8184 3.6641-14.096 0.6836c-7.753 0.37507-14.817 0.81811-15.697 0.98632-1.5525 0.29662-1.5896 0.25073-1.2715-1.5586 0.18042-1.026 0.84805-7.3646 1.4844-14.086 0.63634-6.7214 1.2145-12.426 1.2852-12.676zm-76.957 0.42774c0.17649 0.16905-1.9596 23.02-2.4043 25.719-0.20878 1.2669-0.58159 1.7773-1.2461 1.7148-0.52081-0.049-5.8898-0.46567-11.932-0.92774-6.0418-0.46206-10.916-0.98573-10.832-1.1621 0.26881-0.56273 26.255-25.496 26.414-25.344zm38.178 7.3398c0.91258-0.11365 3.9372 1.9101 15.445 9.9102 8.4956 5.9059 15.476 10.945 15.514 11.199 0.0372 0.25427-0.4146 0.54635-1.0039 0.64844-0.58931 0.10211-7.6948 1.6812-15.791 3.5098-8.0962 1.8286-15.191 3.4602-15.766 3.625-0.9413 0.27002-1.012 0.0614-0.71094-2.1211 0.1837-1.3316 0.61223-7.5455 0.95117-13.809s0.78385-11.929 0.98829-12.59c0.0639-0.20658 0.16245-0.34682 0.37304-0.37305zm-3.2402 0.10742c0.0677-0.0153 0.10559-0.0113 0.11133 0.0137 0.18169 0.7901-0.35618 10.22-1.3906 24.367-0.1843 2.5205-0.49254 4.5632-0.68555 4.5391-1.5589-0.19485-31.173-8.0747-31.152-8.2891 0.09227-0.94096 31.018-20.156 33.117-20.631zm72.182 2.1348c0.40027 0.10521 1.6209 1.7396 4.4062 5.7266 2.6657 3.8157 5.9498 8.5007 7.2988 10.41 1.349 1.9095 2.1278 3.4477 1.7305 3.4199-0.85723-0.06-11.194-2.7366-11.412-2.9551-0.083-0.083-0.52162-3.2518-0.97461-7.043-0.45299-3.7912-0.97295-7.766-1.1562-8.832-0.0871-0.50631-0.0745-0.77439 0.10742-0.72656zm-133.28 3.6934c0.09697 0.097-0.85811 2.9541-2.123 6.3496-2.2355 6.0008-2.3649 6.2001-4.584 7.0976-1.2556 0.50785-2.6364 1.0632-3.0684 1.2344-0.43193 0.17112 1.5507-3.102 4.4062-7.2734 2.8556-4.1714 5.2721-7.5052 5.3691-7.4082zm-2.127 14.49 11.566 0.95899c6.3615 0.52778 11.89 0.97353 12.285 0.99023 0.39535 0.0167-4.3269 6.7161-10.494 14.889-6.1672 8.1726-11.404 15.076-11.639 15.338-0.6109 0.68433-1.0002-4.7752-1.3828-19.383zm133.37 0.98438c0.56893 4e-3 0.9023 0.0254 0.94141 0.0645 0.17907 0.17907-0.98188 8.0231-2.5801 17.432-1.5982 9.4085-2.9535 17.16-3.0117 17.227s-1.3711-1.5591-2.918-3.6113-7.1915-9.5128-12.545-16.58l-9.7344-12.85 3.6875-0.33399c6.6705-0.60293 22.178-1.3739 26.16-1.3476zm-137.68 0.55468c0.20091-0.0895-1.9659 4.2846-4.8145 9.7207-6.2894 12.002-6.4495 12.258-5.5156 8.7734 0.40934-1.5276 1.3962-5.6726 2.1953-9.2109l1.4531-6.4336 3.1582-1.3438c1.7366-0.73891 3.3225-1.4164 3.5234-1.5059zm143.38 0.13086c0.0991-0.0991 2.924 0.50607 6.2774 1.3457l6.0976 1.5273 0.16602 2.2617c0.0922 1.2444 0.61773 6.6054 1.168 11.912 0.55025 5.3067 0.97476 9.6894 0.94336 9.7402-0.0314 0.0509-3.3799-5.9154-7.4434-13.258-4.0635-7.3424-7.3081-13.43-7.209-13.529zm-110.5 1.0684c0.16371-0.16371 31.484 7.9331 31.762 8.2109 0.11481 0.11482-4.6462 6.6827-10.58 14.596-5.9339 7.913-10.873 14.471-10.977 14.574-0.10317 0.10316-1.9977-6.6242-4.2109-14.949-2.2132-8.3251-4.4957-16.749-5.0723-18.721-0.57656-1.9715-0.99198-3.6408-0.92188-3.7109zm70.016 0.4336c1.0123-0.27447 1.968-0.30564 3.2611 1.2353 3.4476 4.1085 9.3163 12.23 13.381 17.618l11.975 15.879c0.30215 0.63123 0.72465 1.4832-0.0547 2.6484 0.0811 0.0784-3.968 8.5549-8.998 18.836-5.0301 10.281-9.2281 18.693-9.3301 18.693-0.25138 1.4931-2.1548 1.727-3.0821 1.76-0.52626 0.20463-9.5808 1.1518-20.121 2.1055s-20.049 1.4047-20.762 1.5571c-2.5889-0.0421-2.8217-0.44511-3.9022-2.2655-3.5297-5.9529-17.57-30.844-20.252-35.917-0.8759-1.3033-1.2738-2.6842-0.056-3.6248l10.834-14.443c5.9591-7.9434 11.016-14.491 11.238-14.551 1.2464-1.566 1.0028-1.4875 2.5722-1.6914 0.16566-0.16566 7.3709-1.8928 16.01-3.8398 8.6388-1.947 16.143-3.6784 16.678-3.8477 0.25551-0.0809 0.47233-0.1791 0.60937-0.15234zm38.279 0.15039c0.2212-0.21264 16.63 29.84 16.412 30.059-0.11033 0.11033-5.1594 1.058-11.221 2.1055l-11.021 1.9043 0.33398-2.291c0.60988-4.1876 5.3589-31.645 5.4961-31.777zm-110.8 1.0195c0.21861-0.0759 1.3776 3.5487 2.5742 8.0547 1.1966 4.5059 3.3827 12.687 4.8594 18.182 1.4766 5.4943 2.6856 10.182 2.6856 10.416 0 0.43269-2.0418 0.5149-3.0547 0.12305-0.30551-0.11821-7.298-1.3609-15.537-2.7617-8.2391-1.4008-15.067-2.635-15.174-2.7422-0.23641-0.23641 23.083-31.076 23.646-31.271zm-28.648 0.38281c0.23496 0 0.26762 0.59032 0.31641 1.4492 0.08588 1.5117 0.33699 8.5605 0.55664 15.664 0.34939 11.3 0.29539 12.91-0.43359 12.863-2.023-0.12968-14.166-3.6906-14.166-4.1543 0-0.28313 3.1244-6.5019 6.9434-13.818 4.7737-9.1456 6.2663-12.004 6.7832-12.004zm157.26 9.1875c0.19432 0.0314 1.1867 2.6207 3.0976 8.0566l2.2422 6.3809-1.4707 1.5352c-0.80924 0.84466-1.6344 1.5352-1.832 1.5352-0.19768 0-0.66156-3.4525-1.0313-7.6719-0.36967-4.2193-0.79217-8.2801-0.93945-9.0254-0.1082-0.54754-0.13118-0.82103-0.0664-0.81055zm5.373 17.818-0.3457 7.2051c-0.57525 12-0.91056 12.651-1.9609 3.8125l-0.91797-7.7168 1.6113-1.6504zm-176.47 1.9824c0.76233-1e-5 2.5196 0.42032 6.0703 1.377 3.7485 1.0099 7.2524 1.848 7.7871 1.8613 1.2517 0.031 1.5754-1.3556-3.2109 13.758-2.3006 7.2644-4.2692 13.456-4.375 13.762-0.25817 0.74523-0.45268-0.0931-3.6777-15.83-1.534-7.4852-2.9133-14.01-3.0645-14.498-0.08589-0.27765 0.0133-0.42968 0.4707-0.42969zm170.1 2.293c0.0522 0.0745-2.2167 7.5915-5.043 16.703-2.8262 9.1116-5.2252 16.648-5.3301 16.75-0.1048 0.10153-2.858-6.4757-6.1191-14.617-3.2612-8.1415-5.8741-14.858-5.8066-14.926 0.20072-0.20072 22.195-4.0576 22.299-3.9102zm-151.72 2.0859c0.03767 4e-3 5.8169 1.0076 12.844 2.2305 7.0269 1.2229 14.652 2.5133 16.943 2.8672 2.2914 0.35384 4.2304 0.68724 4.3106 0.74024s-2.8846 5.4451-6.5898 11.984c-3.7053 6.5393-7.7575 13.703-9.0039 15.918s-2.4046 4.0207-2.5742 4.0117-3.8394-8.5078-8.1543-18.887c-4.3149-10.379-7.8131-18.868-7.7754-18.865zm-2.0449 2.7578c0.42912 0.25403 2.8761 5.5068 5.6836 12.236 2.9946 7.1782 6.4662 15.49 7.7148 18.469 1.2487 2.9788 2.0952 5.3952 1.8809 5.3711-0.21435-0.0241-0.63979-0.13355-0.94531-0.24414-0.30551-0.11058-5.7328-1.85-12.061-3.8652-11.109-3.5379-11.488-3.7076-10.998-4.8945 0.27905-0.67607 2.2772-6.8524 4.4395-13.727 2.1623-6.8741 4.0635-12.873 4.2266-13.33 0.01019-0.0285 0.02999-0.0326 0.05859-0.0156zm155.04 0.26953c0.12072 0.12072 0.89454 5.5116 1.7188 11.979l1.498 11.758-5.9863 3.002c-6.4475 3.2335-6.8022 3.3618-6.4375 2.3086 0.13224-0.3819 2.2076-7.1236 4.6133-14.98 2.4057-7.8569 4.473-14.187 4.5938-14.066zm-25.33 1.502c0.0205-6e-3 0.0347 9.4e-4 0.043 0.0215 0.15946 0.3962 2.8097 6.9345 5.8906 14.529s5.6698 14.192 5.752 14.66c0.11973 0.68246-2.4969 1.4224-13.184 3.7324-7.3324 1.5849-14.121 3.0403-15.088 3.2324l-1.7578 0.34765 3.2246-6.7812c8.0246-16.867 14.484-29.561 15.119-29.742zm-146.68 2.4082 2.1406 10.275c1.1766 5.6518 2.0692 10.347 1.9844 10.432-0.08476 0.0847-1.0636-0.85296-2.1758-2.084l-2.0215-2.2383 0.03711-8.1934zm54.873 1.2266c0.23582-0.24251 5.1921 8.0678 11.014 18.469 10.585 18.911 10.585 18.912 8.8359 18.846-0.96192-0.0366-9.7488-1.2713-19.525-2.7422-9.7765-1.4709-17.993-2.6907-18.26-2.7109s-0.23026-0.34858 0.08008-0.73047c0.31034-0.3819 4.3588-7.4444 8.9961-15.693 4.6373-8.249 8.6236-15.195 8.8594-15.438z" color="#000000" color-rendering="auto" dominant-baseline="auto" image-rendering="auto" shape-rendering="auto" solid-color="#000000" stop-color="#000000" style="font-feature-settings:normal;font-variant-alternates:normal;font-variant-caps:normal;font-variant-east-asian:normal;font-variant-ligatures:normal;font-variant-numeric:normal;font-variant-position:normal;font-variation-settings:normal;inline-size:0;isolation:auto;mix-blend-mode:normal;shape-margin:0;shape-padding:0;text-decoration-color:#000000;text-decoration-line:none;text-decoration-style:solid;text-indent:0;text-orientation:mixed;text-transform:none;white-space:normal"/><path d="m350.84 239.12c-3.2782 1.6367-9.8492 5.6539-13.698 8.2199-6.8763 5.6492-12.464 14.221-15.294 22.295-4.8688 14.275-2.4358 28.781 0.043 43.082 1.0823 8.5869 0.61018 13.375 7.5855 19.484 13.928 9.6364 30.313 24.24 30.313 24.24s-3.4766-11.365-21.637-25.896c-4.6817-3.746-8.547-9.3178-9.5374-17.176-3.5612-17.814-5.1071-29.164 0.60176-45.355 2.7782-10.265 9.5795-16.886 20.222-19.793 0.84424-2.9657 1.6021-5.947 1.4019-9.1018z" color="#000000" color-rendering="auto" dominant-baseline="auto" image-rendering="auto" shape-rendering="auto" solid-color="#000000" stop-color="#000000" style="font-feature-settings:normal;font-variant-alternates:normal;font-variant-caps:normal;font-variant-east-asian:normal;font-variant-ligatures:normal;font-variant-numeric:normal;font-variant-position:normal;font-variation-settings:normal;inline-size:0;isolation:auto;mix-blend-mode:normal;shape-margin:0;shape-padding:0;text-decoration-color:#000000;text-decoration-line:none;text-decoration-style:solid;text-indent:0;text-orientation:mixed;text-transform:none;white-space:normal"/></svg>
