<svg width="800.71" height="456.56" version="1.1" viewBox="0 0 800.71 456.56" xml:space="preserve" xmlns="http://www.w3.org/2000/svg"><title>dc3 CCCamping Logo</title><g><path d="m652.76 78.146c-2.6067-2.3829-5.1607-4.9073-7.2907-7.357-5.4824-6.3055-11.801-14.595-20.335-26.678-11.102-15.72-16.112-23.506-17.806-27.674l-0.58374-1.4363-1.2492 2.1c-4.0581 6.8221-10.412 12.853-17.031 16.165-8.4767 4.2411-17.025 6.0124-24.2 5.0144-10.324-1.436-23.961-8.9199-38.095-20.907-1.338-1.1347-2.4847-2.0631-2.5482-2.0631-0.0635 0-0.19442 1.0999-0.2908 2.4441-0.75701 10.557-5.0361 21.082-14.562 42.028-7.7227 16.981-18.5 27.69-22.641 31.783-2.2773 2.2504-5.3816 5.1491-27.901 14.512-0.0501 0.95323-2.6316 6.5045 2.942 4.8118 0.73639-0.22364 3.6049-0.9659 5.347-1.8572 5.9296-3.0335 16.324-8.2221 16.574-8.2765 3.8177-1.7332 6.8821-4.3264 7.0279-4.3264 0.14578 0 0.98704 0.43006 1.8694 0.95569 1.3241 0.78875 1.6043 1.079 1.6043 1.6616 0 0.38824-0.29725 3.4197-0.66057 6.7367-0.36331 3.3169-0.66041 6.2255-0.66021 6.4635 2.5e-4 0.3928 0.93255 0.4351 10.107 0.45857 9.7176 0.0249 10.551 0.0681 21.65 1.123 6.3491 0.60342 11.625 1.0971 11.724 1.0971 0.55024 0-1.2887-25.352-2.9364-40.481-1.5303-14.052-5.3558-42.869-6.3443-47.791-0.12517-0.62328-0.0367-0.70253 1.0672-0.95511 1.1216-0.25667 1.212-0.23736 1.3269 0.28333 0.0679 0.30732 0.66363 4.8393 1.3241 10.071 0.66048 5.2318 1.3738 10.82 1.5851 12.419 1.9044 14.408 5.8461 52.189 6.6346 63.592 0.0972 1.4054 0.26005 2.6902 0.36192 2.855 0.10188 0.16484 1.3632 0.41251 2.803 0.5504 1.4109 0.13512 12.315 1.2232 23.527 2.2901 0 0 1.5715-2.4578 3.2732-5.8822l12.496-25.146c0.34111-0.68644 1.8141-3.371 1.934-4.3036l66.258-2.884c0.89295-0.03887 3.1772-1.037 3.6973-1.3963zm-104.36 32.2c-6.1768-11.708-6.7915-24.021-8.548-36.464-1.9886-13.785-2.8939-27.754-5.6885-40.082-0.42632-1.8806-0.74444-3.45-0.70696-3.4876 0.0375-0.03757 0.88003 1.1515 1.8723 2.6423 5.536 8.3175 12.776 18.348 19.815 26.349 6.4774 7.3625 17.456 19 25.73 27.426l-12.496 25.146c-7.1678-1.0085-14.552-1.6393-19.978-1.5298zm-54.276-0.55724c0-0.0631 0.53341-2.8828 1.1853-6.266 0.65194-3.3832 2.3968-6.539 2.2898-6.6352-0.10691-0.09621-0.96734-0.50764-1.912-0.91427-0.94463-0.40663-1.814-0.82111-1.932-0.92105-0.11797-0.09995 0.62464-2.6286 2.7879-6.1729 9.3976-15.397 16.136-26.781 20.975-36.382 4.3587-8.6496 5.8278-13.327 6.1914-16.067 1.7843 7.6315 2.304 14.407 3.6167 25.311 1.9372 15.73 3.3673 29.927-3.9176 44.712l-1.0066 2.1525-12.038 0.56544c-7.1086 0.33391-13.532 0.29787-14.259 0.4271-1.706 0.3034-1.9817 0.32996-1.9817 0.19085zm88.684-27.363c-3.1177-3.1931-6.2744-6.6761-7.8507-8.4763-5.822-6.6494-15.587-19.039-25.691-32.367-2.5217-3.3262-4.4764-6.0004-4.3438-5.9428 0.13254 0.05761 1.1923 0.5941 2.3549 1.1922 5.119 2.6334 8.5685 4.0537 14.873 4.6682 2.2165 0.21601 6.5269 0.57986 9.5788 0.80856 5.6422 0.42282 7.5539-0.64594 8.8222 0.0099 1.9569 1.0119 2.5842 4.6514-1.214 8.995-0.88957 1.0173-1.5031 1.8751-1.3732 1.9317 0.76079 0.33165 4.8166-1.8092 6.8764-5.6054 1.182-2.1786 1.1716-3.6199 2.7047-6.6078 2.4038-4.6849 3.6294-5.4269 9.6596-8.913 4.2888-2.3785 7.0632-5.6151 9.1034-9.7529 4.7421 10.15 10.898 18.263 16.236 25.365 10.29 13.766 17.379 22.448 26.522 31.81z" stroke-width=".26423"/><path d="m97.477 343.72-1.3128-1.3128-1.0629 0.44411c-2.1992 0.91888-2.9689 0.2234-1.4766-1.3342l0.76318-0.79657-3.0972-3.273c-3.8659-4.0854-5.8159-6.8429-5.56-7.8625 0.44359-1.7674 2.7203-3.303 4.5061-3.0393 0.55095 0.0813 0.75258 0.38646 1.0648 1.6112 0.2118 0.83099 0.83228 2.3989 1.3788 3.4842 0.98693 1.9598 4.3363 6.7318 4.725 6.7318 0.78763 0 11.971-10.45 12.261-11.34 0.0714-0.2195-0.48242-0.40622-1.571-0.52954-10.743-1.2171-20.36-2.7611-33.303-6.0109-10.057-2.525-16.377-5.4377-18.27-7.1922l-0.80507-0.7461 0.20041-3.378c0.26161-4.4103 0.66603-7.2541 1.3391-9.4168 0.30033-0.96492 0.50774-1.7927 0.46092-1.8395-0.0468-0.0468-5.279 2.7244-11.627 6.1583-6.3481 3.4339-13.927 7.4838-16.842 8.9998-2.915 1.516-5.3001 2.8224-5.3001 2.9031 0 0.24073 2.0352 3.8425 3.5294 6.246 0.76618 1.2325 1.393 2.3075 1.393 2.3888 0 0.0813-0.8993 0.14794-1.9984 0.14794h-1.9985l-2.2285-3.4746c-1.2257-1.9111-2.3134-3.474-2.4172-3.4733-0.10378 8.8e-4 -1.2107 0.39885-2.4598 0.8847-3.25 1.2642-3.6829 0.96737-1.0589-0.72602 1.1944-0.7708 2.2856-1.5032 2.4248-1.6275 0.13918-0.1243-0.4864-1.6718-1.3903-3.439-2.3235-4.5424-2.6089-5.4259-2.0355-6.301 0.71764-1.0952 2.1578-1.8207 3.607-1.817 0.71664 2e-3 1.9066-0.1935 2.0817-0.0765 0.17498 0.11699 0.39668 1.1713 0.49246 2.3428 0.19979 2.444 1.0524 6.0006 1.582 6.2038 0.48584 0.18642 23.047-12.259 29.177-15.887 2.587-1.5309 3.088-1.9333 2.7064-2.174-0.39757-0.25078-0.26496-0.44794 0.87913-1.307 5.1393-3.8589 14.581-11.542 20.763-18.652 6.0079-6.9098 12.932-15.994 22.283-29.235 12.166-17.227 17.656-25.759 19.512-30.326l0.63969-1.5739 1.3689 2.3013c4.447 7.4759 11.41 14.085 18.664 17.714 9.2891 4.6475 18.657 6.5886 26.519 5.495 11.314-1.5736 26.257-9.7748 41.746-22.911 1.4662-1.2435 2.7228-2.2609 2.7924-2.2609 0.0696 0 0.21305 1.2053 0.31867 2.6784 0.82956 11.569 5.5188 23.103 15.957 46.056 8.4628 18.608 20.273 30.344 24.811 34.829 2.3813 2.0362 9.77 1.4627 12.867-0.85787 5.8104-4.3536 9.6672 2.972-0.41995 7.5515-7.0675 2.6715-10.92 2.8668-16.82-1.3632-0.15975 0-1.0816 0.47129-2.0486 1.0473-1.451 0.86435-1.7581 1.1824-1.7581 1.8208 0 0.42545 0.32574 3.7475 0.72388 7.3823 0.39813 3.6348 0.7237 6.8222 0.72348 7.083-2.7e-4 0.43045-1.0219 0.4768-11.075 0.50252-10.649 0.0273-11.562 0.0746-23.725 1.2306-6.9576 0.66125-12.739 1.2023-12.848 1.2023-0.60298 0 1.4122-27.782 3.2178-44.361 1.677-15.398 5.8691-46.977 6.9523-52.371 0.13716-0.68301 0.0402-0.76985-1.1694-1.0466-1.2291-0.28127-1.3282-0.26011-1.454 0.31048-0.0744 0.33677-0.72723 5.3031-1.451 11.036-0.72378 5.7332-1.5054 11.857-1.737 13.609-2.0869 15.789-6.4064 57.191-7.2705 69.687-0.10651 1.5401-0.28497 2.948-0.3966 3.1286-0.11165 0.18064-1.4939 0.45206-3.0716 0.60315-1.5777 0.1511-13.162 1.2542-25.743 2.4514l-22.875 2.1767-5.3567-0.30189c-7.135-0.40211-16.94-1.1148-19.952-1.4504-2.4037-0.26776-2.4453-0.26138-3.3753 0.51727-0.51792 0.4336-3.528 3.0686-6.6892 5.8556-3.1612 2.787-6.1702 5.4171-6.6867 5.8448-0.51649 0.42766-0.93909 0.88816-0.93909 1.0233 0 0.13516 0.71664 0.95349 1.5926 1.8185 0.87589 0.86502 1.5925 1.6511 1.5925 1.7469 0 0.17378-2.8509 1.1486-3.3591 1.1486-0.14745 0-0.85867-0.59074-1.5807-1.3128zm3.4418 0.0117c0.0753-0.0752-0.86399-1.1842-2.0871-2.4644-2.2522-2.3573-5.6247-7.162-7.1636-10.206-0.46299-0.91571-0.89927-1.6649-0.96955-1.6649-0.0703 0-0.62215 0.33553-1.2264 0.7456-0.78028 0.52952-1.3294 0.69945-1.895 0.58635-0.43795-0.0876-0.7958-0.0648-0.79519 0.0507 5e-3 0.8965 4.4622 5.9988 9.1232 10.443 2.8707 2.737 3.2146 2.9789 4.0085 2.8201 0.4776-0.0956 0.92991-0.23521 1.0051-0.31041zm-11.471-14.628c0.72948-0.90089 0.68768-2.0235-0.0753-2.0235-1.3089 0-3.1707 1.5052-3.1707 2.5633 0 0.6786 2.611 0.24439 3.2461-0.5398zm93.598-10.34c6.7688-12.83 7.4424-26.323 9.3672-39.959 2.1792-15.106 3.4974-30.588 6.5599-44.098 0.46718-2.0608 0.81578-3.7807 0.77471-3.8218-0.0411-0.0412-0.96437 1.2618-2.0518 2.8955-6.0666 9.1146-14.001 20.106-21.714 28.874-11.355 12.907-34.57 36.999-39.758 41.261l-1.9386 1.5926c12.187-0.87417 8.9567 11.318 7.4883 18.999 12.501-3.9528 30.106-5.9688 41.273-5.7436zm-46.616 3.9398c1.187-6.4592 0.20138-12.261-2.2282-13.115-1.7057-0.59985-2.7888 0.11778-6.8489 4.5377-2.0831 2.2677-4.3205 5.2939-6.1627 7.0247-1.8422 1.7308-3.2946 3.2018-3.2276 3.2688 0.2626 0.2626 5.9558 0.12389 11.764 0.51012l6.2186 0.41355zm-19.99-1.0522c3.936-4.1523 9.1558-9.9994 9.0347-10.121-0.0579-0.058-3.934 0.29151-8.6135 0.7765-4.6795 0.48497-11.083 1.0299-14.231 1.2109-11.636 0.66925-17.757-0.65132-31.635-6.8252-4.8373-2.152-7.9199-3.4974-9.1792-4.994-0.40692-0.48358-0.73984-0.82616-0.73984-0.76128 0 0.15498-0.74192 9.0883-0.9412 9.929-0.13864 0.58466 0.19929 0.81959 3.3981 2.3628 5.4024 2.6063 10.019 4.6591 20.366 6.7218 8.9325 1.7808 24.361 4.1473 29.186 4.4768 0.51095 0.035 1.3394-0.6509 3.3547-2.7768zm-89.163 2.2457c0.0979-0.15831-0.13367-0.71208-0.51463-1.2306-1.8505-2.5192-4.1866-7.8592-5.4481-12.454-0.5467-1.9911-0.78914-2.4959-1.1303-2.3532-1.8534 0.77533-2.0487 0.80829-2.8955 0.48865-0.74865-0.28257-0.86828-0.26135-0.86584 0.15369 8e-3 1.1546 2.4406 5.576 6.4414 11.702 2.3258 3.5612 2.6865 3.9814 3.4177 3.9814 0.44959 0 0.89749-0.12952 0.99534-0.28786zm215.57-5.9184c0-0.0691-0.58453-3.1591-1.2989-6.8665-0.71442-3.7074-2.6265-7.1657-2.5093-7.2711 0.11716-0.10542 1.06-0.55629 2.0952-1.0019 1.0352-0.44561 1.9879-0.8998 2.1172-1.0093 0.12928-0.10947-0.6845-2.8806-3.0551-6.7645-10.298-16.872-17.683-29.347-22.985-39.869-4.7765-9.4785-6.3863-14.604-6.7847-17.607-1.9553 8.3629-2.5248 15.788-3.9634 27.737-2.1228 17.237-3.69 32.795 4.293 48.997l1.1031 2.3588 13.191 0.61963c7.7899 0.36591 14.829 0.32642 15.625 0.46803 1.8694 0.33248 2.1717 0.36158 2.1717 0.20914zm-117.55-12.484c2.9664-1.3177 2.8107-0.54008 7.9447-5.3962 6.7686-6.4024 17.153-16.967 21.029-21.394 6.38-7.2867 17.081-20.864 28.154-35.469 2.7634-3.6449 4.9054-6.5755 4.7601-6.5123-0.14524 0.0631-1.3066 0.65103-2.5806 1.3064-5.6096 2.8858-9.3897 4.4422-16.299 5.1156-2.4289 0.23671-7.1525 0.63544-10.497 0.88605-6.183 0.46334-8.2779-0.70785-9.6678 0.0109-2.1444 1.1089-2.8319 5.0971 1.3303 9.857 0.97482 1.1148 1.6471 2.0548 1.5048 2.1168-0.8337 0.36344-5.2783-1.9826-7.5354-6.1426-1.2953-2.3874-1.2839-3.9668-2.9639-7.2411-2.6341-5.1339-3.9772-5.947-10.585-9.7672-4.6998-2.6064-7.7402-6.1532-9.9758-10.688-5.1966 11.123-11.943 20.013-17.792 27.796-15.353 20.541-23.803 29.788-40.977 46.314 4.9368 5.7803 7.6143 5.8064 12.461 8.1406 16.769 7.4229 34 6.5024 51.69 1.0658zm-105.7-0.21628c-0.89471-0.23397-2.5293 0.32268-3.0248 1.0301-0.59179 0.84491-0.56059 1.0196 0.20863 1.1677 2.4431 0.33274 5.7308-1.6669 2.8161-2.1978z" stroke-width=".28955"/><g stroke="#000" stroke-width=".625"><path d="m358.77 176.38c-2.852-0.0642-6.6836 1.4316-6.6836 1.4316-9.032 28.998-38.294 35.992-52.99 58.084-8.2447 12.394-9.2911 31.274-19.981 44.122-4.9211 6.4093-9.542 11.667-14.28 17.375l-2.7542 5.291c1.9353-0.2758 3.2557 1.1479 5.8067-0.8293 5.16-6.269 10.457-11.728 15.48-18.809 11.201-11.918 9.5577-31.067 18.323-42.504 15.404-20.098 39.348-31.697 55.182-48.801l1.957 4.1328c2.8288 21.758-6.5698 36.456-6.1335 57.994-0.2175 12.185 4.7111 18.37 15.809 24.243 0.54059 0.20291 8.7733 2.7737 11.759 3.2595 5.5334 0.90038 14.934 1.5494 22.478 6.0705 3.1664 1.8976 5.6718-3.4099 2.6432-5.7323-3.0646-2.35-27.916-7.2339-31.72-9.7783-7.8325-6.525-12.484-10.666-13.789-20.022 3.0462-25.02 12.66-51.029 0.0417-75.397-0.35343-0.0817-0.74101-0.12363-1.1484-0.13281z"/><path d="m374.06 164.11-7.834 7.1797c11.966 13.055 17.406 30.678 12.402 48.518-0.32 8.4875-11.248 14.81-13.488 16.314-0.5025 1.8288-0.78295 4.6126-1.368 7.5501 1.9338-0.34 3.746-1.7097 7.0235-3.411 11.314-7.8325 16.098-20.015 17.404-32.854 0.87125-4.7862-1.9562-9.1384 0-13.055 9.1388 2.6112 20.887 3.9171 29.59-0.65039 4.4083-1.9508 14.463-2.8531 22.913-4.1351 10.848-0.47383 23.185 0.37525 33.782 2.5826 18.086 3.7672 26.082 9.7034 40.135 15.779 6.1506 2.9785 3.3166 9.709 8.6892 21.779 10.293 23.124 5.5086 14.178 15.253 28.386 6.6772 9.7359 19.234 9.7275 23.366 9.5236 4.5863-0.22637 10.637-5.9827 0.79463-3.0303-4.897 1.4689-16.846-2.774-22.704-10.672-4.6775-7.6492-7.64-7.9657-13.771-27.175-5.182-16.498 2.7762-16.223 4.0337-16.026 15.815 2.4827 20.176-0.86776 36.155-4.4462 3.9282-0.87975 47.144-14.433 89.536 0.0523 28.712 9.8106 50.065 27.099 39.815 37.065-3.9202 3.8118 8.3251-1.6812 8.205-2.803-2.0434-19.087-19.415-27.547-47.205-37.013-40.29-13.723-82.516-2.4212-87.433-1.9931-17.272 1.5038-28.496 8.6665-47.018 0.45647-23.765-10.534-48.5-16.239-50.493-16.625-2.5282-0.48922-20.876-2.1113-20.989-2.1318-5.6176-1.0209-34.942 2.5923-38.172 3.5418-4.2246 1.2422-10.779 3.0458-17.301 1.6609l-2e-3 -2e-3c-11.581-2.4612-16.752-15.23-21.32-24.367z"/><path d="m378.4 132.99c-0.13332-4e-3 -0.2761 8e-5 -0.42579 0.0137-8.7012 15.23-19.581 37.858-41.121 36.988v2.1738c5.6575 5.0062 15.232 1.7416 21.324-1.0859 13.924-6.745 20.451-20.888 23.061-34.377-0.61055-1.6324-0.83819-3.6466-2.8379-3.7129z"/><path d="m375.68 122.39c-0.51565-0.0684-1.0055 0.39336-1.6211 0.81836-7.7012 13.56-20.236 26.98-35.465 31.332-5.8762 3.6988-15.013 0.65195-20.018 5.2207 7.3975 9.1375 19.145 3.0466 28.285 1.0879 14.576-7.8325 26.109-21.974 29.807-37.641-0.36094-0.54562-0.67889-0.77731-0.98828-0.81836z"/><path d="m189.77 56.412c-1.9588 8.7025-2.6748 24.584 1.5215 27.197 17.18 10.7 41.897 6.3791 62.664 6.3066 11.838-0.04 44.597-4.7847 60.48 10.445 1.305 1.3062 3.4808 2.8284 2.1758 4.5684-7.615-4.1338-19.373-7.8383-25.023-7.832-35.044 0.0375-101.33 0.67531-104.43-1.5234-14.08-9.9762-21.54-25.455-32.418-38.072l-8.4863-0.4375 16.754 21.322c7.8325 7.615 13.056 20.016 23.064 23.062 36.986 2.3925 75.059 1.5226 112.7 2.6113 6.745 0.86875 15.231 2.6105 17.842 9.3555-4.5688-1.9575-9.7919-2.6117-14.578-3.6992 0 0-105.13-3.5024-115.96-0.43359-3.8925 1.1012-5.5102 1.4223-7.834 3.4785-14.415 12.75-25.673 29.374-36.117 43.951h7.834c16.752-17.406 26.245-44.065 52.756-42.611 17.924 0.98375 62.121 0.83649 90.404 1.2715 8.92-0.2175 18.059 0 23.934 5.875-20.669-1.5238-46.401-0.80508-68.424-0.36133-12.052 0.24375-53.745-3.4709-58.424 7.5391-3.6988 8.7025-2.0408 24.958-1.5195 27.85 2.2275 0.98875 5.2871 0.0918 5.2871 0.0918 4.1412-3.7112-0.30367-13.576 1.4551-20.541 0.69625-2.75 1.1121-6.1459 4.7871-6.7422 33.506-5.4388 69.843-0.65594 104.44-2.1797 0.65375 0.21875 1.959 0.87078 1.5215 2.1758-1.0862 1.305-0.21657 3.6978 1.5234 4.1328 20.451 8.2675 40.903-2.3933 57.439-13.488l0.43555 0.4336c-10.444 13.925-26.977 20.235-44.385 20.887-2.8275 0.43625-6.7465 0.87047-7.834 3.6992 5.875 6.09 16.318 3.699 24.15 1.959 15.012-3.48 32.2-15.665 35.465-31.33-6.745-0.43375-0.21844-5.8742-1.5234-9.3555-3.915-5.6575-5.4394 3.9166-8.4844 4.1328-3.2638-8.4838-3.0474-19.363-12.402-24.367-1.5238 0-1.5226 1.5238-2.1738 2.6113 3.9162 8.05 7.1781 16.534 8.4844 26.107-0.87 1.5225-3.0471 3.9163-4.7871 2.6113-2.3925-12.184-9.356-22.627-15.666-33.07-3.045-2.3938-6.7426-6.5273-10.441-4.1348 8.2675 13.272 18.059 25.892 21.322 41.34l-1.5234 1.5215c-1.0875 1.5238-2.3931-0.21789-3.0469-1.0879-3.6988-14.36-13.489-26.544-23.062-38.51-2.61-1.0875-5.6556-5.2215-8.2656-1.7402 9.355 11.53 19.145 22.845 23.932 36.117v4.7871c-4.1325-10.444-10.661-20.234-19.363-28.719-32.201-19.799-76.368-5.658-114.22-12.186-10.444-4.3512-3.4798-16.97-6.3086-25.02h-5.6582z"/><path d="m162.58 44.011c-23.884 5e-3 -64.225 2.7093-71.445 3.0918-9.7162 0.51625-11.583 46.697-10.865 58.201 0.60875 9.7875 0.84016 63.71 12.254 64.023 39.381 1.09 80.499-0.21516 121.19 0.87109 8.05 0 20.211 1.318 21.975-5.2207 2.44-9.055 4.1888-16.836 4.7051-22.686 0.49625-5.625-0.14344-8.567-3.3984-8.6445-6.18-0.145-4.3662 5.2872-6.0938 13.055-0.98625 4.435-2.8958 11.312-7.582 13.184-6.47 2.5812-60.082 1.6113-89.453 1.6113-16.328-0.59875-34.294 4.1002-39.164-9.5723-5.6563-15.882-6.151-31.53-5.8848-45.844 0.32-17.2-1.6834-49.695 14.807-51.193 38.078-3.4612 112.48-5.2778 123.14 2.1797 7.3587 5.15 2.4602 19.001 7.709 20.385 1.68 0.025 4.2512 0.71906 6.4688-0.46094 0.805-18.361-5.8483-28.359-9.0508-28.889-21.351-3.5288-46.08-4.098-69.307-4.0918z"/><path d="m382.61 156.89c0.40107-2.8244 2.5009-6.3613 2.5009-6.3613 8.6214 0.0187 16.535-4.2302 24.44-7.9431 1.8861-0.88592 11.926-6.4592 16.937-12.282 9.4929-11.029 13.418-16.126 17.999-18.74 4.0799-2.3285 13.461-5.6566 19.829-7.0754l0.64204 4.8243c-4.9711 2.3873-15.991 6.4146-20.507 9.7366-2.5558 1.8802-7.3633 9.1004-14.42 17.934-5.7115 7.1495-14.277 10.752-15.92 11.454-5.7775 2.4662-11.161 5.8429-16.036 9.0831l3.759 2.6039c21.006 6.3339 46.679-13.29 67.859-9.3527 11.756 2.097 31.662 7.9562 48.836 4.534 15.25-4.2633 14.373 1.1005 5.6148 4.4974-19.564 7.5873-38.793-1.2148-57.097-3.7842-11.43-0.48503-27.163 7.6364-40.924 10.006-16.557 2.8508-31.561 0.98669-43.569-7.9796-0.023-0.36203-1e-3 -0.75126 0.056-1.1547z"/></g><path d="m718.11 325.18c0.53107-0.37198 1.289-0.5522 1.6844-0.4005 1.0853 0.41647 2.137-0.64258 1.6122-1.6234-0.34459-0.64386 0.10116-1.4024 2.2642-3.8526 3.0972-3.5084 3.4366-4.9726 1.5051-6.4919-1.9018-1.496-2.7975-1.216-3.8618 1.2074-0.5174 1.1781-1.5323 3.0073-2.2554 4.0648l-1.3146 1.9228-2.5669-2.0205c-3.4192-2.6914-5.7773-4.7293-5.4895-4.7442 0.1287-7e-3 3.8409-0.62013 8.2493-1.3632 11.862-1.9996 23.798-5.0932 27.254-7.0639l1.9165-1.0928-0.0196-2.7994c-0.0106-1.5397-0.18801-3.6702-0.39379-4.7344-0.20578-1.0643-0.22429-1.876-0.0412-1.8038 2.2031 0.86842 20.725 11.078 20.734 11.429 7e-3 0.26147-0.5958 1.4353-1.3399 2.6086-1.8082 2.8512-1.7433 3.3227 0.48717 3.5354 1.4995 0.143 1.9272 6e-3 2.3113-0.74179 0.2592-0.50449 0.95491-1.5656 1.5461-2.358 0.98653-1.3225 1.1859-1.402 2.4292-0.96855 0.74497 0.2597 1.7071 0.33318 2.138 0.16331 0.67074-0.2644 0.55899-0.49802-0.77653-1.6233l-1.56-1.3145 1.2218-2.4912c0.672-1.3702 1.2218-2.7911 1.2218-3.1577 0-1.8469-3.7275-3.3127-4.8483-1.9065-0.24712 0.31002-0.58808 1.5228-0.75773 2.6952-0.1696 1.1723-0.49017 2.2438-0.7124 2.3812-0.43629 0.26965-9.9307-4.3694-16.365-7.9963-4.2916-2.4189-6.4268-4.2137-14.093-11.846-7.5828-7.5491-13.18-14.603-24.157-30.441-6.1229-8.8347-9.0241-13.434-10.312-16.347-0.52089-1.1781-1.0244-2.142-1.1188-2.142-0.0945 0-0.94144 1.2683-1.8822 2.8184-3.6778 6.06-10.198 11.166-17.52 13.72-3.1968 1.1152-4.2493 1.2593-9.2444 1.2662-6.4128 8e-3 -8.1428-0.4201-14.574-3.6127-4.851-2.4083-10.05-5.8442-15.333-10.133-2.1877-1.776-4.2378-3.1292-4.5559-3.0072-0.34579 0.13269-0.70277 1.4615-0.88796 3.3054-0.4111 4.0932-2.1525 10.909-4.1639 16.297-5.4265 14.536-15.634 34.877-19.68 39.217-1.1866 1.273-4.14 2.6736-15.976 7.5766-10.366 4.2939-10.14 4.2797-10.787 0.67943-0.38106-2.119-0.92591-2.74-2.4037-2.74-1.3013 0-3.18 1.6301-3.18 2.7592 0 0.36949 0.62322 1.6545 1.3849 2.8556 1.0081 1.5897 1.2356 2.2761 0.83618 2.523-0.86335 0.53358-0.11481 1.8909 0.8704 1.5782 0.62647-0.19884 1.2792 0.28251 2.5568 1.8854 2.3336 2.9278 2.87 3.3062 4.2326 2.9864 1.9728-0.46309 2.0321-0.9144 0.41697-3.1736-0.8532-1.1934-1.6888-2.3975-1.857-2.6758-0.19012-0.31461 0.50076-0.80737 1.8272-1.3032 1.1731-0.43852 6.4868-2.7102 11.808-5.0483 8.4281-3.7029 9.816-4.1869 10.766-3.7541 0.99487 0.4533 1.0664 0.68337 0.81562 2.623-0.15121 1.1694-0.40746 3.5864-0.56945 5.3712-0.28695 3.1617-0.26683 3.2509 0.7826 3.4715 1.1027 0.23176 30.285 1.5606 30.516 1.3895 0.0703-0.052-1.1042-13.755-2.6101-30.45-1.5059-16.696-2.6734-30.674-2.5944-31.062 0.17702-0.87103 3.8772 12.822 5.7756 21.373 2.1254 9.5736 3.9593 21.088 4.9928 31.347 0.51278 5.09 1.0653 9.3887 1.2278 9.5526 0.16254 0.1639 7.6008 0.98034 16.53 1.8143 16.701 1.56 19.029 1.6035 31.784 0.59394l3.9826-0.31522 3.9873 3.4964c6.4427 5.6494 5.9252 4.9453 4.64 6.3134-1.0808 1.1505-1.0855 1.1881-0.22836 1.8149 1.1307 0.82683 2.5096 0.8134 3.7226-0.0362z" stroke-width=".45094"/><path d="m703.24 185.11 1.3128-1.3128 1.0629 0.44411c2.1992 0.91888 2.9689 0.2234 1.4766-1.3342l-0.76318-0.79657 3.0972-3.273c3.8659-4.0854 5.8159-6.8429 5.56-7.8625-0.44359-1.7674-2.7203-3.303-4.5061-3.0393-0.55095 0.0813-0.75258 0.38646-1.0648 1.6112-0.2118 0.83099-0.83228 2.3989-1.3788 3.4842-0.98693 1.9598-4.3363 6.7318-4.725 6.7318-0.78763 0-11.971-10.45-12.261-11.34-0.0714-0.2195 0.48242-0.40622 1.571-0.52954 10.743-1.2171 20.36-2.7611 33.303-6.0109 10.057-2.525 16.377-5.4377 18.27-7.1922l0.80507-0.7461-0.20041-3.378c-0.26161-4.4103-0.66603-7.2541-1.3391-9.4168-0.30033-0.96492-0.50774-1.7927-0.46092-1.8395 0.0468-0.0468 5.279 2.7244 11.627 6.1583 6.3481 3.4339 13.927 7.4838 16.842 8.9998 2.915 1.516 5.3001 2.8224 5.3001 2.9031 0 0.24073-2.0352 3.8425-3.5294 6.246-0.76618 1.2325-1.393 2.3075-1.393 2.3888 0 0.0813 0.8993 0.14794 1.9984 0.14794h1.9985l2.2285-3.4746c1.2257-1.9111 2.3134-3.474 2.4172-3.4733 0.10378 8.8e-4 1.2107 0.39885 2.4598 0.8847 3.25 1.2642 3.6829 0.96737 1.0589-0.72602-1.1944-0.7708-2.2856-1.5032-2.4248-1.6275-0.13918-0.1243 0.4864-1.6718 1.3903-3.439 2.3235-4.5424 2.6089-5.4259 2.0355-6.301-0.71764-1.0952-2.1578-1.8207-3.607-1.817-0.71664 2e-3 -1.9066-0.1935-2.0817-0.0765-0.17498 0.11699-0.39668 1.1713-0.49246 2.3428-0.19979 2.444-1.0524 6.0006-1.582 6.2038-0.48584 0.18642-23.047-12.259-29.177-15.887-2.587-1.5309-3.088-1.9333-2.7064-2.174 0.39757-0.25078 0.26496-0.44794-0.87913-1.307-5.1393-3.8589-14.581-11.542-20.763-18.652-6.0079-6.9098-12.932-15.994-22.283-29.235-12.166-17.227-17.656-25.759-19.512-30.326l-0.63969-1.5739-1.3689 2.3013c-4.447 7.4759-11.41 14.085-18.664 17.714-9.2891 4.6475-18.657 6.5886-26.519 5.495-11.314-1.5736-26.257-9.7748-41.746-22.911-1.4662-1.2435-2.7228-2.2609-2.7924-2.2609-0.0696 0-0.21305 1.2053-0.31867 2.6784-0.82956 11.569-5.5188 23.103-15.957 46.056-8.4628 18.608-20.273 30.344-24.811 34.829-2.4955 2.466-5.8974 5.6426-30.575 15.903-0.0549 1.0446-2.8838 7.1279 3.2239 5.273 0.80697-0.24507 3.9504-1.0585 5.8594-2.0351 6.4979-3.3243 17.889-9.0101 18.163-9.0697 4.1836-1.8993 7.5417-4.7411 7.7015-4.7411 0.15975 0 1.0816 0.47129 2.0486 1.0473 1.451 0.86435 1.7581 1.1824 1.7581 1.8208 0 0.42545-0.32574 3.7475-0.72388 7.3823-0.39813 3.6348-0.7237 6.8222-0.72348 7.083 2.7e-4 0.43045 1.0219 0.4768 11.075 0.50252 10.649 0.0273 11.562 0.0746 23.725 1.2306 6.9576 0.66125 12.739 1.2023 12.848 1.2023 0.60298 0-1.4122-27.782-3.2178-44.361-1.677-15.398-5.8691-46.977-6.9523-52.371-0.13716-0.68301-0.0402-0.76986 1.1694-1.0466 1.2291-0.28126 1.3282-0.26011 1.454 0.31048 0.0744 0.33677 0.72723 5.3031 1.451 11.036 0.72378 5.7332 1.5054 11.857 1.737 13.609 2.0869 15.789 6.4064 57.191 7.2705 69.687 0.10651 1.5401 0.28497 2.948 0.3966 3.1286 0.11165 0.18064 1.4939 0.45206 3.0716 0.60315 1.5777 0.1511 13.162 1.2542 25.743 2.4514l22.875 2.1767 5.3567-0.30189c7.135-0.40211 16.94-1.1148 19.952-1.4504 2.4037-0.26776 2.4453-0.26138 3.3753 0.51727 0.51792 0.4336 3.528 3.0686 6.6892 5.8556 3.1612 2.787 6.1702 5.4171 6.6867 5.8448 0.51649 0.42766 0.93909 0.88816 0.93909 1.0233 0 0.13516-0.71664 0.95349-1.5926 1.8185-0.87589 0.86502-1.5925 1.6511-1.5925 1.7469 0 0.17378 2.8509 1.1486 3.3591 1.1486 0.14745 0 0.85867-0.59074 1.5807-1.3128zm-3.4418 0.0117c-0.0753-0.0752 0.86399-1.1842 2.0871-2.4644 2.2522-2.3573 5.6247-7.162 7.1636-10.206 0.46299-0.91571 0.89927-1.6649 0.96955-1.6649 0.0703 0 0.62215 0.33553 1.2264 0.7456 0.78028 0.52952 1.3294 0.69945 1.895 0.58635 0.43795-0.0876 0.7958-0.0648 0.79519 0.0507-5e-3 0.8965-4.4622 5.9988-9.1232 10.443-2.8707 2.737-3.2146 2.9789-4.0085 2.8201-0.4776-0.0956-0.92991-0.23521-1.0051-0.31041zm11.471-14.628c-0.72948-0.90089-0.68768-2.0235 0.0753-2.0235 1.3089 0 3.1707 1.5052 3.1707 2.5633 0 0.6786-2.611 0.24439-3.2461-0.5398zm-93.598-10.34c-6.7688-12.83-7.4424-26.323-9.3672-39.959-2.1792-15.106-3.4974-30.588-6.5599-44.098-0.46718-2.0608-0.81578-3.7807-0.77471-3.8218 0.0411-0.04117 0.96437 1.2618 2.0518 2.8955 6.0666 9.1146 14.001 20.106 21.714 28.874 11.355 12.907 34.57 36.999 39.758 41.261l1.9386 1.5926c-12.187-0.87417-8.9567 11.318-7.4883 18.999-12.501-3.9528-30.106-5.9688-41.273-5.7436zm46.616 3.9398c-1.187-6.4592-0.20138-12.261 2.2282-13.115 1.7057-0.59985 2.7888 0.11778 6.8489 4.5377 2.0831 2.2677 4.3205 5.2939 6.1627 7.0247 1.8422 1.7308 3.2946 3.2018 3.2276 3.2688-0.2626 0.2626-5.9558 0.12389-11.764 0.51012l-6.2186 0.41355zm19.99-1.0522c-3.936-4.1523-9.1558-9.9994-9.0347-10.121 0.0579-0.058 3.934 0.29151 8.6135 0.7765 4.6795 0.48497 11.083 1.0299 14.231 1.2109 11.636 0.66925 17.757-0.65132 31.635-6.8252 4.8373-2.152 7.9199-3.4974 9.1792-4.994 0.40692-0.48358 0.73984-0.82616 0.73984-0.76128 0 0.15498 0.74192 9.0883 0.9412 9.929 0.13864 0.58466-0.19929 0.81959-3.3981 2.3628-5.4024 2.6063-10.019 4.6591-20.366 6.7218-8.9325 1.7808-24.361 4.1473-29.186 4.4768-0.51095 0.035-1.3394-0.6509-3.3547-2.7768zm89.163 2.2457c-0.0979-0.15831 0.13367-0.71208 0.51463-1.2306 1.8505-2.5192 4.1866-7.8592 5.4481-12.454 0.5467-1.9911 0.78914-2.4959 1.1303-2.3532 1.8534 0.77533 2.0487 0.80829 2.8955 0.48865 0.74865-0.28257 0.86828-0.26135 0.86584 0.15369-8e-3 1.1546-2.4406 5.576-6.4414 11.702-2.3258 3.5612-2.6865 3.9814-3.4177 3.9814-0.44959 0-0.89749-0.12952-0.99534-0.28786zm-215.57-5.9184c0-0.0691 0.58453-3.1591 1.2989-6.8665 0.71442-3.7074 2.6265-7.1657 2.5093-7.2711-0.11716-0.10542-1.06-0.55629-2.0952-1.0019-1.0352-0.44561-1.9879-0.8998-2.1172-1.0093-0.12928-0.10947 0.6845-2.8806 3.0551-6.7645 10.298-16.872 17.683-29.347 22.985-39.869 4.7765-9.4785 6.3863-14.604 6.7847-17.607 1.9553 8.3629 2.5248 15.788 3.9634 27.737 2.1228 17.237 3.69 32.795-4.293 48.997l-1.1031 2.3588-13.191 0.61963c-7.7899 0.36591-14.829 0.32642-15.625 0.46803-1.8694 0.33248-2.1717 0.36158-2.1717 0.20914zm117.55-12.484c-2.9664-1.3177-2.8107-0.54008-7.9447-5.3962-6.7686-6.4024-17.153-16.967-21.029-21.394-6.38-7.2867-17.081-20.864-28.154-35.469-2.7634-3.6449-4.9054-6.5755-4.7601-6.5123 0.14524 0.06313 1.3066 0.65104 2.5806 1.3064 5.6096 2.8858 9.3897 4.4422 16.299 5.1156 2.4289 0.23671 7.1525 0.63544 10.497 0.88606 6.183 0.46334 8.2779-0.70785 9.6678 0.01085 2.1444 1.1089 2.8319 5.0971-1.3303 9.857-0.97482 1.1148-1.6471 2.0548-1.5048 2.1169 0.8337 0.36344 5.2783-1.9826 7.5354-6.1427 1.2953-2.3874 1.2839-3.9668 2.9639-7.2411 2.6341-5.1339 3.9772-5.947 10.585-9.7672 4.6998-2.6064 7.7402-6.1532 9.9758-10.688 5.1966 11.123 11.943 20.013 17.792 27.796 15.353 20.541 23.803 29.788 40.977 46.314-4.9368 5.7803-7.6143 5.8064-12.461 8.1406-16.769 7.4229-34 6.5024-51.69 1.0658zm105.7-0.21628c0.89471-0.23397 2.5293 0.32268 3.0248 1.0301 0.59179 0.84491 0.56059 1.0196-0.20863 1.1677-2.4431 0.33274-5.7308-1.6669-2.8161-2.1978z" stroke-width=".28955"/><path d="m325.63 441.27c-7.9108-1.3479-17.379-3.5806-22.628-5.3362-8.1274-2.7179-16.398-6.3545-18.597-8.177l-1.6878-1.399 7.595-14.874c7.6005-14.885 13.739-26.865 21.892-42.725 2.3905-4.65 7.8878-15.392 12.216-23.872 4.3284-8.4794 10.268-20.103 13.198-25.83l5.3284-10.413-4.9265-9.8436-4.9265-9.8436c-3.6332-10.213-6.5849-17.932-6.5611-29.212 7e-3 -3.4756 5.5298-11.297 13.41-16.459 3.6018-1.8325 7.5443-3.319 11.334-4.1631-0.43325 1.2168-1.111 7.2834-1.111 7.2834-5.8471 1.6073-11.673 3.6988-14.113 7.0653-1.9119 2.6378-4.3446 5.2856-4.4696 8.2889-0.46256 11.115 5.4098 25.166 5.6037 25.189 0.087 0.0102 1.6072 2.9254 3.3768 6.501l3.2174 6.501 0.24866-7.1227 0.24866-7.1226h3.4813l0.24866 7.7086 0.24868 7.7086 1.2705-2.4866c0.69878-1.3676 2.3249-4.5595 3.6136-7.0929l2.3431-4.6063 1.9813 1.0108c1.0897 0.55594 1.9813 1.1167 1.9813 1.2462s-2.2852 4.8122-5.0782 10.406l-5.0782 10.171 1.7867 3.3846c0.98268 1.8615 6.3188 12.225 11.858 23.029 5.5392 10.804 13.871 27.03 18.516 36.056 4.6446 9.0265 10.799 21 13.676 26.607 2.877 5.6074 7.2192 14.034 9.6493 18.726l4.4184 8.5311-1.9041 1.508c-2.049 1.6229-6.2415 3.4117-14.523 6.1966-7.3712 2.4788-18.286 5.3782-20.639 5.4822-1.7808 0.0787-2.004-0.0425-2.1296-1.1554-0.75198-6.6659-3.7376-17.158-6.488-22.801-2.1505-4.4118-5.9887-8.8198-8.7866-10.091-2.6404-1.1995-6.7366-1.1901-9.1105 0.021-6.9847 3.5633-12.205 15.364-15.257 34.487-0.27518 1.7245-0.41769 1.8599-1.8914 1.7972-0.87658-0.0373-2.1533-0.16306-2.8371-0.27958zm-0.99465-8.6819c0-1.9036-4.8488-7.2914-7.5842-8.4273-0.75221-0.31234-1.3667-0.70859-1.3655-0.88055 8.7e-4 -0.17196 0.92782-1.5435 2.0592-3.048 6.6528-8.8463 15.576-17.896 20.595-20.888l2.9204-1.7406h13.961l3.1488 1.7072c7.0923 3.8452 12.477 12.611 16.021 26.078 0.78223 2.973 1.5387 5.522 1.681 5.6643 0.58653 0.58651 23.163-6.6249 23.163-7.3988 0-0.46869-17.3-34.231-17.872-34.877-0.18094-0.20473-2.3323 0.20958-4.7808 0.92068-19.569 5.6834-40.568 5.9381-59.406 0.72053-2.8721-0.79544-5.5777-1.5844-6.0125-1.7532-0.62844-0.24401-2.6528 3.3301-9.8687 17.424-4.9929 9.7519-8.8893 17.905-8.6586 18.119 0.60258 0.55793 11.687 4.6791 16.067 5.9737 4.6926 1.387 13.343 3.398 14.814 3.4437 0.8251 0.0256 1.119-0.24681 1.119-1.0373zm37.057-51.148c5.8287-0.99648 10.6-2.0991 12.951-2.9931 1.1878-0.45161 1.2133-0.54146 0.52377-1.8486-0.39861-0.75563-2.1848-2.8108-3.9692-4.567l-3.2445-3.1931-10.563 9.7819-5.4269-5.41-5.4269-5.41-1.862 1.7229c-1.0241 0.94758-3.546 3.3396-5.6042 5.3156l-3.7422 3.5927-10.194-10.151-4.7251 4.7054c-2.5988 2.588-4.7251 4.8426-4.7251 5.0102 0 0.8161 12.632 3.547 20.39 4.4081 6.1215 0.67948 18.793 0.20248 25.618-0.96434zm5.7134-19.567c0-0.78258-20.529-40.936-21.354-41.768-0.22576-0.22754-3.4867 5.5912-7.2466 12.93-3.7599 7.3393-8.7098 16.952-11 21.362-2.2901 4.4097-4.1638 8.1857-4.1638 8.3911s0.34904 0.0838 0.77562-0.2702c0.66677-0.55337 1.4532 0.0313 5.6038 4.1664 2.6555 2.6455 5.0443 4.8101 5.3085 4.8101 0.26417 0 2.8338-2.3432 5.7104-5.207l5.23-5.207 11.438 10.881 4.8489-4.8243c2.6669-2.6534 4.8489-5.0222 4.8489-5.2641z" stroke-width=".49733"/><path d="m378.06 360.45c1.6976-3.6424 5.8659-11.168 7.6257-14.934 5.5842-11.949 14.037-30.061 15.822-33.898 0.94724-2.0372 2.9072-6.2455 4.3555-9.3518 2.6022-5.5811 2.6295-5.6565 2.3142-6.398 2.6611-5.1509-14.044-10.968-10.484-16.433 8.7851 0.9148 12.588 4.9109 13.245 6.1977 0.65604 1.4508 1.2641 2.6378 1.3512 2.6378 0.087 0 0.69475-1.187 1.3504-2.6378 2.6374-5.8364 3.1182-6.6962 4.031-7.2093 2.2231-1.2495 4.833 0.0554 5.115 2.5575 0.0961 0.85247-0.0747 1.367-1.3529 4.0765-5.2247 11.074-5.3708 11.43-5.0282 12.235 0.17413 0.409 1.1255 2.461 2.1142 4.56s3.1352 6.6955 4.77 10.214 4.462 9.5802 6.2828 13.469c1.8208 3.8893 3.9213 8.3848 4.6679 9.9899 0.74658 1.6051 1.8319 3.9286 2.4118 5.1633 0.57993 1.2347 1.2329 2.649 1.451 3.1429 0.21811 0.49387 1.9615 4.2317 3.8741 8.3062 3.9474 8.4091 6.731 14.375 9.3741 20.092 0.71358 1.5434 2.5708 5.5122 4.1272 8.8195s2.8911 6.3967 2.966 6.8654c0.18371 1.1488-0.42879 3.4517-1.3024 4.8966-2.5992 4.2994-8.9655 7.8417-18.25 10.154-4.1887 1.0434-10.347 2.0767-12.378 2.0771-1.0813 1.8e-4 -2.1842-0.50834-2.6471-1.2205-0.17889-0.27524-2.4067-6.6122-4.9508-14.082-6.3849-18.748-6.4998-19.078-6.6262-19.079-0.0618-1.6e-4 -0.48339 1.0851-0.93701 2.4117s-2.408 7.0589-4.3431 12.739c-4.3222 12.686-5.4218 15.889-5.8801 17.126-0.27539 0.74359-0.83839 1.4556-1.4875 1.8173-2.172-2.9996-2.6883-5.2047-3.7198-7.657l-11.678-24.042c-3.3379-4.7116-5.6005-8.9943-6.1838-12.608zm20.439 29.165c1.5572-4.5607 3.1251-9.1444 3.4842-10.186 0.35911-1.0418 0.65293-1.9617 0.65293-2.0443 0-0.0826-0.81985-0.21847-1.8219-0.30204-2.0682-0.17248-7.6401-1.0862-9.8411-1.6138-2.7975-0.67057-5.0008-1.4973-6.7294-2.4113l11.678 24.042c1.9007-2.1492 1.8472-5.2659 2.5772-7.4844zm35.049 7.5478c8.9558-1.7796 15.722-4.7509 17.725-7.7844 0.35421-0.53622 0.73017 0.38482-3.7922-9.2902-1.414-3.025-2.8496-6.1238-3.1903-6.8862l-0.61941-1.3861-1.38 0.75181c-2.4903 1.3567-7.6521 2.9279-12.222 3.7203l-1.638 0.28401 1.0768 1.1113c1.8512 1.9106 4.8318 4.2864 6.3928 5.0957l1.4983 0.77685-1.8387 1.9142c-3.0887 3.2155-5.355 7.0662-6.2132 10.557-0.1366 0.55561-0.29966 1.187-0.36236 1.4031-0.16335 0.56285 0.61436 0.51727 4.5631-0.26739zm-28.698-26.11c0.38779-1.1421 0.70493-2.1893 0.70476-2.327-1.9e-4 -0.15685-1.0703-0.35307-2.8626-0.52486-7.2967-0.69941-12.998-2.0481-17.722-4.1925-0.24544-0.11139-1.5808 2.2209-1.9448 3.3968-0.43214 1.3959 7.0727 3.9999 14.888 5.1658 1.9188 0.28625 4.106 0.52897 4.8604 0.53938l1.3718 0.0189 0.70508-2.0765zm28.131 0.39183c1.2754-0.3185 2.9755-0.79114 3.778-1.0503 1.8136-0.58567 4.9388-2.1294 4.9388-2.4395 0-0.32818-1.6081-3.8051-1.7599-3.8051-0.0692 0-1.0402 0.34784-2.1575 0.77296-3.8344 1.4589-7.2931 2.2623-12.695 2.9488-1.6669 0.21185-3.0711 0.41921-3.1206 0.46081-0.0873 0.0734 2.1099 3.0818 2.9461 4.0338l0.41408 0.47148 2.6686-0.40693c1.4677-0.22382 3.712-0.66754 4.9874-0.98604zm-24.932-9.8137c1.2951-3.694 1.5071-4.1392 2.1887-4.5966 1.7584-1.1799 3.8774-0.76944 4.9358 0.95614 0.3274 0.53379 1.5045 2.4373 2.6157 4.23l2.0204 3.2594 1.0195 9e-3c2.6482 0.0218 10.361-1.3123 13.719-2.3729 2.3414-0.73965 4.2954-1.595 4.1642-1.8228-0.055-0.0954-0.4028-0.83011-0.773-1.6327-0.93931-2.0364-8.0057-17.212-9.0942-19.531-0.49271-1.0495-1.1751-2.5143-1.5164-3.2551-0.34132-0.74082-1.0978-2.3572-1.6811-3.5919-0.86808-1.8376-6.0112-12.87-9.2094-19.755-0.40147-0.8643-1.2854-2.7485-1.9644-4.187-0.67891-1.4386-1.4171-3.0297-1.6404-3.5357s-0.47511-0.92014-0.55962-0.92014c-0.0845 0-0.36077 0.48148-0.61392 1.07-0.25316 0.58848-1.3129 2.8867-2.3549 5.1072-1.042 2.2205-3.2858 7.0173-4.986 10.66-1.7002 3.6424-3.4938 7.4812-3.9857 8.5307-0.49192 1.0495-1.1707 2.5143-1.5084 3.2551-0.33772 0.74082-1.3256 2.8623-2.1952 4.7143-0.86965 1.852-3.0174 6.4485-4.7728 10.214-1.7554 3.7658-3.7859 8.0978-4.5123 9.6266-0.7264 1.5288-1.3207 2.9067-1.3207 3.062 0 0.49628 3.1715 1.7416 6.8186 2.6774 3.114 0.799 8.6634 1.5911 13.186 1.8821 0.56462 0.0363 0.63981-0.11449 2.0204-4.0524z" stroke-width=".22449"/><path d="m676.39 248.14c-1.5311-1.3997-3.0314-2.8825-4.2825-4.3214-3.2203-3.7038-6.9318-8.5731-11.944-15.671-6.5214-9.234-9.4639-13.807-10.459-16.255l-0.34288-0.84366-0.73375 1.2336c-2.3837 4.0072-6.1162 7.5498-10.004 9.495-4.9791 2.4912-10 3.5316-14.215 2.9454-6.0645-0.8435-14.074-5.2395-22.377-12.281-0.78592-0.66653-1.4595-1.2119-1.4968-1.2119-0.0373 0-0.1142 0.64605-0.17082 1.4357-0.44466 6.2012-2.9582 12.384-8.5535 24.687-4.5362 9.9745-10.867 16.265-13.299 18.669-1.3376 1.3218-3.1611 3.0245-16.389 8.5245-0.0294 0.55992-1.5458 3.8207 1.7281 2.8264 0.43254-0.13137 2.1175-0.56736 3.1408-1.0909 3.483-1.7819 9.5888-4.8296 9.7357-4.8615 2.2425-1.0181 4.0425-2.5413 4.1282-2.5413 0.0856 0 0.57977 0.25262 1.0981 0.56137 0.77775 0.46331 0.94236 0.63378 0.94236 0.976 0 0.22803-0.17461 2.0087-0.38802 3.957-0.2134 1.9483-0.38791 3.6568-0.3878 3.7966 1.5e-4 0.23073 0.54777 0.25558 5.9367 0.26936 5.708 0.0147 6.1973 0.04 12.717 0.65963 3.7294 0.35445 6.8284 0.64444 6.8866 0.64444 0.32321 0-0.75697-14.891-1.7248-23.778-0.89888-8.2538-3.146-25.181-3.7266-28.072-0.0735-0.3661-0.0215-0.41266 0.62685-0.56102 0.65883-0.15076 0.71195-0.13942 0.7794 0.16642 0.0399 0.18053 0.38981 2.8426 0.77777 5.9157 0.38796 3.0731 0.80693 6.3557 0.93105 7.2947 1.1186 8.4631 3.434 30.656 3.8971 37.354 0.0571 0.82554 0.15275 1.5802 0.21259 1.677 0.0599 0.0968 0.80074 0.2423 1.6464 0.3233 0.82872 0.0794 7.234 0.71852 13.82 1.3452 0 0 0.92311-1.4437 1.9227-3.4552l7.34-14.771c0.20037-0.40322 1.0656-1.9801 1.136-2.5279l38.919-1.694c0.52452-0.0229 1.8662-0.60912 2.1718-0.82016zm-61.302 18.914c-3.6282-6.8773-3.9892-14.11-5.021-21.419-1.1681-8.097-1.6999-16.302-3.3414-23.544-0.25041-1.1046-0.43728-2.0265-0.41526-2.0486 0.022-0.022 0.51692 0.67637 1.0998 1.5521 3.2518 4.8856 7.5047 10.777 11.639 15.477 3.8048 4.3247 10.254 11.161 15.113 16.11l-7.34 14.771c-4.2103-0.59236-8.5476-0.96289-11.735-0.89859zm-31.881-0.32732c0-0.0371 0.31332-1.6933 0.69625-3.6806 0.38294-1.9873 1.4078-3.841 1.345-3.8975-0.0628-0.0565-0.5682-0.29818-1.1231-0.53704-0.55486-0.23884-1.0656-0.48231-1.1349-0.54101-0.0693-0.0587 0.36692-1.544 1.6376-3.6259 5.5201-9.0439 9.4784-15.731 12.321-21.371 2.5603-5.0807 3.4232-7.8279 3.6368-9.4377 1.0481 4.4827 1.3534 8.4628 2.1244 14.867 1.1379 9.2395 1.9779 17.579-2.3012 26.264l-0.59126 1.2644-7.0707 0.33213c-4.1755 0.19614-7.9486 0.17497-8.3755 0.25087-1.0021 0.17822-1.164 0.19382-1.164 0.11211zm52.092-16.073c-1.8313-1.8756-3.6856-3.9215-4.6114-4.9789-3.4198-3.9058-9.1559-11.184-15.091-19.012-1.4812-1.9538-2.6294-3.5246-2.5515-3.4908 0.0779 0.0338 0.70034 0.34897 1.3832 0.70028 3.0068 1.5468 5.033 2.3811 8.7364 2.742 1.3019 0.12688 3.8339 0.34061 5.6265 0.47495 3.3142 0.24836 4.4371-0.37943 5.1821 6e-3 1.1494 0.59439 1.518 2.7322-0.71309 5.2836-0.52252 0.59755-0.88289 1.1014-0.8066 1.1347 0.44688 0.19481 2.8292-1.0627 4.0391-3.2926 0.69432-1.2797 0.68817-2.1263 1.5887-3.8814 1.4119-2.7518 2.1318-3.1877 5.674-5.2354 2.5192-1.3971 4.1489-3.2982 5.3472-5.7288 2.7855 5.9622 6.4016 10.727 9.5368 14.899 6.0442 8.0863 10.208 13.186 15.579 18.685z" stroke-width=".15521"/></g><text x="485.82239" y="431.56564" font-family="Lato" font-size="115.48px" letter-spacing="0px" stroke-width="2.8871" word-spacing="0px" style="line-height:1.25" xml:space="preserve"><tspan x="485.82239" y="431.56564" font-family="Lato" font-weight="bold" stroke-width="2.8871">#dC3</tspan></text></svg>
