<svg width="800.71" height="456.56" version="1.1" viewBox="0 0 800.71 456.56" xml:space="preserve" xmlns="http://www.w3.org/2000/svg"><title>dc3 CCCamping Logo</title><g stroke="#000" stroke-width=".625"><path d="m358.77 176.38c-2.852-0.0642-6.6836 1.4316-6.6836 1.4316 1.9723 5.5924 0.99623 9.9319-4.9421 15.059-16.271 14.049-34.979 30.339-44.589 49.418-3.5213 6.9911-1.8392 19.255-3.5931 27.985-11.424 28.218-30.697 27.378-48.552 20.105-10.007-4.0761-20.802-15.658-27.723-23.669l8.6368 24.37c18.005 6.0052 26.071 8.3684 35.392 8.5836 16.543 0.38197 31.484-10.538 36.418-27.018 2.325-7.7664 0.33922-24.27 5.5052-31.475 13.658-21.08 30.698-33.284 48.234-49.431l1.957 4.1328c2.8288 21.758-6.5698 36.456-6.1335 57.994-0.2175 12.185 4.7111 18.37 15.809 24.243 0.54059 0.20291 8.7733 2.7737 11.759 3.2595 5.5334 0.90038 25.211 3.4005 19.141 12.981-1.9758 3.1182 15.397-21.702 12.611-19.094-8.6564 8.1016-34.546-0.78234-38.35-3.3267-7.8325-6.525-12.484-10.666-13.789-20.022 3.0462-25.02 12.66-51.029 0.0417-75.397-0.35343-0.0817-0.74101-0.12363-1.1484-0.13281z"/><path d="m374.06 164.11-7.834 7.1797c11.966 13.055 17.406 30.678 12.402 48.518-0.32 8.4875-11.248 14.81-13.488 16.314-0.5025 1.8288-0.78295 4.6126-1.368 7.5501 1.9338-0.34 3.746-1.7097 7.0235-3.411 11.314-7.8325 16.098-20.015 17.404-32.854 0.87125-4.7862-1.9562-9.1384 0-13.055 9.1388 2.6112 20.887 3.9171 29.59-0.65039 4.4083-1.9508 14.463-2.8531 22.913-4.1351 10.848-0.47383 23.185 0.37525 33.782 2.5826 18.086 3.7672 26.082 9.7034 40.135 15.779 6.1506 2.9785 3.3166 9.709 8.6892 21.779 10.293 23.124 5.5086 14.178 15.253 28.386 6.6772 9.7359 19.234 9.7275 23.366 9.5236 4.5863-0.22637 10.637-5.9827 0.79463-3.0303-4.897 1.4689-16.846-2.774-22.704-10.672-4.6775-7.6492-7.64-7.9657-13.771-27.175-5.182-16.498 2.7762-16.223 4.0337-16.026 15.815 2.4827 20.176-0.86776 36.155-4.4462 3.9282-0.87975 47.144-14.433 89.536 0.0523 28.712 9.8106 50.065 27.099 39.815 37.065-3.9202 3.8118 8.3251-1.6812 8.205-2.803-2.0434-19.087-19.415-27.547-47.205-37.013-40.29-13.723-82.516-2.4212-87.433-1.9931-17.272 1.5038-28.496 8.6665-47.018 0.45647-23.765-10.534-48.5-16.239-50.493-16.625-2.5282-0.48922-20.876-2.1113-20.989-2.1318-5.6176-1.0209-34.942 2.5923-38.172 3.5418-4.2246 1.2422-10.779 3.0458-17.301 1.6609l-2e-3 -2e-3c-11.581-2.4612-16.752-15.23-21.32-24.367z"/><path d="m378.4 132.99c-0.13332-4e-3 -0.2761 8e-5 -0.42579 0.0137-8.7012 15.23-19.581 37.858-41.121 36.988v2.1738c5.6575 5.0062 15.232 1.7416 21.324-1.0859 13.924-6.745 20.451-20.888 23.061-34.377-0.61055-1.6324-0.83819-3.6466-2.8379-3.7129z"/><path d="m375.68 122.39c-0.51565-0.0684-1.0055 0.39336-1.6211 0.81836-7.7012 13.56-20.236 26.98-35.465 31.332-5.8762 3.6988-15.013 0.65195-20.018 5.2207 7.3975 9.1375 19.145 3.0466 28.285 1.0879 14.576-7.8325 26.109-21.974 29.807-37.641-0.36094-0.54562-0.67889-0.77731-0.98828-0.81836z"/><path d="m189.77 56.412c-1.9588 8.7025-2.6748 24.584 1.5215 27.197 17.18 10.7 41.897 6.3791 62.664 6.3066 11.838-0.04 44.597-4.7847 60.48 10.445 1.305 1.3062 3.4808 2.8284 2.1758 4.5684-7.615-4.1338-19.373-7.8383-25.023-7.832-35.044 0.0375-101.33 0.67531-104.43-1.5234-14.08-9.9762-21.54-25.455-32.418-38.072l-8.4863-0.4375 16.754 21.322c7.8325 7.615 13.056 20.016 23.064 23.062 36.986 2.3925 75.059 1.5226 112.7 2.6113 6.745 0.86875 15.231 2.6105 17.842 9.3555-4.5688-1.9575-9.7919-2.6117-14.578-3.6992 0 0-105.13-3.5024-115.96-0.43359-3.8925 1.1012-5.5102 1.4223-7.834 3.4785-14.415 12.75-25.673 29.374-36.117 43.951h7.834c16.752-17.406 26.245-44.065 52.756-42.611 17.924 0.98375 62.121 0.83649 90.404 1.2715 8.92-0.2175 18.059 0 23.934 5.875-20.669-1.5238-46.401-0.80508-68.424-0.36133-12.052 0.24375-53.745-3.4709-58.424 7.5391-3.6988 8.7025-2.0408 24.958-1.5195 27.85 2.2275 0.98875 5.2871 0.0918 5.2871 0.0918 4.1412-3.7112-0.30367-13.576 1.4551-20.541 0.69625-2.75 1.1121-6.1459 4.7871-6.7422 33.506-5.4388 69.843-0.65594 104.44-2.1797 0.65375 0.21875 1.959 0.87078 1.5215 2.1758-1.0862 1.305-0.21657 3.6978 1.5234 4.1328 20.451 8.2675 40.903-2.3933 57.439-13.488l0.43555 0.4336c-10.444 13.925-26.977 20.235-44.385 20.887-2.8275 0.43625-6.7465 0.87047-7.834 3.6992 5.875 6.09 16.318 3.699 24.15 1.959 15.012-3.48 32.2-15.665 35.465-31.33-6.745-0.43375-0.21844-5.8742-1.5234-9.3555-3.915-5.6575-5.4394 3.9166-8.4844 4.1328-3.2638-8.4838-3.0474-19.363-12.402-24.367-1.5238 0-1.5226 1.5238-2.1738 2.6113 3.9162 8.05 7.1781 16.534 8.4844 26.107-0.87 1.5225-3.0471 3.9163-4.7871 2.6113-2.3925-12.184-9.356-22.627-15.666-33.07-3.045-2.3938-6.7426-6.5273-10.441-4.1348 8.2675 13.272 18.059 25.892 21.322 41.34l-1.5234 1.5215c-1.0875 1.5238-2.3931-0.21789-3.0469-1.0879-3.6988-14.36-13.489-26.544-23.062-38.51-2.61-1.0875-5.6556-5.2215-8.2656-1.7402 9.355 11.53 19.145 22.845 23.932 36.117v4.7871c-4.1325-10.444-10.661-20.234-19.363-28.719-32.201-19.799-76.368-5.658-114.22-12.186-10.444-4.3512-3.4798-16.97-6.3086-25.02h-5.6582z"/><path d="m162.58 44.011c-23.884 5e-3 -64.225 2.7093-71.445 3.0918-9.7162 0.51625-11.583 46.697-10.865 58.201 0.60875 9.7875 0.84016 63.71 12.254 64.023 39.381 1.09 80.499-0.21516 121.19 0.87109 8.05 0 20.211 1.318 21.975-5.2207 2.44-9.055 4.1888-16.836 4.7051-22.686 0.49625-5.625-0.14344-8.567-3.3984-8.6445-6.18-0.145-4.3662 5.2872-6.0938 13.055-0.98625 4.435-2.8958 11.312-7.582 13.184-6.47 2.5812-60.082 1.6113-89.453 1.6113-16.328-0.59875-34.294 4.1002-39.164-9.5723-5.6563-15.882-6.151-31.53-5.8848-45.844 0.32-17.2-1.6834-49.695 14.807-51.193 38.078-3.4612 112.48-5.2778 123.14 2.1797 7.3587 5.15 2.4602 19.001 7.709 20.385 1.68 0.025 4.2512 0.71906 6.4688-0.46094 0.805-18.361-5.8483-28.359-9.0508-28.889-21.351-3.5288-46.08-4.098-69.307-4.0918z"/><path d="m382.61 156.89c0.40107-2.8244 2.5009-6.3613 2.5009-6.3613 15.227 3.7634 33.267-9.0375 41.411-16.907 6.7838-6.7515 14.569-16.205 21.007-25.143 10.361-13.579 28.103-38.537 48.214-40.216 15.123-1.1444 24.344 0.38564 34.038 1.5084-1.1462 1.1876-1.5307 4.9319-1.7538 10.241-3.3646-3.1869-12.572-9.7236-32.125-7.8215-12.463 1.2123-24.669 14.391-33.071 23.162-14.553 16.497-23.004 29.232-32.8 41.631-5.7115 7.1495-14.277 10.752-15.92 11.454-5.7775 2.4662-11.161 5.8429-16.036 9.0831l3.759 2.6039c18.94 5.2804 39.884-5.0916 62.607-0.36771 14.762 2.7085 34.38 9.2408 54.939 8.9889 17.159-0.21019 40.866-0.35176 49.928-20.145 3.7579-6.3023-0.23429 15.488-1.2978 17.289-16.903 1.9712-33.806 8.2946-48.376 8.7706-22.257 0.7264-39.041-6.6048-53.939-8.9173-11.43-0.48503-25.811-2.0872-39.572 0.28238-16.557 2.8508-31.561 0.98669-43.569-7.9796-0.023-0.36203-1e-3 -0.75126 0.056-1.1547z"/></g><path d="m718.11 325.18c0.53107-0.37198 1.289-0.5522 1.6844-0.4005 1.0853 0.41647 2.137-0.64258 1.6122-1.6234-0.34459-0.64386 0.10116-1.4024 2.2642-3.8526 3.0972-3.5084 3.4366-4.9726 1.5051-6.4919-1.9018-1.496-2.7975-1.216-3.8618 1.2074-0.5174 1.1781-1.5323 3.0073-2.2554 4.0648l-1.3146 1.9228-2.5669-2.0205c-3.4192-2.6914-5.7773-4.7293-5.4895-4.7442 0.1287-7e-3 3.8409-0.62013 8.2493-1.3632 11.862-1.9996 23.798-5.0932 27.254-7.0639l1.9165-1.0928-0.0196-2.7994c-0.0106-1.5397-0.18801-3.6702-0.39379-4.7344-0.20578-1.0643-0.22429-1.876-0.0412-1.8038 2.2031 0.86842 20.725 11.078 20.734 11.429 7e-3 0.26147-0.5958 1.4353-1.3399 2.6086-1.8082 2.8512-1.7433 3.3227 0.48717 3.5354 1.4995 0.143 1.9272 6e-3 2.3113-0.74179 0.2592-0.50449 0.95491-1.5656 1.5461-2.358 0.98653-1.3225 1.1859-1.402 2.4292-0.96855 0.74497 0.2597 1.7071 0.33318 2.138 0.16331 0.67074-0.2644 0.55899-0.49802-0.77653-1.6233l-1.56-1.3145 1.2218-2.4912c0.672-1.3702 1.2218-2.7911 1.2218-3.1577 0-1.8469-3.7275-3.3127-4.8483-1.9065-0.24712 0.31002-0.58808 1.5228-0.75773 2.6952-0.1696 1.1723-0.49017 2.2438-0.7124 2.3812-0.43629 0.26965-9.9307-4.3694-16.365-7.9963-4.2916-2.4189-6.4268-4.2137-14.093-11.846-7.5828-7.5491-13.18-14.603-24.157-30.441-6.1229-8.8347-9.0241-13.434-10.312-16.347-0.52089-1.1781-1.0244-2.142-1.1188-2.142-0.0945 0-0.94144 1.2683-1.8822 2.8184-3.6778 6.06-10.198 11.166-17.52 13.72-3.1968 1.1152-4.2493 1.2593-9.2444 1.2662-6.4128 8e-3 -8.1428-0.4201-14.574-3.6127-4.851-2.4083-10.05-5.8442-15.333-10.133-2.1877-1.776-4.2378-3.1292-4.5559-3.0072-0.34579 0.13269-0.70277 1.4615-0.88796 3.3054-0.4111 4.0932-2.1525 10.909-4.1639 16.297-5.4265 14.536-15.634 34.877-19.68 39.217-1.1866 1.273-4.14 2.6736-15.976 7.5766-10.366 4.2939-10.14 4.2797-10.787 0.67943-0.38106-2.119-0.92591-2.74-2.4037-2.74-1.3013 0-3.18 1.6301-3.18 2.7592 0 0.36949 0.62322 1.6545 1.3849 2.8556 1.0081 1.5897 1.2356 2.2761 0.83618 2.523-0.86335 0.53358-0.11481 1.8909 0.8704 1.5782 0.62647-0.19884 1.2792 0.28251 2.5568 1.8854 2.3336 2.9278 2.87 3.3062 4.2326 2.9864 1.9728-0.46309 2.0321-0.9144 0.41697-3.1736-0.8532-1.1934-1.6888-2.3975-1.857-2.6758-0.19012-0.31461 0.50076-0.80737 1.8272-1.3032 1.1731-0.43852 6.4868-2.7102 11.808-5.0483 8.4281-3.7029 9.816-4.1869 10.766-3.7541 0.99487 0.4533 1.0664 0.68337 0.81562 2.623-0.15121 1.1694-0.40746 3.5864-0.56945 5.3712-0.28695 3.1617-0.26683 3.2509 0.7826 3.4715 1.1027 0.23176 30.285 1.5606 30.516 1.3895 0.0703-0.052-1.1042-13.755-2.6101-30.45-1.5059-16.696-2.6734-30.674-2.5944-31.062 0.17702-0.87103 3.8772 12.822 5.7756 21.373 2.1254 9.5736 3.9593 21.088 4.9928 31.347 0.51278 5.09 1.0653 9.3887 1.2278 9.5526 0.16254 0.1639 7.6008 0.98034 16.53 1.8143 16.701 1.56 19.029 1.6035 31.784 0.59394l3.9826-0.31522 3.9873 3.4964c6.4427 5.6494 5.9252 4.9453 4.64 6.3134-1.0808 1.1505-1.0855 1.1881-0.22836 1.8149 1.1307 0.82683 2.5096 0.8134 3.7226-0.0362z" stroke-width=".45094"/><path d="m676.39 248.14c-1.5311-1.3997-3.0314-2.8825-4.2825-4.3214-3.2203-3.7038-6.9318-8.5731-11.944-15.671-6.5214-9.234-9.4639-13.807-10.459-16.255l-0.34288-0.84366-0.73375 1.2336c-2.3837 4.0072-6.1162 7.5498-10.004 9.495-4.9791 2.4912-10 3.5316-14.215 2.9454-6.0645-0.8435-14.074-5.2395-22.377-12.281-0.78592-0.66653-1.4595-1.2119-1.4968-1.2119s-0.1142 0.64605-0.17082 1.4357c-0.44466 6.2012-2.9582 12.384-8.5535 24.687-4.5362 9.9745-10.867 16.265-13.299 18.669-1.3376 1.3218-3.1611 3.0245-16.389 8.5245-0.0294 0.55992-1.5458 3.8207 1.7281 2.8264 0.43254-0.13137 2.1175-0.56736 3.1408-1.0909 3.483-1.7819 9.5888-4.8296 9.7357-4.8615 2.2425-1.0181 4.0425-2.5413 4.1282-2.5413 0.0856 0 0.57977 0.25262 1.0981 0.56137 0.77775 0.46331 0.94236 0.63378 0.94236 0.976 0 0.22803-0.17461 2.0087-0.38802 3.957-0.2134 1.9483-0.38791 3.6568-0.3878 3.7966 1.5e-4 0.23073 0.54777 0.25558 5.9367 0.26936 5.708 0.0147 6.1973 0.04 12.717 0.65963 3.7294 0.35445 6.8284 0.64444 6.8866 0.64444 0.32321 0-0.75697-14.891-1.7248-23.778-0.89888-8.2538-3.146-25.181-3.7266-28.072-0.0735-0.3661-0.0215-0.41266 0.62685-0.56102 0.65883-0.15076 0.71195-0.13942 0.7794 0.16642 0.0399 0.18053 0.38981 2.8426 0.77777 5.9157s0.80693 6.3557 0.93105 7.2947c1.1186 8.4631 3.434 30.656 3.8971 37.354 0.0571 0.82554 0.15275 1.5802 0.21259 1.677 0.0599 0.0968 0.80074 0.2423 1.6464 0.3233 0.82872 0.0794 7.234 0.71852 13.82 1.3452 0 0 0.92311-1.4437 1.9227-3.4552l7.34-14.771c0.20037-0.40322 1.0656-1.9801 1.136-2.5279l38.919-1.694c0.52452-0.0229 1.8662-0.60912 2.1718-0.82016zm-61.302 18.914c-3.6282-6.8773-3.9892-14.11-5.021-21.419-1.1681-8.097-1.6999-16.302-3.3414-23.544-0.25041-1.1046-0.43728-2.0265-0.41526-2.0486 0.022-0.022 0.51692 0.67637 1.0998 1.5521 3.2518 4.8856 7.5047 10.777 11.639 15.477 3.8048 4.3247 10.254 11.161 15.113 16.11l-7.34 14.771c-4.2103-0.59236-8.5476-0.96289-11.735-0.89859zm-31.881-0.32732c0-0.0371 0.31332-1.6933 0.69625-3.6806 0.38294-1.9873 1.4078-3.841 1.345-3.8975s-0.5682-0.29818-1.1231-0.53704c-0.55486-0.23884-1.0656-0.48231-1.1349-0.54101s0.36692-1.544 1.6376-3.6259c5.5201-9.0439 9.4784-15.731 12.321-21.371 2.5603-5.0807 3.4232-7.8279 3.6368-9.4377 1.0481 4.4827 1.3534 8.4628 2.1244 14.867 1.1379 9.2395 1.9779 17.579-2.3012 26.264l-0.59126 1.2644-7.0707 0.33213c-4.1755 0.19614-7.9486 0.17497-8.3755 0.25087-1.0021 0.17822-1.164 0.19382-1.164 0.11211zm52.092-16.073c-1.8313-1.8756-3.6856-3.9215-4.6114-4.9789-3.4198-3.9058-9.1559-11.184-15.091-19.012-1.4812-1.9538-2.6294-3.5246-2.5515-3.4908s0.70034 0.34897 1.3832 0.70028c3.0068 1.5468 5.033 2.3811 8.7364 2.742 1.3019 0.12688 3.8339 0.34061 5.6265 0.47495 3.3142 0.24836 4.4371-0.37943 5.1821 6e-3 1.1494 0.59439 1.518 2.7322-0.71309 5.2836-0.52252 0.59755-0.88289 1.1014-0.8066 1.1347 0.44688 0.19481 2.8292-1.0627 4.0391-3.2926 0.69432-1.2797 0.68817-2.1263 1.5887-3.8814 1.4119-2.7518 2.1318-3.1877 5.674-5.2354 2.5192-1.3971 4.1489-3.2982 5.3472-5.7288 2.7855 5.9622 6.4016 10.727 9.5368 14.899 6.0442 8.0863 10.208 13.186 15.579 18.685z" stroke-width=".15521"/><text x="485.82239" y="431.56564" font-family="Lato" font-size="115.48px" letter-spacing="0px" stroke-width="2.8871" word-spacing="0px" style="line-height:1.25" xml:space="preserve"><tspan x="485.82239" y="431.56564" font-family="Lato" font-weight="bold" stroke-width="2.8871">#dC3</tspan></text><path d="m474.49 329.02c-0.84345-7.0159-9.1258-6.002-14.369-7.3555-19.729-2.7255-39.194-7.066-58.916-9.813-4.7287-2.2315-8.599 3.0933-12.56 1.398 4.8795-3.9746 6.2409-10.019 7.8736-15.701 3.4106-4.8438 7.8235-9.4072 9.6733-15.339 4.496-7.0548 11.339-12.353 15.833-19.398 5.6698-5.0332 11.951-9.3429 17.476-14.545 5.7799-4.4245 13.094-5.9026 19.725-8.3871 13.863 3.3858 26.627 10.498 37.682 19.437 6.7511 8.0146 14.487 15.516 19.274 24.973-1.4902 1.5634-6.021-9.8233-7.6245-7.6134 1.9125 5.9872 7.75 8.2812 11.566 12.286 2.0567 2.8915 6.6137 9.6679 7.6524 13.753 0.36168 1.4225 9e-3 3.0435-0.7146 2.1036-4.0522-5.2672-6.7735-2.4747-8.2986-1.9241-2.8136 0.87085-5.6546 2.5304-8.0638 3.5039-10.257 5.4977-20.89 10.38-30.66 16.726-3.2911 0.51453-1.8806 9.0812-5.5492 5.8957zm1.6272-8.4782c-0.26916-1.0252-0.86915-6.4251-0.83218-3.4018 0.18013 3.0214-0.71228 6.5447 0.49638 9.1982 1.4819-1.4503 0.42481-4.0113 0.3358-5.7964zm-1.9195-4.2498c1.7312-7.5472-7.9048-5.5779-12.53-6.3342-18.24-1.8667-36.16-5.9187-54.281-8.5958-2.8564-0.0151-6.5688-2.4562-1.3909-1.6078 6.6758 2.3781 7.3339-8.2925 10.669-12.066 4.6985-8.198 9.4982-16.8 16.879-22.898 8.2187-5.282 21.259-4.5176 26.485 4.5937 5.1562 10.106 4.9039 21.844 5.9351 32.883 0.14284 2.2206 0.28569 4.4412 0.42853 6.6618h7.8804c-0.86719-13.418-1.3072-26.936-3.7274-40.181-2.473-4.7334-0.55711-14.421-7.5061-14.744-6.6198-1.2544-13.43-3.3356-20.195-2.2349-2.7272 3.0746-1.7093-2.5381-3.3595 1.8189-5.8902 4.9259-11.73 9.9716-16.619 15.946-7.4033 8.6194-14.435 17.735-19.205 28.1-2.3097 3.651-9.4604 11.791-1.0511 12.119 10.654 2.5114 21.653 3.1131 32.278 5.8144 12.979 2.2096 25.969 4.8288 39.137 5.5209 0.0575-1.599 0.11544-3.1979 0.17316-4.7968zm31.809-10.066c4.196-2.4863 8.5126-4.0628 12.751-6.4336 2.0624-0.91793-0.99934-3.258-1.2636-4.8217-1.0412-1.499-1.458-4.9371-3.6813-2.7646-10.575 5.468-21.462 10.378-31.69 16.48-3.7376 2.0788-3.394 7.6312-4.1903 10.707 6.6978-1.9291 12.647-5.9871 19.014-8.8403 3.006-1.4715 6.0048-2.961 9.0607-4.3273zm-29.284 5.5399c-1.6671-6.9158-0.99626 6.7619 0 0zm-79.527-5.3905c2.618-6.4017-3.3834 0.0264-1.7081 2.5531 0.99156-0.41317 1.2968-1.6769 1.7081-2.5531zm66.045-0.8924c0.0714-3.8394 2.9583-13.931-3.9064-10.094-8.3973 2.4572-17.195 4.5105-25.361 7.2 7.1213 1.6886 14.495 2.5432 21.654 4.2254 2.3414 0.15136 6.4196 1.5818 7.6132-1.331zm34.22-6.7763c5.7288-2.9205 11.478-5.8015 17.171-8.7916-3.9937-7.5961-9.7881-14.098-14.983-20.845-6.0677-6.0993-11.84-12.937-19.477-17.09-6.9588-2.3193-10.389 4.2552-6.1369 9.632 3.3927 5.094 0.48277 10.303 2.1125 15.717 2.1931 9.0363 1.0684 18.357 1.7347 27.521 1.8336 5.7507 8.9892-2.1283 12.912-2.8036 2.2277-1.1016 4.4493-2.2154 6.6659-3.3394zm-61.07 5.6314c-3.0805-0.7195-2.2168 1.18 0.23355 0.15876zm40.083-4.1092c-1.2895 0.2021 0.60729 5.2557 0 0zm-36.638-1.9168c7.9564-2.0198 15.918-4.0227 23.916-5.8734 0.0971-7.4248-1.3297-15.021-4.4801-21.747-3.7062-7.1564-12.775-7.458-19.811-6.9044-8.3177 3.2293-13.403 11.372-17.999 18.591-1.8922 5.3051-8.9656 12.274-5.892 17.401 5.7595 1.801 11.916 2.0978 17.693 0.18711 2.195-0.53561 4.3838-1.0971 6.5737-1.6533zm-18.646-2.8161c2.0397-0.94464 7.7235-1.1302 2.3964 0.34072-2.3114 0.92606-7.8873 1.1104-2.3964-0.34072zm6.2912-0.83059c11.345-3.4863 22.951-6.1418 34.44-9.0976-3.7757 2.6611-9.599 3.0848-14.228 4.6351-6.7813 1.5245-13.697 3.8037-20.422 4.6982zm-27.437 4.824c1.2702-5.0706-4.2508 2.4944-0.57373 0.94078l0.57365-0.94078zm5.9504-9.6292c2.1054-2.221 3.6447-7.8351 0.22027-2.7704-0.9409 1.7268-5.673 7.3686-3.7881 7.6189 1.3318-1.504 2.4508-3.1835 3.5678-4.8485zm70.728-2.8206c0.33628-5.342-2.7959-2.0375-1.3739 1.1595 1.0249 4.2624 1.4888 0.66669 1.3739-1.1595zm41.329 2.0071c-2.4351-3.0116-1.1314 2.5715 0.52306 0.90675zm-105.08-10.294c-3.6402-2.2882-3.9843 7.6802-0.52306 1.7503 0.22894-0.53133 0.71017-1.1217 0.52306-1.7503zm5.8334-6.9136c1.2974-1.5538 2.595-3.1077 3.8924-4.6615-2.9102 2.9059-6.4509 5.446-8.2967 9.1817 1.61-0.59651 3.0291-3.2257 4.4043-4.5202zm88.698 2.4321c-0.53595-3.4267-5.1927-3.9926-1.4644-0.43431 0.3045 0.28937 1.5527 1.7665 1.4644 0.43431zm-35.108-5.2695c-1.3345 0.85056 0.79448 4.072 0 0zm27.559-4.513c-1.9396-2.709-6.4821-4.3268-2.4022-0.10723 0.92079 1.7571 8.3622 7.7653 4.4244 2.3414-0.63234-0.78121-1.3124-1.5229-2.0223-2.2341zm-25.902 1.5004c-1.6862-4.9985-1.7832 1.9016 0.23201 2.8136 0.5576-0.83278-0.0236-1.9672-0.23201-2.8136zm-48.404-2.0542c1.4455-3.9016-3.5656 3.761 0 0zm67.288-5.6749c-2.7736-3.105-0.70823 2.8839 0.71162 1.4041l-0.0948-0.39857zm-58.166-2.0267c2.1957-0.87206 4.5902-4.6378 0.58954-1.8163-2.0824 1.2559-7.7401 6.6834-2.2247 2.9002l0.77009-0.50652zm54.923-0.35015c-0.64953-0.90677-7.4855-5.4797-3.7666-2.546 1.1229 0.68345 2.7784 3.1212 3.7666 2.546zm-25.016-7.5298c-1.7926-6.8888-9.175-4.6208-13.815-2.4574-4.7927 0.85154-2.7322 3.4548 1.0331 3.0719 4.6462-0.21345 10.303 2.2086 14.039 2.2114-0.26331-1.0033-0.81231-1.8983-1.2574-2.826zm11.234 1.6581c-1.745-2.4252-7.686-5.5213-10.272-5.208 1.8579 5.3552 4.264 8.7554 10.272 5.208z" stroke-width=".8107"/><path d="m259.04 421.55c0.19276-0.20401 0.48791-0.63056 0.65592-0.94788 0.34796-0.65725 1.3932-2.0991 3.5554-4.9045 0.8246-1.0699 1.5915-2.1176 1.7042-2.3283 0.14537-0.27161 0.30866-0.36031 0.56133-0.30492 0.19597 0.043 1.2094 0.26853 2.252 0.50126 5.1325 1.1084 9.7432 1.3938 14.778 2.3436 10.039 1.6413 15.154 1.3874 21.241 1.2658 11.595-0.23122 16.785-0.53195 20.468-1.186 0.46844-0.0831 1.1133-0.10877 1.433-0.0569 0.31974 0.0519 1.0863-0.022 1.7034-0.16409 1.5985-0.36812 2.1646-0.42242 6.3147-0.60565 5.0666-0.2237 8.3983-0.30051 16.891-1.8265 4.8468-0.87089 7.3493-1.5673 9.4845-1.7833 0.86134-0.0871 1.8124-0.28306 2.1136-0.4354 0.64606-0.32679 1.888-0.27944 4.3155 0.16455 1.6176 0.29588 2.9911 0.26472 3.1028-0.0704 0.0351-0.10543 0.23035-0.255 0.43379-0.33234 0.45922-0.17459 0.55039-0.95049 0.73539-6.2586 0.23888-6.8538 0.27407-14.455-0.73735-20.341-0.62236-3.496-0.5981-4.153-1.65-6.3763-0.15144-0.59664-0.14208-0.64253 0.0921-0.45103 0.39975 0.32702 1.7727 1.2337 2.9621 3.1275 0.58563 0.93251 1.475 2.2518 1.9763 2.9318 2.6204 3.6762 19.098 32.036 23.303 28.059 0.36655-0.40502 0.93041-1.694 0.93474-2.1368 3e-3 -0.29923 0.0968-0.37092 0.48551-0.37092 0.66021 0 1.4973-0.72469 1.4926-1.2922-4e-3 -0.53755-0.5069-1.6775-0.87292-1.9804-0.51613-0.42711-3.3027-0.34523-3.7897 0.11135-0.3069 0.2877-0.43303 0.32871-0.50716 0.16484-0.0543-0.11996-0.0662-0.0697-0.0265 0.11158 0.27338 1.2499 0.29455 1.6102 0.087 1.482-0.14125-0.0873-0.17289-0.0667-0.0938 0.0613 0.0656 0.10616 0.18617 0.15167 0.26791 0.10109 0.17288-0.10684 0.41451 0.70943 0.25672 0.86722-0.10518 0.10518-0.40401-0.25222-0.96947-1.1595-0.17647-0.28315-0.20945-0.42526-0.0824-0.35537 0.11639 0.064 0.0262-0.0648-0.20047-0.28613-3.7336-6.2397-4.9174-7.3511-9.4005-13.898-0.60716-0.85927-7.4433-11.291-10.617-16.201-4.2558-6.5845-6.034-9.1255-9.4924-13.564-1.732-2.2231-2.8071-6.7752-2.8071-6.9953-5.2322-8.3151-14.914-17.036-22.636-20.987-3.5803-1.8176-10.324-3.3452-18.055-4.2447-16.465-0.54386-31.972 1.1567-46.565 6.7662-8.5617 3.0051-16.628 10.534-21.643 16.248-1.6493 1.902-3.9198 4.8787-4.8626 6.3749-2.5603 4.0632-3.329 5.1454-5.8288 8.2057-0.72534 0.88799-1.5023 1.8447-1.7266 2.1261-0.22429 0.28136-1.2628 1.5776-2.3078 2.8804-1.045 1.3029-2.1968 2.7604-2.5594 3.2389-0.36268 0.47854-1.2847 1.6751-2.049 2.659-1.7253 2.2211-7.2399 9.5407-9.1101 12.092-0.56495 0.77066-1.0745 1.4383-1.1324 1.4836s-0.29681 0.37915-0.53096 0.74182c-1.2763 1.9768-6.0502 8.4005-6.2143 8.3619-0.10583-0.0249-0.14463 0.0321-0.0862 0.12666 0.0938 0.15197-0.49902 1.3198-0.67012 1.3198-0.0368 0-0.25601-0.29955-0.48714-0.66568-0.56957-0.90227-1.0148-1.0866-1.9752-0.81766-1.6408 0.45941-2.6759 1.6445-2.484 2.8443 0.18976 1.1868 1.0903 2.4305 1.7599 2.4305 0.21625 0 0.32654 0.16981 0.40152 0.61818 0.35619 2.13 0.87439 3.0092 1.7725 3.0074 0.97817-2e-3 1.6371-0.63491 3.6029-3.4607 1.6159-2.3227 1.933-2.722 2.1248-2.6747 0.10099 0.0249 0.13778-0.0289 0.0817-0.11946-0.056-0.0906 0.48301-1.0012 1.1978-2.0235 1.7583-2.5146 4.6676-6.8952 8.1024-12.199 1.6034-2.4761 2.9274-4.3605 3.0224-4.3018 0.0953 0.0588 0.11937 0.024 0.0553-0.08-0.0959-0.15521 2.2903-3.8425 4.9809-7.6968 1.3002-1.8625 1.396-1.9343 0.87957-0.65939-1.2421 3.0665-3.4797 10.351-4.6495 15.137-1.6522 6.7593-1.7086 11.412-0.16775 13.837 0.93062 1.4646 2.0765 1.9771 5.284 2.3631 6.6848 0.82477 12.773 1.7416 19.369 2.7233 1.36 0.20233 2.5008 0.38916 2.5351 0.41516 0.079 0.06-0.85295 1.5186-1.2498 1.9562-0.16416 0.18102-0.64214 0.79563-1.0622 1.3658-0.72248 0.98081-0.77897 1.0214-1.0474 0.75295-0.21882-0.21882-0.26116-0.44866-0.18499-1.0043 0.16184-1.1808-0.5154-2.0078-1.6513-2.0165-0.92699-7e-3 -2.797 1.324-3.6428 2.593-0.69992 1.0502 0.70761 2.8417 2.2327 2.8417 0.41322 0 0.56777 0.12387 0.93376 0.74838 1.2562 2.1435 2.9395 3.0153 3.8867 2.0128zm-2.6634-2.5574c-0.91014-1.3942-0.89503-1.3458-0.55646-1.7795 0.31272-0.40054 0.39427-0.30808 1.5735 1.7838 0.9629 1.7081 0.94713 1.6345 0.30176 1.4095-0.36854-0.12848-0.73894-0.52556-1.3188-1.4138zm2.1321-0.28362c-0.2277-0.49978-0.0644-0.76764 2.6801-4.3994 1.0502-1.3897 2.1875-3.0317 2.5274-3.649 0.33988-0.61733 0.92716-1.4716 1.3051-1.8984 0.37791-0.42678 1.2378-1.5537 1.9108-2.5042 3.6304-5.0814 6.8282-10.065 10.292-15.246 5.1006-6.9813 8.9731-14.396 14.077-21.265 0.0681-0.0908 0.78646-1.0551 1.5963-2.143 1.6256-2.1838 3.6067-4.6084 3.9265-4.8057 0.11326-0.0699-0.0232 0.16688-0.30317 0.52612-10.052 15.563-19.811 30.553-30.068 45.327-0.9475 1.36-3.0047 4.2039-4.5716 6.3197-1.5668 2.1158-2.8488 3.9147-2.8488 3.9975 0 0.30682-0.34288 0.13713-0.52338-0.25905zm-5.0186-1.7909-0.45007-0.38713 0.97664-0.77104c1.7938-1.4162 2.5859-1.2074 1.2872 0.33926-1.1719 1.3956-1.1531 1.3871-1.8137 0.81891zm39.837-3.5523c-0.57582-7.3913-0.89145-12.741-0.31796-20.133 1.1461-11.146 11.376-46.691 27.626-49.559 1.6898-0.21114 6.1049-0.15746 6.1001 0.5092-1e-3 0.18423 0.0843 1.3966 0.14468 4.2979 0.1208 5.7961-0.089 17.598-0.5903 33.217-0.52733 16.427-0.65805 21.867-0.65861 27.406 0 2.8786 0.0604 3.8937-0.0186 3.8937-0.0789 0-1.4699 0.14357-3.0909 0.31901-5.9586 0.64497-9.8604 0.38639-20.872 0.54629-3.3021 0.0664-5.0861-0.0335-8.3874 0.0665zm-11.338-0.36919c-2.2166-0.0331-14.954-1.898-15.413-2.3152 8.283-12.235 14.218-20.945 21.551-32.611 1.167-1.8648 2.8757-4.4986 4.598-7.0873 0.8143-1.224 1.9221-2.893 2.4618-3.709 1.2661-1.9142 1.3765-2.0226 0.83894-0.82423-3.8911 8.6752-6.3341 22.116-6.332 34.837 9.9e-4 4.9355-0.13995 10.914 0.2918 12.365-1.9634 0.48726-5.49-0.43669-7.9965-0.65586zm47.793-9.8453c-0.43483-20.353-7e-3 -40.396-0.33395-57.404 20.755 11.301 27.911 27.031 31.237 48.106 0.2357 2.3592 0.54796 14.507 0.3729 14.507-0.16614 0-3.7812 0.49833-5.2465 0.72322-0.86131 0.1322-3.4206 0.57614-5.6872 0.98652-2.2666 0.4104-4.6033 0.82229-5.1926 0.9153-7.1681 0.57622-8.3431 0.86359-15.254 1.0271zm-93.77 0.7429c-0.45998-0.91993-0.49343-1.11-0.47863-2.7199 1.2591-11.059 4.9518-19.419 9.4456-28.799 8.5651-15.65 17.488-23.668 31.212-29.961 19.846-5.0462 29.969-7.784 45.241-6.3652 6.0085 0.74968 9.0731 0.34931 11.618 1.7096 0.49867 0.26654 0.7583 0.43773 0.57697 0.38042-18.313-3.2225-23.25 3.9699-32.061 15.605-2.6261 3.4842-3.8369 6.7912-4.3045 7.1836-0.17558 0.14731-1.5373 1.7285-2.1293 2.4724-0.31733 0.39879-0.91178 1.1369-1.321 1.6402-0.40921 0.50335-1.1833 1.5086-1.7201 2.234-0.53682 0.72532-1.1713 1.5784-1.4099 1.8957-5.6736 8.4327-10.669 16.021-15.851 23.738-3.8289 5.3191-6.4204 9.7054-10.089 14.603-2.3992 3.7724-27.211-3.2112-28.73-3.6163zm31.024-29.465c0.19232-0.31119-0.28076-0.56858-2.1759-1.1838-1.992-0.64673-4.4656-1.1685-5.0506-1.0653-0.4457 0.0786 0.95192 0.76156 2.2713 1.1098 0.45332 0.11967 1.5754 0.46561 2.4936 0.76877 1.7719 0.58505 2.2816 0.66177 2.4616 0.37052zm7.4907-1.1648c0-0.088 1.9916-5.8451 2.3574-6.8145 1.1742-3.1122 2.6592-5.7316 4.5791-8.0775 1.1679-1.427 2.6246-3.5357 2.6246-3.7994 0-0.23788-1.4457-0.53832-3.2656-0.67865-0.73692-0.0568-1.312-0.14815-1.2779-0.20292 0.0341-0.0547-0.83985-0.0784-1.9421-0.0525s-3.0055-0.0112-4.2295-0.0824c-7.0151-0.40818-8.8849 0.034-11.223 2.6542-5.721 6.4109-8.5765 13.801-5.877 15.21 0.40702 0.21242 1.2146 0.30724 3.4178 0.40124 1.5866 0.0678 3.7379 0.24463 4.7805 0.39315 5.6285 0.8017 10.056 1.2637 10.056 1.0494zm-2.7162-1.2949c-1.0859-0.17906-2.6571-0.37357-3.4915-0.43222l-1.5171-0.10664-0.49903-1.254c-0.27445-0.68973-1.0688-2.9602-1.7651-5.0455-0.6964-2.0853-1.5526-4.4049-1.9028-5.1546-0.86146-1.8446-0.84635-1.9525 0.46814-3.3459 1.7039-1.8063 2.2534-2.0297 5.1684-2.1017 2.7053-0.0669 2.5519-0.132 3.0314 1.2884 0.16835 0.49868 0.71089 1.9452 1.2056 3.2145 2.626 6.7373 3.0299 8.6686 2.2141 10.586-0.27634 0.64943-0.55319 1.5191-0.61518 1.9326-0.062 0.4135-0.15997 0.75028-0.21767 0.74839-0.0576-2e-3 -0.99339-0.14992-2.0793-0.329zm-9.5649-1.1458c-1.4506-0.18143-3.2928-0.37956-4.0936-0.44029-2.1404-0.16231-2.1774-0.2344-1.4972-2.9141 0.54733-2.1562 2.106-5.3245 3.611-7.3398 0.62013-0.83045 1.1759-1.5099 1.2351-1.5099s0.24006 0.42654 0.40201 0.94787 0.95483 2.8783 1.7619 5.2377c0.80711 2.3594 1.6116 4.7939 1.7878 5.41l0.32036 1.1202-0.44492-0.0909c-0.2447-0.0499-1.6318-0.2393-3.0825-0.42073zm13.27-5.0086c0-0.23461-1.3719-4.3378-2.7862-8.3334-0.46225-1.3058-0.84045-2.4742-0.84045-2.5963 0-0.39538 9.1223-0.11309 10.619 0.32859 0.0831 0.0245-0.22759 0.46275-0.69043 0.97381-1.2216 1.349-3.5698 4.9844-4.9006 7.5871-1.0798 2.1117-1.4012 2.5798-1.4012 2.0402zm4.3465 1.0729c0.69088-1.3523 2.5771-5.9184 2.5771-6.2386 0-1.1022-1.6451 1.9486-2.6278 4.8731-0.82579 2.4577-0.80421 3.0389 0.0507 1.3655zm116.26 42.603c0.3771-1.1962 0.49724-1.0761 0.14288 0.14289-0.14976 0.51512-0.30836 0.90052-0.35244 0.85642-0.044-0.0441 0.0502-0.49377 0.20956-0.99931zm-31.399-0.66246 0.0802-4.7224c0.52795-31.118-15.822-54.916-36.878-63.06 19.565 2.171 29.734 17.666 32.846 24.678 5.3503 12.506 8.0652 24.643 7.5715 37.622-0.23702 5.3476-0.29353 5.7916-0.72985 5.7351-1.4596-0.15984-1.4102-0.10473-2.8899-0.25335zm-150.45 0.27508c-0.41297-1.5282-0.51489-2.8448-0.23946-3.094 0.46779-0.42335 1.2472 2.8902 0.78779 3.3495-0.2975 0.29748-0.4135 0.24344-0.54833-0.25552zm161.65-24.109c-1.5097-2.3706-4.5556-6.9465-5.3973-8.1087-3.2888-4.5409-4.2063-5.9735-5.6157-8.7682-0.63022-1.2497-1.5112-3.4363-1.2978-3.221 0.11739 0.11839 2.4367 3.3505 3.4419 4.7965 0.52472 0.75482 1.3733 1.9658 1.8857 2.6912 1.6663 2.3587 7.5134 11.18 8.782 13.249 0.68 1.1091 2.9611 4.6138 5.069 7.7883 3.4395 6.3462 7.0141 10.625 10.057 15.435-5.1085-4.2509-13.185-18.016-16.925-23.862zm-159.92 20.382c0.54991-1.113 1.6181-2.5214 1.8583-2.4502 0.0842 0.0249 0.10946-0.0248 0.0565-0.11045-0.053-0.0857 0.3681-0.83801 0.93563-1.6719 0.56754-0.83389 1.2968-1.9382 1.6206-2.4541 0.54316-0.86528 2.7258-3.8878 5.4252-7.513 0.60759-0.81599 1.9139-2.5963 2.9028-3.9563 0.98895-1.36 1.8871-2.584 1.9959-2.72 0.38568-0.48217 1.7877-2.3606 2.2751-3.0482 0.272-0.3837 0.82835-1.1264 1.2364-1.6503 0.40799-0.52397 0.88862-1.1462 1.0681-1.3828 0.40669-0.5361 3.3629-4.2686 3.7352-4.7161 1.0058-1.2088 2.6805-3.1592 2.8308-3.2969 0.24894-0.22803-0.35371 0.54464-2.2409 2.8732-2.5929 3.1993-4.9067 6.5756-9.9084 14.459-1.35 2.1277-5.7262 8.6616-7.4372 11.104-0.66686 0.95201-1.6761 2.415-2.2427 3.2512-0.87407 1.2898-1.0695 1.491-1.289 1.3267-0.21513-0.16097-0.22439-0.15504-0.055 0.0351 0.24104 0.27064-0.1705 1.062-1.4817 2.8495-1.2279 1.6738-1.4908 1.8084-1.6549 0.84748-0.11419-0.66829-0.0679-0.89077 0.3694-1.7759zm180.56 1.8449c-0.71895-0.21786-0.67586-0.39376 0.10777-0.44 0.48825-0.0289 0.75673 0.0622 1.1127 0.37713l0.4692 0.4151-0.57696-0.0949c-0.31733-0.0523-0.81805-0.16802-1.1127-0.2573zm-184.59-2.0582c-0.30498-0.7299-0.10583-1.047 0.8399-1.3372 0.75938-0.23306 1.0566-0.11099 1.0534 0.43266-3e-3 0.5641-0.12291 0.73243-0.82171 1.1561-0.75542 0.45804-0.77726 0.45292-1.0716-0.25159z" stroke-width=".16485"/><path d="m-148.08 414.4c-4.5045-2.889-5.1059-5.3839-5.1059-5.3839l-19.242-32.628-0.75217-3.926 21.479-27.398 6.7377-3.5553 28.844-7.0356 4.1886 2.2496 23.356 30.983 0.18302 5.427-16.861 34.457-6.068 2.3337z" fill="#fff" stroke="#fff" stroke-width="1px"/><path d="m130.14 307.41c-3.5854 1.3674-14.479 3.1085-16.814 4.7145-0.69958 0.53661-0.43221 1.3809-0.13908 1.8342 0.66307 0.57638 2.2381-0.0797 3.5674-0.38974 4.9288-0.62977 9.5252-3.2618 14.483-3.5855 0.29245-0.0191 0.58509-0.0359 0.87794-0.0501l0.65119 6e-3c14.127 0.13879 28.258 0.39936 42.371 1.0545 3.4824 0.41758 6.5175 2.8877 9.8484 3.924 1.5722 0.4295 3.73 2.154 3.9161-0.38734-2.9992-3.0361-8.3238-3.9158-11.858-5.6706-0.99257-0.31848-2.8731-0.2439-4.2403-0.25745-5.7836-0.12721-20.189-1.1822-31.157-0.94789-5.9021 0.12609-9.4903-0.70369-11.508-0.24459zm10.093-96.595-32.213 5.7305-32.875 20.195-4.3672 6.3398c-2.4017 3.4865-6.8286 9.9645-9.8379 14.395l-5.4707 8.0547-3.3555 14.441-3.3535 14.443v29.766l9.1641 9.2891 14.443 4.5293c14.443 4.529 14.442 4.5297 34.439 7.4824 24.468 3.6129 21.536 3.559 49.006 0.87891 21.782-2.1252 23.357-2.3581 39.467-5.832l16.779-3.6172 8.6172-4.2969c8.6163-4.2975 8.6165-4.2975 8.6602-6.25 0.024-1.0739 0.48006-9.4517 1.0137-18.617l0.9707-16.666-8.9062-25.551-19.609-28.059-16.275-10.551c-8.9513-5.8031-16.498-10.553-16.77-10.553s-7.0255-1.248-15.01-2.7754zm-3.5703 3.1699c0.56157 4e-3 0.58186 0.18377 0.22266 0.54297-0.2101 0.2101-1.9387 0.44804-3.8418 0.52734l-3.4609 0.14453 3.6113-0.69922c1.8045-0.34858 2.9072-0.51974 3.4688-0.51562zm5.4746 0.0352c3.2815 0.0705 9.2157 0.88167 9.8828 1.5488 0.13438 0.13499-0.35932 0.19718-1.0977 0.13868-0.73833-0.0585-3.6948-0.24731-6.5703-0.41797-4.4959-0.26683-5.1005-0.4147-4.3184-1.0606 0.21068-0.17397 1.0097-0.23249 2.1035-0.20898zm2.7871 3.6133c0.35317-9e-3 0.91686 0.0201 1.6055 0.0898 1.3772 0.13954 7.0047 0.42813 12.506 0.64063l10.002 0.38476 1.1543 4.9199c0.74538 3.1797 0.93826 4.9011 0.54687 4.8672-0.54604-0.0474-24.826-10.038-26.158-10.764-0.15276-0.0832-9e-3 -0.12983 0.34375-0.13867zm-15.799 0.0879c0.0546 0.0274-4.4244 1.7967-9.9551 3.9316s-11.513 4.4398-13.293 5.123c-3.9611 1.5206-3.9598 1.4334 0.0488-3.7422l3.2266-4.166 9.9375-0.59765c5.4653-0.32917 9.9806-0.57623 10.035-0.54883zm9.125 0.31445c1.0439 0 30.706 12.492 29.938 12.607-0.45737 0.0689-7.5811 1.4007-15.83 2.959-8.249 1.5583-15.529 2.9622-16.178 3.1191-1.1758 0.28445-1.1776 0.26998-0.42578-4.3398 0.41488-2.544 1.0403-6.813 1.3906-9.4863 0.35032-2.6733 0.84854-4.8594 1.1055-4.8594zm-3.0312 0.17378c0.17205 0.17205-1.7592 14.25-2.3574 17.184-0.35661 1.7486-0.23932 1.7407-5.7793 0.42383-2.2914-0.54464-8.5977-1.9413-14.014-3.1035-5.4159-1.1622-9.7829-2.1761-9.7051-2.2539 0.34789-0.34788 31.701-12.405 31.855-12.25zm37.16 2.4531c0.23764-0.0193 0.64155 0.23674 1.2246 0.6543 0.84017 0.60169 5.9979 3.9837 11.461 7.5156 5.463 3.5319 9.7126 6.4029 9.4434 6.3789s-4.989-1.234-10.488-2.6875l-9.998-2.6426-0.92773-3.8398c-0.9547-3.9562-1.2377-5.3364-0.71484-5.3789zm-69.08 1.543c0.20124-0.0551-0.23976 0.73649-1.0977 1.9395-3.9728 5.5708-3.9635 5.5644-10.416 7.541-3.3478 1.0255-6.3057 1.8721-6.5742 1.8828-0.26852 0.0107 3.4808-2.382 8.332-5.3164 4.8513-2.9344 9.1854-5.6208 9.6309-5.9707 0.0557-0.0437 0.0962-0.0683 0.125-0.0762zm67.736 10.445c0.17472-0.0146 0.27403-0.015 0.29101 2e-3 0.13583 0.13582-0.38102 6.561-1.1504 14.277-0.76938 7.7163-1.4694 14.093-1.5547 14.172-0.22136 0.20339-31.533-21.62-31.537-21.98-2e-3 -0.16448 2.3087-0.71273 5.1348-1.2188 2.826-0.50603 10.476-1.9505 17-3.209 5.7082-1.1012 10.593-1.9409 11.816-2.043zm-71.049 0.0742c0.23678-0.23677 26.188 4.9867 30.09 6.0566 0.48014 0.13166-3.0451 2.4906-22.838 15.285-5.2624 3.4017-9.6988 6.1856-9.8594 6.1856-0.56552 0 1.9827-26.903 2.6074-27.527zm77.039 0.39844 11.553 3.0059c6.3533 1.6529 11.713 3.0068 11.91 3.0098 0.35 4e-3 1.0196 4.3378 2.1387 13.848 0.3028 2.5734 0.48847 4.7397 0.41407 4.8125-0.15281 0.14951-5.1215-4.5257-17.52-16.482zm-83.439 0.66797c0.07539 0.0754-5.1542 5.2482-11.621 11.494-6.4669 6.2459-11.568 10.855-11.336 10.244 0.23242-0.61104 1.7032-4.6464 3.2676-8.9668l2.8438-7.8555 8.3555-2.5254c4.5948-1.3898 8.4148-2.466 8.4902-2.3906zm80.332 0.17578c0.0707-0.25026 4.7476 3.9947 10.393 9.4336 5.645 5.439 11.983 11.537 14.084 13.553l3.8184 3.6641-14.096 0.6836c-7.753 0.37507-14.817 0.81811-15.697 0.98632-1.5525 0.29662-1.5896 0.25073-1.2715-1.5586 0.18042-1.026 0.84805-7.3646 1.4844-14.086 0.63634-6.7214 1.2145-12.426 1.2852-12.676zm-76.957 0.42774c0.17649 0.16905-1.9596 23.02-2.4043 25.719-0.20878 1.2669-0.58159 1.7773-1.2461 1.7148-0.52081-0.049-5.8898-0.46567-11.932-0.92774-6.0418-0.46206-10.916-0.98573-10.832-1.1621 0.26881-0.56273 26.255-25.496 26.414-25.344zm38.178 7.3398c0.91258-0.11365 3.9372 1.9101 15.445 9.9102 8.4956 5.9059 15.476 10.945 15.514 11.199 0.0372 0.25427-0.4146 0.54635-1.0039 0.64844-0.58931 0.10211-7.6948 1.6812-15.791 3.5098s-15.191 3.4602-15.766 3.625c-0.9413 0.27002-1.012 0.0614-0.71094-2.1211 0.1837-1.3316 0.61223-7.5455 0.95117-13.809s0.78385-11.929 0.98829-12.59c0.0639-0.20658 0.16245-0.34682 0.37304-0.37305zm-3.2402 0.10742c0.0677-0.0153 0.10559-0.0113 0.11133 0.0137 0.18169 0.7901-0.35618 10.22-1.3906 24.367-0.1843 2.5205-0.49254 4.5632-0.68555 4.5391-1.5589-0.19485-31.173-8.0747-31.152-8.2891 0.09227-0.94096 31.018-20.156 33.117-20.631zm72.182 2.1348c0.40027 0.10521 1.6209 1.7396 4.4062 5.7266 2.6657 3.8157 5.9498 8.5007 7.2988 10.41 1.349 1.9095 2.1278 3.4477 1.7305 3.4199-0.85723-0.06-11.194-2.7366-11.412-2.9551-0.083-0.083-0.52162-3.2518-0.97461-7.043s-0.97295-7.766-1.1562-8.832c-0.0871-0.50631-0.0745-0.77439 0.10742-0.72656zm-133.28 3.6934c0.09697 0.097-0.85811 2.9541-2.123 6.3496-2.2355 6.0008-2.3649 6.2001-4.584 7.0976-1.2556 0.50785-2.6364 1.0632-3.0684 1.2344-0.43193 0.17112 1.5507-3.102 4.4062-7.2734 2.8556-4.1714 5.2721-7.5052 5.3691-7.4082zm-2.127 14.49 11.566 0.95899c6.3615 0.52778 11.89 0.97353 12.285 0.99023 0.39535 0.0167-4.3269 6.7161-10.494 14.889-6.1672 8.1726-11.404 15.076-11.639 15.338-0.6109 0.68433-1.0002-4.7752-1.3828-19.383zm133.37 0.98438c0.56893 4e-3 0.9023 0.0254 0.94141 0.0645 0.17907 0.17907-0.98188 8.0231-2.5801 17.432-1.5982 9.4085-2.9535 17.16-3.0117 17.227s-1.3711-1.5591-2.918-3.6113-7.1915-9.5128-12.545-16.58l-9.7344-12.85 3.6875-0.33399c6.6705-0.60293 22.178-1.3739 26.16-1.3476zm-137.68 0.55468c0.20091-0.0895-1.9659 4.2846-4.8145 9.7207-6.2894 12.002-6.4495 12.258-5.5156 8.7734 0.40934-1.5276 1.3962-5.6726 2.1953-9.2109l1.4531-6.4336 3.1582-1.3438c1.7366-0.73891 3.3225-1.4164 3.5234-1.5059zm143.38 0.13086c0.0991-0.0991 2.924 0.50607 6.2774 1.3457l6.0976 1.5273 0.16602 2.2617c0.0922 1.2444 0.61773 6.6054 1.168 11.912 0.55025 5.3067 0.97476 9.6894 0.94336 9.7402-0.0314 0.0509-3.3799-5.9154-7.4434-13.258-4.0635-7.3424-7.3081-13.43-7.209-13.529zm-110.5 1.0684c0.16371-0.16371 31.484 7.9331 31.762 8.2109 0.11481 0.11482-4.6462 6.6827-10.58 14.596-5.9339 7.913-10.873 14.471-10.977 14.574-0.10317 0.10316-1.9977-6.6242-4.2109-14.949-2.2132-8.3251-4.4957-16.749-5.0723-18.721-0.57656-1.9715-0.99198-3.6408-0.92188-3.7109zm70.016 0.4336c1.0123-0.27447 1.968-0.30564 3.2611 1.2353 3.4476 4.1085 9.3163 12.23 13.381 17.618l11.975 15.879c0.30215 0.63123 0.72465 1.4832-0.0547 2.6484 0.0811 0.0784-3.968 8.5549-8.998 18.836-5.0301 10.281-9.2281 18.693-9.3301 18.693-0.25138 1.4931-2.1548 1.727-3.0821 1.76-0.52626 0.20463-9.5808 1.1518-20.121 2.1055s-20.049 1.4047-20.762 1.5571c-2.5889-0.0421-2.8217-0.44511-3.9022-2.2655-3.5297-5.9529-17.57-30.844-20.252-35.917-0.8759-1.3033-1.2738-2.6842-0.056-3.6248l10.834-14.443c5.9591-7.9434 11.016-14.491 11.238-14.551 1.2464-1.566 1.0028-1.4875 2.5722-1.6914 0.16566-0.16566 7.3709-1.8928 16.01-3.8398 8.6388-1.947 16.143-3.6784 16.678-3.8477 0.25551-0.0809 0.47233-0.1791 0.60937-0.15234zm38.279 0.15039c0.2212-0.21264 16.63 29.84 16.412 30.059-0.11033 0.11033-5.1594 1.058-11.221 2.1055l-11.021 1.9043 0.33398-2.291c0.60988-4.1876 5.3589-31.645 5.4961-31.777zm-110.8 1.0195c0.21861-0.0759 1.3776 3.5487 2.5742 8.0547 1.1966 4.5059 3.3827 12.687 4.8594 18.182 1.4766 5.4943 2.6856 10.182 2.6856 10.416 0 0.43269-2.0418 0.5149-3.0547 0.12305-0.30551-0.11821-7.298-1.3609-15.537-2.7617-8.2391-1.4008-15.067-2.635-15.174-2.7422-0.23641-0.23641 23.083-31.076 23.646-31.271zm-28.648 0.38281c0.23496 0 0.26762 0.59032 0.31641 1.4492 0.08588 1.5117 0.33699 8.5605 0.55664 15.664 0.34939 11.3 0.29539 12.91-0.43359 12.863-2.023-0.12968-14.166-3.6906-14.166-4.1543 0-0.28313 3.1244-6.5019 6.9434-13.818 4.7737-9.1456 6.2663-12.004 6.7832-12.004zm157.26 9.1875c0.19432 0.0314 1.1867 2.6207 3.0976 8.0566l2.2422 6.3809-1.4707 1.5352c-0.80924 0.84466-1.6344 1.5352-1.832 1.5352-0.19768 0-0.66156-3.4525-1.0313-7.6719-0.36967-4.2193-0.79217-8.2801-0.93945-9.0254-0.1082-0.54754-0.13118-0.82103-0.0664-0.81055zm5.373 17.818-0.3457 7.2051c-0.57525 12-0.91056 12.651-1.9609 3.8125l-0.91797-7.7168 1.6113-1.6504zm-176.47 1.9824c0.76233-1e-5 2.5196 0.42032 6.0703 1.377 3.7485 1.0099 7.2524 1.848 7.7871 1.8613 1.2517 0.031 1.5754-1.3556-3.2109 13.758-2.3006 7.2644-4.2692 13.456-4.375 13.762-0.25817 0.74523-0.45268-0.0931-3.6777-15.83-1.534-7.4852-2.9133-14.01-3.0645-14.498-0.08589-0.27765 0.0133-0.42968 0.4707-0.42969zm170.1 2.293c0.0522 0.0745-2.2167 7.5915-5.043 16.703-2.8262 9.1116-5.2252 16.648-5.3301 16.75-0.1048 0.10153-2.858-6.4757-6.1191-14.617-3.2612-8.1415-5.8741-14.858-5.8066-14.926 0.20072-0.20072 22.195-4.0576 22.299-3.9102zm-151.72 2.0859c0.03767 4e-3 5.8169 1.0076 12.844 2.2305 7.0269 1.2229 14.652 2.5133 16.943 2.8672 2.2914 0.35384 4.2304 0.68724 4.3106 0.74024s-2.8846 5.4451-6.5898 11.984c-3.7053 6.5393-7.7575 13.703-9.0039 15.918s-2.4046 4.0207-2.5742 4.0117-3.8394-8.5078-8.1543-18.887c-4.3149-10.379-7.8131-18.868-7.7754-18.865zm-2.0449 2.7578c0.42912 0.25403 2.8761 5.5068 5.6836 12.236 2.9946 7.1782 6.4662 15.49 7.7148 18.469 1.2487 2.9788 2.0952 5.3952 1.8809 5.3711-0.21435-0.0241-0.63979-0.13355-0.94531-0.24414-0.30551-0.11058-5.7328-1.85-12.061-3.8652-11.109-3.5379-11.488-3.7076-10.998-4.8945 0.27905-0.67607 2.2772-6.8524 4.4395-13.727 2.1623-6.8741 4.0635-12.873 4.2266-13.33 0.01019-0.0285 0.02999-0.0326 0.05859-0.0156zm155.04 0.26953c0.12072 0.12072 0.89454 5.5116 1.7188 11.979l1.498 11.758-5.9863 3.002c-6.4475 3.2335-6.8022 3.3618-6.4375 2.3086 0.13224-0.3819 2.2076-7.1236 4.6133-14.98 2.4057-7.8569 4.473-14.187 4.5938-14.066zm-25.33 1.502c0.0205-6e-3 0.0347 9.4e-4 0.043 0.0215 0.15946 0.3962 2.8097 6.9345 5.8906 14.529s5.6698 14.192 5.752 14.66c0.11973 0.68246-2.4969 1.4224-13.184 3.7324-7.3324 1.5849-14.121 3.0403-15.088 3.2324l-1.7578 0.34765 3.2246-6.7812c8.0246-16.867 14.484-29.561 15.119-29.742zm-146.68 2.4082 2.1406 10.275c1.1766 5.6518 2.0692 10.347 1.9844 10.432-0.08476 0.0847-1.0636-0.85296-2.1758-2.084l-2.0215-2.2383 0.03711-8.1934zm54.873 1.2266c0.23582-0.24251 5.1921 8.0678 11.014 18.469 10.585 18.911 10.585 18.912 8.8359 18.846-0.96192-0.0366-9.7488-1.2713-19.525-2.7422-9.7765-1.4709-17.993-2.6907-18.26-2.7109s-0.23026-0.34858 0.08008-0.73047c0.31034-0.3819 4.3588-7.4444 8.9961-15.693 4.6373-8.249 8.6236-15.195 8.8594-15.438z" color="#000000" color-rendering="auto" dominant-baseline="auto" image-rendering="auto" shape-rendering="auto" solid-color="#000000" stop-color="#000000" style="font-feature-settings:normal;font-variant-alternates:normal;font-variant-caps:normal;font-variant-east-asian:normal;font-variant-ligatures:normal;font-variant-numeric:normal;font-variant-position:normal;font-variation-settings:normal;inline-size:0;isolation:auto;mix-blend-mode:normal;shape-margin:0;shape-padding:0;text-decoration-color:#000000;text-decoration-line:none;text-decoration-style:solid;text-indent:0;text-orientation:mixed;text-transform:none;white-space:normal"/><path d="m350.84 239.12c-3.2782 1.6367-9.8492 5.6539-13.698 8.2199-6.8763 5.6492-12.464 14.221-15.294 22.295-4.8688 14.275-2.4358 28.781 0.043 43.082 1.0823 8.5869 0.61018 13.375 7.5855 19.484 13.928 9.6364 30.313 24.24 30.313 24.24s-3.4766-11.365-21.637-25.896c-4.6817-3.746-8.547-9.3178-9.5374-17.176-3.5612-17.814-5.1071-29.164 0.60176-45.355 2.7782-10.265 9.5795-16.886 20.222-19.793 0.84424-2.9657 1.6021-5.947 1.4019-9.1018z" color="#000000" color-rendering="auto" dominant-baseline="auto" image-rendering="auto" shape-rendering="auto" solid-color="#000000" stop-color="#000000" style="font-feature-settings:normal;font-variant-alternates:normal;font-variant-caps:normal;font-variant-east-asian:normal;font-variant-ligatures:normal;font-variant-numeric:normal;font-variant-position:normal;font-variation-settings:normal;inline-size:0;isolation:auto;mix-blend-mode:normal;shape-margin:0;shape-padding:0;text-decoration-color:#000000;text-decoration-line:none;text-decoration-style:solid;text-indent:0;text-orientation:mixed;text-transform:none;white-space:normal"/><path d="m556.94 167.62c-1.7028-0.15609-3.1326-0.32037-3.1773-0.36509-0.0447-0.0447 0.94093-0.14506 2.1903-0.223 8.8305-1.0843 4.6367-0.0845 10.293-1.6397 0.53729-0.14226 1.026-0.30781 1.0861-0.36788 0.2553-0.25533 0.66101-3.9264 0.95835-8.6717 0.0693-1.107 0.25277-2.8732 0.40756-3.9249 0.15478-1.0517 0.37263-3.0443 0.48413-4.4281s0.48108-3.8746 0.82128-5.5351c1.2152-5.9312 1.2542-6.1958 1.1429-7.7491-0.17426-2.4334-2.5002-8.2476-4.5473-11.367-1.8299-2.7884-2.7176-4.7922-2.8045-6.3307-0.0691-1.2222 0.0453-1.7128 1.2528-5.3719 0.73085-2.2148 1.3288-4.0776 1.3288-4.1397 0-0.062-0.35088-0.16889-0.77976-0.23747-1.0887-0.17409-2.2616-1.4115-3.2477-3.4264-1.3172-2.6914-1.6482-4.7266-0.97663-6.0057 0.14428-0.27479 0.0801-0.37294-0.30742-0.4702-0.82326-0.20662-2.2011 0.55681-3.1332 1.736-1.1732 1.4843-1.343 1.873-1.9438 4.4505-0.92364 3.963-1.3384 4.4383-5.6982 6.5311-3.5356 1.6972-5.1295 2.2425-7.0336 2.4064-1.858 0.15994-2.8406-0.356-3.9802-2.0898-0.45864-0.69784-1.3726-1.83-2.0311-2.516-1.318-1.373-1.7295-2.2895-1.7506-3.8988-0.0185-1.4107 0.4018-1.9168 2.6322-3.169 2.5002-1.4037 3.0783-1.8609 2.6879-2.1261-0.52943-0.35972-1.7826-0.62525-3.7242-0.78906-1.2109-0.10216-2.0761-0.28256-2.4125-0.50303-1.6136-1.0573-1.7256-3.1673-0.32325-6.09 0.96474-2.0106 0.95804-2.1899-0.14938-3.9938l-0.74141-1.2077-1.8686-0.62498c-3.0866-1.0324-3.7612-2.0088-4.6047-6.6655-0.67413-3.7218-0.75054-6.9275-0.19918-8.3565 0.68267-1.7693 2.9173-3.1182 4.5543-2.749 0.51206 0.11549 1.0716 0.55023 2.0191 1.5688 0.85676 0.92091 1.6943 1.5937 2.4178 1.9423 0.60888 0.29332 1.6505 1.0566 2.3147 1.6962 1.531 1.4743 2.1662 1.6296 3.5607 0.87061 0.58404-0.31788 1.5962-1.2116 2.442-2.1563 0.79448-0.88734 1.8439-1.9894 2.332-2.4491l0.88744-0.83577-1.0887-0.35649c-0.59881-0.19607-1.5869-0.60787-2.1958-0.91512-0.60884-0.30724-1.424-0.62222-1.8115-0.69994-1.0488-0.21039-1.7242-0.67535-2.1932-1.5098-0.23085-0.41072-0.53737-0.84441-0.68118-0.96377-0.14383-0.11936-1.1183-0.27531-2.1656-0.34656-1.4082-0.09581-2.1776-0.25883-2.9545-0.62599-1.2556-0.59343-3.0547-2.4944-3.7975-4.0127-0.5287-1.0807-1.0704-3.5948-1.0827-5.0253-0.0103-1.1836 0.86364-2.8121 1.8644-3.4747 0.89382-0.59182 2.0654-0.68492 4.476-0.35568 1.0391 0.14192 1.3632 0.10208 2.2407-0.2754 0.56427-0.24273 1.2783-0.70477 1.5868-1.0268 0.66015-0.68906 0.68284-0.6103-1.0614-3.6802-0.61883-1.0891-1.3325-2.5514-1.586-3.2497-0.25345-0.69826-0.7671-1.7545-1.1415-2.3473-1.3902-2.2012-1.6792-3.7758-0.97358-5.3045 0.51082-1.1068 1.0766-1.574 2.9449-2.4319 1.2159-0.55831 1.8434-1.0017 2.5833-1.8255 1.2909-1.4371 1.7942-1.6662 4.1125-1.8719 1.0751-0.09538 2.5152-0.33101 3.2003-0.52361 1.0578-0.29738 1.3404-0.31093 1.8741-0.08986 0.77984 0.32301 1.4092 1.1572 2.0315 2.6929 0.81845 2.0195 2.7088 3.748 4.099 3.748 0.54723 0 2.122-1.27 2.122-1.7114 0-0.51773 1.0696-3.4569 1.6785-4.6125 1.1027-2.0925 2.9507-3.6602 4.7623-4.0397 0.38747-0.08117 1.963-0.54866 3.501-1.0389 2.9982-0.95553 5.0815-1.2634 8.6135-1.2728 1.1626-3e-3 3.154-0.21396 4.9313-0.52216 3.5102-0.60869 4.0511-0.5526 7.076 0.73371 2.1667 0.92138 2.7688 1.3743 2.9552 2.2231 0.21793 0.99233-0.28735 1.9683-1.9407 3.7486-1.7904 1.9278-2.2165 2.8447-1.7618 3.7909 0.90799 1.8893 3.5372 0.41643 6.4964-3.6393 2.5327-3.4711 4.2811-4.7157 6.862-4.8845 1.3591-0.0889 1.4695-0.06019 3.1216 0.8118 2.1802 1.1508 3.101 1.4581 5.8532 1.9537 1.2281 0.22114 2.7718 0.64393 3.4306 0.93954 2.5374 1.1387 2.7946 2.4057 1.2488 6.1515-0.78083 1.8922-0.9529 2.5442-1.0249 3.8841l-0.0865 1.6102 0.83484 1.2345c0.48726 0.72054 1.1555 2.1607 1.605 3.4592 0.75497 2.1808 0.77303 2.3013 0.91533 6.112 0.12137 3.2493 0.20588 3.9865 0.5151 4.4912 0.47805 0.78032 1.8321 2.0723 4.2178 4.0243 2.9516 2.415 3.812 3.5592 4.8044 6.3887 0.81408 2.3212 1.0698 2.7864 2.2452 4.0843 0.54577 0.60267 1.0483 1.3187 1.1166 1.5912 0.19931 0.79404-0.28023 1.8629-1.1864 2.6445-1.3563 1.1699-2.2769 1.5515-3.9894 1.6538-1.3479 0.08052-1.6811 0.02656-2.6912-0.4359-1.261-0.57732-2.3119-0.69353-2.3119-0.25566 0 0.62097 0.97667 1.6728 2.1181 2.281 1.4678 0.78219 3.0712 2.1692 4.1103 3.5555 0.42737 0.57015 1.475 1.8065 2.3281 2.7475 2.3776 2.6224 3.1166 4.4863 2.4301 6.1293-0.52695 1.2611-2.3902 3.8227-3.8258 5.2597-1.1506 1.1518-1.6102 1.472-2.391 1.6661-1.4072 0.3498-2.5157 1.4876-4.7334 4.8585-1.056 1.6052-2.1874 3.2541-2.5142 3.6642-0.87975 1.1043-1.943 1.7703-2.8264 1.7703-1.6648 0-2.3542-0.82115-3.8438-4.5787-1.0402-2.6239-1.3408-3.271-1.5199-3.271-0.0753 0-0.36796 0.43023-0.65029 0.95606-0.48742 0.90775-0.7933 1.8157-1.7783 5.2784-0.2354 0.82747-0.65127 1.9452-0.92421 2.4838-1.073 2.1174-3.1567 3.6932-5.1566 3.8996-2.1107 0.21785-5.3289-0.56036-8.124-1.9645l-1.4811-0.74408-0.0103 4.455c-5e-3 2.4503-0.0786 5.069-0.16199 5.8194-0.0835 0.75039-0.12175 1.3943-0.0851 1.4309 0.0365 0.0366 0.67062-0.14457 1.4089-0.40256 0.73832-0.258 1.3678-0.44373 1.3987-0.41274 0.0309 0.0309-0.39246 0.32279-0.94098 0.64843-0.54857 0.32565-0.9992 0.65156-1.0014 0.72425 0 0.0727 0.87912 0.19392 1.9584 0.26939 3.1064 0.21721 3.5452 0.46493 0.86102 0.48603l-2.3091 0.0182 1.5912 0.81374c2.2054 1.1279 3.9977 2.4473 5.5843 4.1112 0.74226 0.77841 2.282 2.3985 3.4217 3.6003 2.1726 2.291 4.2761 4.0416 6.797 5.6569l1.5044 0.96398 1.5147-0.1272c1.9542-0.16411 2.6324-0.35651 5.4706-1.5518 1.2901-0.54334 2.5818-0.9879 2.8704-0.9879 0.85354 0 2.1756 0.73739 3.969 2.2136 2.7373 2.2533 4.8295 3.6935 5.9069 4.0661 0.68293 0.23614 1.6474 0.35141 2.9776 0.35584 1.8682 6e-3 2.0408-0.0303 3.4217-0.72555 0.79979-0.40267 2.1676-1.2178 3.0395-1.8115 1.7949-1.2221 2.4923-1.3388 4.5049-0.75367 1.4267 0.41474 1.8268 0.29303 4.2252-1.2855 2.7121-1.7849 4.76-2.4673 7.3741-2.4571 1.5566 6e-3 2.7021 0.26884 3.0104 0.6906 0.5176 0.70784 4.8814-2.4761 11.306-8.2492 0.77649-0.69777 1.9087-1.6541 2.516-2.1252 1.9373-1.5029 2.8125-2.4459 3.0342-3.2696 0.11532-0.42834 0.1644-0.8241 0.10906-0.87946-0.17611-0.17612-1.5544 0.99455-2.2621 1.9214-0.37555 0.49187-0.68285 0.83151-0.68285 0.75474 0-0.41882 0.70705-1.3842 1.5275-2.0854l0.9342-0.7985-0.74454-0.13968c-0.40949-0.0768-1.0313-0.0793-1.3818-5e-3 -0.47739 0.10049-0.5819 0.076-0.4166-0.0977 0.12137-0.1275 0.89901-0.25026 1.7281-0.2728l1.5074-0.041 0.34916-1.8115c0.19202-0.99632 0.48623-2.5214 0.65376-3.389 0.77066-3.9912 1.3944-8.3855 1.1901-8.3845-1.0076 5e-3 -1.9232 0.57401-3.8323 2.3804-2.3384 2.2128-3.9399 3.2593-5.2056 3.402-1.2073 0.13608-1.9165-0.28478-3.2187-1.9102-1.2509-1.5614-1.6766-1.9626-2.2754-2.1447-0.62789-0.19091-2.3894 0.53501-4.4328 1.8268-2.4318 1.5373-3.216 1.8695-4.4259 1.8746-0.5695 3e-3 -1.6111 0.17771-2.3147 0.38951-2.0018 0.60263-2.4927 0.66232-3.412 0.41479-1.669-0.44941-2.3986-1.8617-2.4257-4.6948-9e-3 -0.96769 0.11347-1.7684 0.37465-2.4453 0.58208-1.5084 2.9679-4.9948 3.9929-5.8347 0.49588-0.40637 1.0333-0.99352 1.1943-1.3048 0.27564-0.53304 0.26671-0.57289-0.15405-0.68568-0.91802-0.24609-6.5518-0.12729-7.8312 0.16515-1.3252 0.30293-4.8586 0.64356-8.8298 0.85125-2.6016 0.13605-2.9926 0.02767-3.6214-1.0035-0.82429-1.3519-0.37933-3.3465 1.3779-6.1763 1.1876-1.9125 1.1923-2.4403 0.0425-4.7508-1.0159-2.0411-1.1515-2.5513-1.4065-5.2934-0.29351-3.1554 0.13239-3.8228 2.7591-4.3233 0.7756-0.14778 1.5355-0.34529 1.6887-0.4389 0.61411-0.37532 3.197-2.5712 3.197-2.718 0-0.0864-0.2137-0.41311-0.47487-0.72603-0.73351-0.87883-1.143-1.7972-1.6561-3.7145-0.69078-2.5813-1.66-4.9656-2.1617-5.3179-0.24054-0.16894-0.81484-0.55284-1.2763-0.85311-0.46143-0.30027-1.2115-1.0154-1.6668-1.5891-0.49648-0.62554-1.1593-1.1896-1.6555-1.4089-3.2491-1.4361-3.6295-1.7057-4.7289-3.3516-1.1531-1.7264-3.804-8.0992-4.0177-9.6585-0.24294-1.7724 0.73746-2.8565 3.1398-3.4719 1.2069-0.30918 1.5747-0.30622 3.8433 0.03093 0.62703 0.09319 0.74737 0.04067 0.95608-0.41741 0.35981-0.78971 0.32763-0.89031-0.90529-2.8307-1.7332-2.7276-2.117-3.9141-2.4695-7.6347-0.32024-3.3799 0.082-5.2623 1.294-6.0565 0.92489-0.60601 1.8885-0.57704 3.6116 0.10854 1.4912 0.5933 1.7313 0.63021 3.7236 0.5724l2.1296-0.06179 2.8911 1.6097c3.0561 1.7016 3.5278 2.1198 4.6508 4.1235 0.80966 1.4446 1.3834 1.8134 3.057 1.9651 1.0518 0.09538 1.2594 0.04749 1.9903-0.45905 1.2179-0.84403 2.9555-2.8108 3.1117-3.5223 0.14397-0.65545-0.31257-1.468-2-3.5596-1.3744-1.7035-1.9489-4.4922-1.2622-6.1265 0.87495-2.0825 3.3467-3.1107 6.2588-2.6036 3.0375 0.52895 5.025 1.4957 7.422 3.61 1.2089 1.0663 1.4748 1.1707 4.3479 1.7066 2.5935 0.48379 3.6304 1.0968 6.0646 3.5857 2.3689 2.4221 3.6017 3.156 5.6072 3.3378 1.5278 0.13854 2.4194-0.31939 3.8954-2.0005 1.2134-1.3821 2.6636-2.2366 4.898-2.8862 2.6738-0.77729 4.1446-0.35767 5.2614 1.5011 0.82497 1.3731 1.0689 2.5555 1.0689 5.1823 0 2.1085 4e-3 2.1274 0.61523 2.6981 1.7014 1.5894 4.5794 2.1857 7.3716 1.5274 1.6398-0.38658 5.4831-0.73742 9.6168-0.87786 3.5696-0.12128 4.0464 0.03161 4.7824 1.5333 0.42415 0.86534 0.45887 1.2374 0.52777 5.6563 0.0412 2.6015 0.15009 4.8736 0.24337 5.0492 0.0933 0.17554 0.98357 0.65652 1.9784 1.0689 2.1469 0.88992 3.0689 1.5273 4.855 3.3564 2.9432 3.0141 3.0197 3.2843 3.0158 10.647 0 5.9591-0.0351 6.1634-1.0671 6.9301-0.47982 0.35627-0.91948 0.43213-2.861 0.49377l-2.2941 0.07282-0.6001 0.93522c-1.3236 2.0626-1.6962 3.1991-1.7247 5.2613-0.0289 2.065-0.17832 2.547-1.2616 4.0663-0.64613 0.90623-0.66199 0.97131-0.37312 1.53 0.47552 0.91959 1.5966 1.7794 3.7052 2.8416 2.049 1.0323 5.1082 3.4108 6.6819 5.1953 1.0728 1.2164 1.6007 2.2654 2.4073 4.7835 0.55346 1.7278 0.68383 2.5541 0.92097 5.837 0.15193 2.1033 0.3648 4.5035 0.47307 5.3338 0.38662 2.9664 0.48604 6.2853 0.22601 7.5478-0.23829 1.1573-0.9819 2.8798-1.8485 4.282-0.57038 0.92307-1.4344 1.3272-2.5192 1.1785-1.2812-0.17561-1.7573-0.48493-4.036-2.6221-1.1334-1.063-2.2034-1.9327-2.3777-1.9327-0.17446 0-1.0302 0.6793-1.9018 1.5096-1.8733 1.7845-1.9652 1.8016-4.8051 0.8919-2.7666-0.88623-3.2193-0.72905-4.8407 1.6809-0.7039 1.0464-1.7766 1.8467-2.7404 2.0448-0.37952 0.078-1.121-0.0317-1.9548-0.28925-1.5098-0.46637-1.7705-0.43571-3.9408 0.46349l-1.4752 0.61125-1.3696 2.7338c-0.9678 1.9319-1.4324 3.1173-1.5838 4.0412-0.69014 4.209-1.2068 6.256-2.8664 11.357-0.32153 0.98834-0.54634 1.8352-0.49957 1.882 0.0468 0.0468 0.29485-0.11388 0.55126-0.35705 0.97736-0.92692 2.3354-1.0661 3.4004-0.3484 1.8976 1.2788 3.5835 7.5771 2.5499 9.526-0.43896 0.82778-1.5372 1.7718-2.8142 2.4189-1.4881 0.75408-3.1808 2.0835-3.4056 2.6747-0.62253 1.6374-0.63107 2.4034-0.0547 4.9199 0.30803 1.3449 0.58242 2.4762 0.60979 2.514 0.0274 0.0379 0.77834 0.23118 1.6689 0.42969 4.9763 0.94199 0.19834 0.16684 7.1666 1.6078 1.984 0.40964 6.2019 1.6211 6.0774 1.7456-0.0351 0.0352-0.60185-0.0259-1.2592-0.13574-0.65744-0.10983-2.5992-0.29022-4.3151-0.40088-4.0396-0.26051-13.597-1.3405-17.857-2.0178-1.3525-0.21505-3.7527-0.48285-5.3338-0.59511-4.5632-0.32399-7.1224-0.58916-9.7517-1.0104-2.2341-0.35796-3.6727-0.39626-16.404-0.43666-7.6753-0.0244-17.035 0.0199-20.799 0.0983-6.6265 0.13801-8.7254 0.25989-14.693 0.85323-2.9289 0.29121-5.042 0.44735-14.995 1.1081-6.6619 0.44228-13.947 1.3191-18.316 2.2045-2.7713 0.5616-11.483 1.854-14.291 2.12-0.71956 0.0682-2.4857 0.30497-3.9249 0.52618-3.4999 0.53798-6.2172 0.61204-9.9394 0.27085zm13.864-3.2022c0.22828-0.0384 0.4046-0.75794 0.72301-2.951 0.54337-3.742 0.98576-5.9494 1.5749-7.858l0.47413-1.5361-1.665-0.40174 0.92072-0.0242 0.92069-0.0241 0.76847-2.4202c0.42261-1.3311 0.797-2.3917 0.83188-2.3568 0.0504 0.0505-0.38086 3.2626-0.57885 4.3109-0.0495 0.26213-0.0399 0.26479 0.93702 0.26479 0.66054 0 0.69933-0.0464 1.3441-1.608 0.36512-0.88439 0.69751-1.5744 0.73865-1.5332 0.0412 0.0411-0.0656 0.67976-0.23706 1.4192-0.43909 1.8934-0.43278 1.921 0.44299 1.9374 1.3927 0.026 1.6775 0.35877 0.32042 0.37426l-1.2395 0.0142-0.4078 1.2077-0.40786 1.2076 0.84222 0.0116c0.46325 6e-3 1.2045 0.0865 1.6473 0.17814l0.80511 0.16652-0.82733 0.0232c-1.832 0.0513-2.7215 0.26847-2.8947 0.70687-0.092 0.23282-0.40485 0.95379-0.69525 1.6022l-0.52797 1.1789 3.335-0.22393-1.794 0.44688c-1.7587 0.43809-1.8007 0.46261-2.1344 1.2486-0.76698 1.8059-0.92588 1.6492 1.8575 1.8314l2.4735 0.16184-1.4089 0.12918c-0.7749 0.071-1.9267 0.0686-2.5595-5e-3l-1.1506-0.13452-0.30703 0.76737c-0.32099 0.80219-0.62198 1.0608-0.42451 0.36481 0.0628-0.2214 0.1656-0.5837 0.22841-0.80511 0.0794-0.27991 0.0181-0.40255-0.20129-0.40255-0.19035 0-0.31897 0.17961-0.32429 0.45287-4e-3 0.24909-0.12891 0.78924-0.27567 1.2004-0.14677 0.4111-0.23519 0.77917-0.1964 0.81792 0.0386 0.0387 1.2723-0.17976 2.7413-0.48557 1.469-0.30581 3.521-0.66849 4.56-0.80596l1.8891-0.24995-0.13402-2.4273c-0.0921-1.6691-0.0429-3.1502 0.15766-4.7419 0.16044-1.2731 0.36208-2.9487 0.4481-3.7236l0.15636-1.4089 0.14964 1.4089c0.13394 1.2608 0.0842 2.563-0.3456 9.0357l-0.11884 1.7898 0.67148-0.13586c4.2296-1.0946 6.296-1.5376 10.858-1.7329 0.14152 0 0.18189-0.24032 0.1099-0.65414-0.18854-1.0843-1.1012-8.31-1.4324-11.341-0.17053-1.5605-0.31008-3.7886-0.31008-4.9512s-0.0586-2.8068-0.13017-3.6538l-0.13015-1.5399-2.2348-0.0201c-2.5809-0.0231-2.2146-0.33044 0.43209-0.36242 1.785-0.0216 1.7728-0.0123 1.5406-1.1736l-0.11999-0.6-2.0376-0.13352c-1.1206-0.0735-2.1264-0.22235-2.2349-0.33091-0.23866-0.23862 1.2862-0.24214 2.9022-7e-3 0.60888 0.0887 1.1335 0.13864 1.1659 0.11095 0.0322-0.0277-0.29889-1.5334-0.73613-3.3461-0.43719-1.8127-0.89949-4.2468-1.0272-5.4091-0.12776-1.1624-0.40399-3.1097-0.61386-4.3274-0.20983-1.2177-0.40807-2.4769-0.44051-2.7983-0.0544-0.53829-0.18554-0.62649-1.6692-1.1217-0.8856-0.29561-1.9272-0.70241-2.3147-0.904-1.7739-0.92298-4.0767-2.6612-5.7322-4.327-0.99401-1.0002-1.8771-1.8185-1.9624-1.8185-0.0853 0-0.15513 0.1688-0.15513 0.3751 0 0.20631-0.23879 0.6139-0.53064 0.90574-0.62668 0.62668-1.4496 0.68983-2.3246 0.17841-0.57345-0.33511-1.9863-2.0426-2.7251-3.2932-0.18888-0.31977-0.3918-0.58159-0.45096-0.58185-0.0592-2e-4 -0.0783 0.61366-0.0425 1.3642 0.0701 1.4686-0.3882 3.8665-0.88332 4.6222-0.26409 0.40303-0.264 0.51982 0 1.0089 0.62781 1.1594 0.65269 1.1766 1.107 0.76545 0.22819-0.20648 0.41484-0.2819 0.41484-0.1676s-0.13587 0.32058-0.30189 0.45839c-0.37632 0.31232-0.37344 0.59294 0.0111 1.102 0.26598 0.35186 0.35196 0.36593 0.74835 0.12245 0.44321-0.27223 0.44398-0.2707 0.0731 0.14641-0.3674 0.41323-0.36388 0.44049 0.17993 1.3871 2.0088 3.4969 3.3146 6.1171 3.3146 6.6506 0 0.20454-3.8002-5.3756-4.2417-6.2284-0.36573-0.70649-0.41652-0.73387-0.9904-0.53382-0.33269 0.11598-0.6049 0.27268-0.6049 0.34822 0 0.0756 0.40684 0.76864 0.90405 1.5402 1.0067 1.5622 2.7595 5.3309 3.9756 8.5481 1.1435 3.0251 1.126 3.5001-0.43792 11.906-0.34299 1.8435-0.76183 4.4701-0.93077 5.837s-0.44565 3.1192-0.61484 3.8941c-0.1692 0.77491-0.51845 2.5864-0.77607 4.0255-0.4716 2.6345-1.3817 7.0333-1.6409 7.9308-0.15217 0.527-0.32475 0.51502 1.9362 0.13436zm10.996-24.972c-0.076-0.88561-0.0386-2.6971 0.0836-4.0255 0.122-1.3284 0.3314-3.9551 0.46534-5.837l0.2435-3.4217 0.23603 2.0128c0.4511 3.8466 0.4469 4.062-0.16237 8.306-0.32948 2.2952-0.62807 4.2637-0.6635 4.3744-0.0356 0.1107-0.12664-0.52331-0.20266-1.4089zm-8.5986 20.772c0.16297-0.62577 0.23372-1.2004 0.15723-1.2768-0.21746-0.21748-0.36058 0.0271-0.56698 0.96904-0.10497 0.47909-0.2423 1.0403-0.30514 1.2471-0.0776 0.25516-0.0288 0.3475 0.15213 0.28724 0.1465-0.0488 0.39973-0.60079 0.56276-1.2266zm118.43-1.0805c-0.88644-2.1742-1.0981-4.3911-0.58713-6.1488 0.27804-0.95639 0.53669-1.322 1.6864-2.3838 0.74694-0.68981 1.6497-1.4295 2.0062-1.6438l0.6481-0.3896-0.38945-0.53719c-0.39378-0.54317-0.83149-2.1069-0.70666-2.5244 0.0373-0.12475 0.11832-0.7829 0.18006-1.4626l0.11218-1.2357-1.3532 0.68161c-1.5789 0.79533-2.1979 0.8465-2.9626 0.24494-0.53978-0.42457-0.55334-0.48278-0.44523-1.9121 0.0613-0.81082 0.0825-1.4742 0.047-1.4742-0.0356 0-0.62511 0.27815-1.3103 0.61813-0.68525 0.33997-1.7588 0.7224-2.3856 0.84984-0.6269 0.12745-1.2064 0.3248-1.2876 0.43857-0.0814 0.11377-0.15565 0.61443-0.16513 1.1126-0.0309 1.6324-0.36182 1.8529-0.37736 0.2516l-0.0141-1.4592-3.1198-0.032 1.3074-0.28336c0.7191-0.15585 1.3984-0.31805 1.5096-0.36044 0.12325-0.047 0.17761-0.90365 0.1393-2.1956l-0.0629-2.1185-0.88975-0.13342c-0.81649-0.12244-3.8352-1.4651-3.6686-1.6317 0.0394-0.0396 0.61159 0.0948 1.271 0.29876 0.65946 0.20395 1.6609 0.43336 2.2255 0.5098l1.0265 0.13897 0.13085-1.2519c0.072-0.68855 0.14015-1.7141 0.15147-2.2791 0.0197-0.97677 0.0288-0.99318 0.18375-0.33447 0.0897 0.38098 0.22681 1.412 0.30463 2.2913l0.14149 1.5986 1.6372-0.11079c2.296-0.1554 2.8728-0.39811 3.0379-1.2783 0.0729-0.38833 0.18216-0.83548 0.24287-0.99367 0.0705-0.18372-0.0245-0.29223-0.26342-0.30038-0.31227-0.0107-0.29922-0.0427 0.0791-0.19479 0.24908-0.10012 0.45423-0.34345 0.45595-0.54075 0-0.1973 0.0999-0.49458 0.21823-0.66064 0.16384-0.22994 0.18829-0.14598 0.10257 0.35224-0.11106 0.64553-0.10218 0.65415 0.67324 0.65415 0.77478 0 0.79009-0.0148 1.0927-1.0567 0.16882-0.58119 0.58911-2.4559 0.93398-4.166 0.74647-3.7015 0.80181-3.845 2.3944-6.2098 0.68374-1.0152 1.7009-2.7303 2.2603-3.8113 0.55946-1.081 1.8911-3.1827 2.9592-4.6705 2.2085-3.0763 2.4698-3.4734 3.385-5.1446 0.36374-0.66421 0.66339-1.0965 0.66585-0.96066 0.0105 0.55666-1.1196 3.1797-2.8201 6.5462-0.9926 1.965-1.8047 3.6218-1.8047 3.6818 0 0.06 0.38495-0.11612 0.85539-0.39124 1.2858-0.75179 2.4395-0.95276 3.9216-0.68307 1.4807 0.26944 1.7031 0.13939 2.6794-1.567 0.79446-1.3887 1.9158-2.3715 3.1878-2.794 0.89353-0.29678 1.2262-0.31204 2.3924-0.10971 0.74502 0.12924 1.7622 0.39241 2.2603 0.58482l0.9058 0.34983 1.3498-1.2599c1.7599-1.6427 3.125-2.0506 4.6835-1.3994 0.37759 0.15778 1.6364 1.1994 2.7974 2.3147 1.1609 1.1153 2.202 2.0278 2.3134 2.0278 0.11152 0 0.50279-0.6112 0.86951-1.3582 0.66235-1.3494 0.66656-1.3761 0.63228-4.0758-0.0184-1.4947-0.18464-3.7139-0.36822-4.9316-0.18366-1.2177-0.40836-3.5726-0.49954-5.2332-0.1386-2.528-0.26599-3.3303-0.78263-4.9321-0.81673-2.5322-1.4597-3.4881-3.4748-5.1667-2.1494-1.7904-2.4938-2.0201-4.8035-3.2033-2.4548-1.2574-4.2-2.912-4.7177-4.4725-0.43081-1.2985-0.31114-2.1197 0.46482-3.1909 1.004-1.386 1.1213-1.7426 1.247-3.7915 0.14281-2.3274 0.83785-4.3333 2.1931-6.3291 1.1785-1.7355 1.8108-2.1198 3.5298-2.1459 0.77492-0.01176 1.7033-0.03437 2.0631-0.05031l0.65411-0.029v-4.8809c0-2.7633-0.0921-5.2085-0.21076-5.636-0.14807-0.53292-0.75466-1.3081-2.062-2.635-1.772-1.7985-1.9381-1.9131-3.8319-2.6438-3.623-1.3979-3.7502-1.6266-3.7766-6.7875-0.0114-2.1365-0.0789-4.3827-0.15097-4.9916l-0.13106-1.107-2.6166 0.0013c-3.0149 0.0013-7.68 0.39369-8.8561 0.74458-0.44282 0.13211-1.8028 0.2423-3.0222 0.24487-2.1441 0.0045-2.2686-0.01982-3.7845-0.73974-2.119-1.0063-3.2981-1.889-3.9037-2.9224-0.45517-0.77668-0.52056-1.1656-0.64827-3.8564-0.17083-3.5984-0.39241-4.1523-1.5935-3.9836-1.7828 0.25046-3.0739 0.95826-4.6455 2.5468-1.8393 1.859-3.0192 2.4889-4.8629 2.5957-3.1856 0.1846-5.2646-0.77813-8.2769-3.8327-2.4534-2.4878-3.0262-2.812-5.8095-3.2879-2.4323-0.41585-3.2183-0.77227-4.9284-2.2348-1.9036-1.628-2.6033-2.0213-4.425-2.4872-2.2552-0.57678-3.5929-0.53952-4.2508 0.1184-0.42771 0.42771-0.5006 0.65178-0.41638 1.2798 0.14611 1.0892 0.62355 1.9922 1.7707 3.3489 2.6845 3.175 2.4996 5.5084-0.68572 8.6529-2.4346 2.4034-3.8205 2.9174-6.6635 2.4716-2.299-0.36052-3.6141-1.3613-4.7528-3.6171-0.32583-0.64546-0.79585-1.2966-1.0444-1.4469-0.24857-0.15024-1.3124-0.76247-2.3641-1.3604l-1.9122-1.0872-2.3146-0.01047c-2.0276-0.0091-2.4685-0.07542-3.5548-0.53436l-1.2401-0.52391-0.11579 0.4315c-0.1997 0.74424-0.11841 2.9854 0.16611 4.5806 0.32094 1.7992 0.78876 2.9295 1.8791 4.54 1.2843 1.897 1.4893 2.4146 1.483 3.7434-4e-3 0.86964-0.139 1.4778-0.47027 2.1216-0.85008 1.6518-1.9168 2.0934-4.3869 1.8159-1.7598-0.19764-2.9992-0.05085-3.1625 0.37452-0.15023 0.39154 1.9986 5.8221 2.9718 7.5103 0.95607 1.6585 1.1967 1.8682 2.9927 2.6089 2.0619 0.85025 2.6864 1.2781 3.5712 2.4464 0.44835 0.59204 1.1518 1.2147 1.6778 1.4851 0.49815 0.25607 1.1565 0.7298 1.4629 1.0527 0.71725 0.7558 1.8149 3.3666 2.5912 6.1636 0.53355 1.9223 0.73845 2.3567 1.6 3.3919 0.82043 0.98585 0.98799 1.3237 0.98799 1.9919 0 1.2294-0.4314 1.8322-2.7129 3.7907-2.0908 1.7948-3.3109 2.4284-4.6765 2.4284-0.26011 0-0.52725 0.14149-0.59362 0.31442-0.26105 0.6803 0.38963 3.4297 1.2616 5.3307 1.4357 3.1301 1.5 4.637 0.27165 6.365-0.67362 0.94754-1.8021 3.2432-1.8023 3.6665-1.2e-4 0.21229 0.20426 0.2511 0.85527 0.16239 0.47048-0.06411 2.2594-0.21753 3.9752-0.34092 1.7158-0.1234 3.799-0.37663 4.6293-0.56274 1.1143-0.24978 2.4845-0.33896 5.2332-0.34058 3.4576-0.0021 3.7892 0.03016 4.6426 0.45069 1.241 0.61156 1.8962 1.7469 1.7258 2.9902-0.17658 1.2883-0.74213 2.238-2.1448 3.6016-1.308 1.2716-3.0407 3.6543-3.5585 4.8934-0.28477 0.68159-0.25585 2.5796 0.0468 3.0692 0.0541 0.0875 0.6867-9e-3 1.4058-0.21485 0.71918-0.20566 2.0273-0.43671 2.9071-0.51345 1.5363-0.13402 1.6894-0.19567 3.8727-1.5602 5.0613-3.1632 7.0056-3.0485 9.6332 0.56802 0.69113 0.95125 1.3882 1.7082 1.573 1.7082 0.48958 0 2.7533-1.3754 4.2451-2.5792 1.6819-1.3572 2.7223-1.8493 3.9691-1.8774l1.0068-0.0227 0.23428-2.44c0.43496-4.5307 0.51806-4.2331-2.253-8.0678-0.8768-1.2134-2.3095-3.3871-3.1836-4.8306-1.8767-3.0989-4.0692-6.2424-7.1147-10.201-1.2177-1.5827-2.3457-3.0616-2.5065-3.2864-0.41236-0.57629 2.4601 2.0362 5.3412 4.8578 2.7136 2.6576 4.9774 5.2499 6.5624 7.5145 0.58108 0.83026 2.0191 2.7115 3.1957 4.1805 1.1766 1.469 2.3926 3.1719 2.7024 3.7841 0.5465 1.0802 0.55998 1.1833 0.45419 3.4799l-0.10906 2.3668 1.2219 0.54007c1.4813 0.65468 1.4314 0.92793-0.062 0.33932-0.84952-0.33485-1.0985-0.36688-1.2308-0.15834-0.2719 0.42867-0.22763 0.47873 1.1866 1.3419 0.74724 0.45605 1.2418 0.82974 1.099 0.83041-0.34286 2e-3 -1.7919-0.74213-1.9527-1.0023-0.29429-0.47616-0.4535-0.11613-0.55766 1.2609-0.11385 1.5056-0.58134 4.2963-1.5741 9.3973-0.31171 1.6016-0.54037 2.9383-0.50811 2.9706 0.0322 0.0323 0.63904-0.20384 1.3484-0.52467 3.2766-1.482 6.3484-2.0022 9.714-1.6451 1.2339 0.13091 2.4046 0.28441 2.6015 0.34111 0.33476 0.0964 0.3502-0.0719 0.23699-2.5792-0.0666-1.4753-0.20219-5.3543-0.30129-8.62-0.0991-3.2657-0.28855-7.9667-0.42103-10.447-0.21265-3.98-0.20214-4.7593 0.0896-6.6421 0.18177-1.1732 0.3819-2.6765 0.44471-3.3407 0.3979-4.2089 1.2367-6.2524 3.4738-8.4626 1.9845-1.9607 3.0506-2.7148 8.0949-5.7263 4.0779-2.4345 6.4901-4.0211 8.2524-5.4277 1.6476-1.3151 1.7192-1.3267 0.66874-0.10843-2.2815 2.646-5.0164 5.023-11.212 9.7447-2.4387 1.8586-4.5705 4.1193-5.2612 5.5794-0.65209 1.3784-1.0948 3.4034-1.0994 5.0288 0 0.67739-0.14762 2.036-0.32378 3.0191-0.33839 1.8885-0.28803 6.4778 0.11897 10.845 0.10317 1.107 0.24646 5.1599 0.31841 9.0064l0.13084 6.9936 0.5677-0.8547c0.31223-0.47008 1.0983-1.4887 1.7469-2.2636 0.64858-0.77491 1.6955-2.0882 2.3266-2.9185 1.5405-2.0268 2.1533-2.7513 2.1546-2.547 0 0.0936-0.16894 0.41062-0.37663 0.70446s-0.8063 1.3899-1.3302 2.4358c-0.524 1.0458-1.2919 2.4497-1.7064 3.1198-0.41459 0.67005-1.4993 2.6674-2.4105 4.4387-0.91116 1.7712-1.8402 3.3789-2.0644 3.5726-0.96381 0.83253-2.1022 0.11243-1.9239-1.217l0.10368-0.77312-1.5358 0.75412c-3.7538 1.8432-6.1234 2.2468-9.992 1.702-1.327-0.18688-2.5537-0.38006-2.7261-0.42929-0.25277-0.0722-0.42322 0.40733-0.88079 2.478-0.3121 1.4121-0.83463 3.2921-1.1613 4.1777-2.5933 7.0318-2.6475 7.2332-2.7879 10.366l-0.13085 2.9185-2.4451 7.3034c-1.3448 4.0169-2.4452 7.3889-2.4452 7.4934 0 0.10452 0.36148 0.37443 0.80323 0.59981l0.80327 0.40978 0.3051-0.65728 0.30511-0.65729-0.10168 0.83874c-0.0683 0.56358-0.0193 0.87203 0.14959 0.94017 0.14981 0.0605 0.10906 0.10785-0.1009 0.11731-0.20961 9e-3 -0.35225 0.17483-0.35225 0.40845 0 0.2159 0.15852 0.48487 0.35225 0.5977 0.31854 0.18553 0.31112 0.20575-0.0775 0.21128-0.33689 4e-3 -0.50236 0.22825-0.76612 1.0347-0.18507 0.56572-0.30871 1.0536-0.27477 1.0842 0.11343 0.10233 4.6766 0.69198 5.798 0.74921l1.107 0.0565 0.1006-3.4217c0.0763-2.5921 0.14346-3.2344 0.27726-2.6495 0.0972 0.42471 0.13574 1.9778 0.0857 3.4514l-0.0909 2.6792 0.71936 0.11901c0.39562 0.0655 1.184 0.12 1.752 0.12122 1.1684 3e-3 4.9924 0.56903 8.7292 1.2932 3.761 0.7289 3.5169 0.84059 2.6752-1.2239zm-2.1409-7.2124c0.35448-1.0972 0.75306-1.6179 1.9798-2.5863 0.70687-0.558 0.65247-0.45835-0.45289 0.8303-0.69087 0.80543-1.2561 1.5806-1.2561 1.7227s-0.13411 0.43409-0.29795 0.64897c-0.24852 0.32592-0.24402 0.22382 0.027-0.61567zm-11.339-12.479c0.10738-2.338 0.79867-6.8838 1.0866-7.1453 0.0609-0.0553 0.0481 0.85039-0.0283 2.0128-0.15097 2.2906-0.86972 7.4697-1.0606 7.6426-0.0647 0.0586-0.0637-1.0709 4e-3 -2.51zm12.335-35.403c-0.24865-1.5857 0.43257-9.4718 0.90597-10.488 0.30841-0.66201 0.0206 5.9572-0.38537 8.8561-0.34994 2.5004-0.37306 2.5729-0.5206 1.6318zm-13.054-17.583c-0.9689-1.2749-1.7606-2.5238-1.7606-2.7773 0-0.2384 1.8981 2.2523 2.4085 3.1605 0.62115 1.1052 0.37052 0.95699-0.64793-0.38318zm4.3946-2.1916c-0.90965-0.61813-0.83304-0.86132 0.0938-0.29769l0.65866 0.40055 0.91261-0.74194c0.90203-0.73336 0.97084-0.58102 0.15049 0.33324-0.73226 0.81614-0.99854 0.86099-1.8155 0.30583zm-0.11694-1.2256c-0.16602-0.06311-0.86187-0.63585-1.5462-1.2728-0.6844-0.63691-2.4506-2.0942-3.9249-3.2385-3.4037-2.6417-5.6521-4.5407-7.8131-6.5988l-1.7108-1.6294 2.9768 1.9223c1.6372 1.0572 4.5809 2.878 6.5415 4.0461 1.9606 1.1681 4.1854 2.5739 4.9442 3.124 1.2953 0.93909 1.4019 0.98 1.7449 0.66962 0.20089-0.18181 0.70472-0.97983 1.1196-1.7734 0.41489-0.79354 1.3122-2.3485 1.9939-3.4555 2.7245-4.424 4.1885-7.0153 4.9151-8.6995 1.3586-3.1494 2.6385-7.2082 3.2344-10.258 0.3205-1.64 0.77032-3.6612 0.99957-4.4915l0.41687-1.5096-0.098 2.0128c-0.0539 1.107-0.15242 3.1902-0.21892 4.6293-0.1199 2.5952-0.50875 4.9503-1.3986 8.4707-0.82861 3.2781-1.5597 4.8199-5.3367 11.254-0.51987 0.88562-1.3392 2.2895-1.8207 3.1198-1.2514 2.1576-1.7507 2.7729-2.703 3.331-0.80104 0.46945-1.656 0.59744-2.3158 0.3467zm11.813-14.094c0.72425-1.7576 1.25-2.6532 0.97462-1.6605-0.18774 0.6769-1.4697 3.4217-1.5982 3.4217-0.0562 0 0.22441-0.79252 0.62355-1.7612zm4.0146-1.2726c-0.29167-0.22944-0.53007-0.56909-0.52977-0.75478 1.7e-4 -0.18569 0.26354-1.3792 0.58494-2.6523 0.32146-1.2731 0.77646-3.945 1.0112-5.9376 0.23469-1.9926 0.55626-4.257 0.7145-5.0319 0.15834-0.77491 0.35147-2.173 0.42932-3.1068 0.11757-1.4111 0.17587-1.6151 0.34489-1.2077 0.26976 0.65004 0.42222 12.83 0.17938 14.338-0.1586 0.98558-0.14273 1.1504 0.10196 1.0566 0.39705-0.15236 5.6515-3.6812 6.3766-4.2824 0.99812-0.82767 5.6596-3.0356 5.9005-2.7948 0.0508 0.05124-0.18744 0.23824-0.53031 0.41554-0.90791 0.46948-3.4677 2.615-5.5822 4.6788-2.1342 2.083-5.5141 4.7319-6.758 5.2965-1.1054 0.50177-1.5877 0.49802-2.243-0.01742zm-99.86 92.419c1.107-0.1094 2.9638-0.25362 4.1262-0.32048 10.574-1.5972-0.25579 1.1604 19.624-1.5304 0.77491-0.11199 5.0772-0.2955 9.5606-0.40783 4.4834-0.11232 8.4687-0.22596 8.8561-0.25252 0.38748-0.0266 5.1652-0.0653 10.617-0.0861 11.383-0.15583 7.7888 0.0972 15.826-0.13833l0.36778-1.4089c0.20228-0.77491 0.73219-3.0846 1.1775-5.1325 0.81613-3.7528 1.3442-5.7366 2.7059-10.164 0.67388-2.1913 0.75732-2.7237 0.89957-5.7405 0.12588-2.669 0.23974-3.5229 0.57702-4.3274 1.3278-3.1669 3.325-8.7472 3.1819-8.8903-0.0436-0.0436-0.78255 1.0341-1.6421 2.3948-2.8539 4.5175-3.3625 5.2746-5.1079 7.6026-1.588 2.1182-2.8489 3.4881-9.9845 10.848-5.0519 5.211-9.5018 7.7787-16.203 9.3495l-3.5223 0.8257-5.1326 4e-3c-5.1782 4e-3 -8.4398-0.2643-12.378-1.0177-5.0465-0.96528-11.463-3.931-14.631-6.7621-0.83308-0.74458-3.1436-3.5594-4.1797-5.0921-0.37417-0.55351-1.5594-2.1386-2.6339-3.5223-2.552-3.2865-3.0644-4.122-3.9428-6.4285-1.7324-4.5487-3.147-7.1222-4.7088-8.5666l-0.65294-0.60382 0.12861 0.54094c0.0707 0.29752 0.35187 2.1642 0.6248 4.1481 0.28027 2.0374 0.92983 5.3612 1.4926 7.6378 1.1892 4.8106 1.4946 7.1216 1.4035 10.619-0.0373 1.4391-0.0465 4.9569-0.0202 7.8173 0.19292 7.7052 0.22584 6.7527 0.24925 8.9217 0 0.0617 0.29439 0.0605 0.65415-3e-3 0.3598-0.0632 1.5599-0.20448 2.6669-0.31388zm-23.549-2.9873c0.29499-0.85793 0.58173-1.6731 0.63711-1.8115 0.0637-0.15906-0.0756-0.2516-0.37864-0.2516-0.43929 0-0.51365 0.15173-0.88799 1.8115-0.52604 2.3324-0.13917 2.487 0.62952 0.25159zm96.244-0.44965c0.13436-0.60495 0.22686-1.1138 0.20558-1.1307-0.35775-0.28407-1.7526-0.84203-1.8224-0.72899-0.19678 0.31835-0.93334 2.3698-0.93342 2.5996-9e-5 0.21264 1.1654 0.43251 2.0084 0.37887 0.19133-0.0122 0.38485-0.41175 0.54187-1.1189zm0.51099-1.9657c0.0802-0.39397-1.4074-1.3872-1.6687-1.1142-0.43353 0.45293-0.265 0.92673 0.41888 1.1775 0.96766 0.3548 1.1668 0.34471 1.2499-0.0633zm-95.361-1.1817c0.28485-0.62224 0.51793-1.2164 0.51793-1.3204s-0.33333-0.16099-0.74072-0.12664c-0.71965 0.0607-0.748 0.0939-0.99781 1.1695-0.33883 1.4586-0.34638 1.4089 0.21419 1.4089 0.39774 0 0.5847-0.21016 1.0064-1.1313zm55.587-3.0178c0.37653-0.17866 0.68156-0.38246 0.67787-0.45287-4e-3 -0.0704-0.47482-0.39974-1.0469-0.73184-0.57212-0.33211-1.596-1.2429-2.2752-2.024l-1.235-1.4202-0.98881 0.6745c-1.1849 0.80824-4.8338 2.669-5.2338 2.669-0.15603 0-0.28366 0.0761-0.28366 0.16905 0 0.21821 2.1676 0.60745 5.837 1.0482 3.7558 0.45109 3.7421 0.45088 4.5486 0.0682zm2.1941 0.12357c-0.0684-0.1107-0.34011-0.20127-0.60381-0.20127-0.26367 0-0.5354 0.0906-0.60383 0.20127-0.0742 0.12002 0.16963 0.20128 0.60383 0.20128 0.43423 0 0.67799-0.0813 0.60381-0.20128zm8.0511-0.58901c4.138-0.87778 4.8387-1.1424 5.6514-2.1343 0.37881-0.46227 0.68873-0.88643 0.68873-0.94256 0-0.0561-0.47552-0.15268-1.0567-0.21454-1.5792-0.16809-4.2197-1.0723-5.3475-1.8313l-0.99696-0.6709-2.0861 2.042c-1.1474 1.1231-2.6592 2.3953-3.3597 2.827l-1.2736 0.78501 0.87105 0.47047c0.76778 0.41469 1.062 0.4584 2.4813 0.36866 0.88564-0.056 2.8783-0.37079 4.4281-0.69955zm-7.3883-1.4618c1.3847-1.0163 5.5502-4.569 5.6426-4.8125 0.036-0.0953-0.4142-0.71855-1.0008-1.385l-1.0666-1.2117h-4.964l-2.1529 1.9391c-1.1841 1.0665-2.1778 2.0019-2.2084 2.0786-0.1577 0.39649 3.957 4.2346 4.5398 4.2346 0.0339 0 0.57851-0.37941 1.2104-0.84314zm-14.452 0.59155c0-0.0277-0.75998-0.83815-1.6866-1.801-1.0542-1.0954-1.8257-2.0967-2.0613-2.675-0.41747-1.025-0.31531-1.0154-2.2435-0.20871-0.69472 0.29068-1.7164 0.58217-2.2703 0.64778l-1.0072 0.11929 0.66011 0.40396c1.9026 1.1643 8.623 3.9073 8.6087 3.5138zm3.8498-2.0616c1.4814-0.94014 2.8134-1.7853 2.96-1.8781 0.20888-0.1323 0.11566-0.44803-0.43124-1.4608-0.38374-0.71058-0.80502-1.6316-0.9362-2.0468-0.22536-0.71316-0.28483-0.75484-1.0784-0.75595-0.46191-4.3e-4 -1.3554-0.0857-1.9857-0.18885-1.1382-0.18643-1.1566-0.18139-2.744 0.75595-0.87895 0.519-1.8804 1.0979-2.2255 1.2865-0.34509 0.18858-0.62742 0.47536-0.62742 0.63728 0 0.74257 3.5476 5.36 4.1182 5.36 0.14118 0 1.4687-0.7692 2.9502-1.7093zm26.343-0.20342c0-0.32311-1.1095 0.0918-1.7526 0.65529l-0.76333 0.66892 1.258-0.61437c0.69189-0.33789 1.258-0.65733 1.258-0.70984zm46.905 0.79654c0.142-0.17111 0.24248-0.72747 0.22322-1.2363-0.0335-0.88375-0.56719-3.0819-0.74831-3.0819-0.0475 0-0.0757 0.65666-0.0625 1.4592 0.0181 1.098 0.0618 1.3098 0.17744 0.85543 0.13792-0.54198 0.15611-0.50712 0.17748 0.34035 0.0258 1.0267-0.18812 1.3395-0.5874 0.85841-0.36624-0.44128-0.47658-2.0818-0.22037-3.2764 0.23698-1.1051 0.0947-2.071-0.19585-1.3293-0.23947 0.61125-0.20437 3.7785 0.0502 4.5343 0.39996 1.1873 0.72729 1.4291 1.1861 0.87625zm-46.326-4.4189c1.4915-2.1713 3.3588-5.4887 3.1865-5.661-0.0584-0.0583-1.9031 0.47998-4.0995 1.1962-4.808 1.5679-6.0974 1.8776-9.1729 2.2032l-2.3617 0.24998 1.2227 0.98973 1.2227 0.98975 0.46106-0.58775c0.25354-0.32328 0.65701-0.8142 0.89653-1.091l0.43552-0.50319-0.43523 0.90574c-0.23933 0.49816-0.56744 1.0564-0.72904 1.2405-0.265 0.30192-0.20181 0.38867 0.64509 0.88496 0.78074 0.45757 4.5614 1.8024 6.0359 2.1471 0.49099 0.11479 0.84496-0.27491 2.6923-2.9643zm1.9041 2.1198c0.79302-0.54996 2.0637-1.563 2.8239-2.2512 1.2355-1.1186 1.5182-1.5273 2.6669-3.8562 0.70665-1.4328 1.2849-2.7178 1.2849-2.8556s-0.35548-0.30749-0.78997-0.37697c-0.61459-0.0983-1.1398 0.0121-2.365 0.49712-0.86624 0.34288-1.6744 0.72781-1.7959 0.85538-0.12144 0.12757-0.47172 0.95655-0.77829 1.8422-0.77306 2.2329-1.48 3.569-2.9064 5.4927l-1.2253 1.6526h0.82171c0.65766 0 1.1095-0.19961 2.2635-0.99993zm-38.85-1.7027c1.0982-0.55504 1.6242-0.93109 1.5779-1.1281-0.0381-0.16253-0.22162-0.998-0.40759-1.8566l-0.3381-1.5612-2.4103-1.2158c-2.0154-1.0166-2.6366-1.2358-3.7917-1.3381l-1.3814-0.12235 0.14088 0.68524c0.54501 2.6513 2.1219 7.138 2.6424 7.5186 0.50622 0.37016 2.0476-0.0112 3.968-0.98178zm16.552-1.021 2.002-1.4089-3.1983-0.0556c-1.7591-0.0306-3.242-0.012-3.2952 0.0412-0.1265 0.12652 0.81031 1.7195 1.4777 2.5126 0.32098 0.38144 0.61734 0.56318 0.76736 0.47053 0.13445-0.083 1.1454-0.78497 2.2465-1.5599zm-22.53-0.42502c-0.57059-1.1439-1.252-3.4005-1.4262-4.7231l-0.12136-0.92136-1.5528-0.21346c-0.85402-0.1174-1.7224-0.28285-1.9298-0.36767-0.24475-0.10011-4e-3 0.36869 0.69009 1.3361 1.4272 1.9931 4.6642 6.0402 4.7569 5.9474 0.0408-0.0407-0.14689-0.51675-0.41681-1.0579zm10.663-0.71816c1.1402-0.46269 2.0346-0.90361 1.9874-0.97984-0.0471-0.0763-0.54149-0.19906-1.0986-0.27297-0.55715-0.0739-1.7366-0.34398-2.6211-0.60016-0.88443-0.25618-1.6097-0.41143-1.6116-0.34501-6e-3 0.20974 1.0989 3.0392 1.1868 3.0392 0.0462 0 1.0169-0.37857 2.1571-0.84126zm68.535-0.67345c0.65174-0.16889 1.7064-0.53514 2.3437-0.81388l1.1587-0.50681 0.63106-2.004c0.34706-1.1022 0.60712-2.004 0.57791-2.004-0.0292 0-0.56984 0.31111-1.2013 0.69137-1.2557 0.75614-2.6021 1.1201-4.1437 1.1201h-0.99644v1.9121c0 1.2624 0.0756 1.9121 0.22252 1.9121 0.1224 0 0.75579-0.13817 1.4076-0.30705zm-25.028-4.5032c0.0279-0.0665-0.40249-0.0896-0.95607-0.0513-0.68126 0.0472-1.0065 0.15837-1.0065 0.344 0 0.15085-0.40918 1.0705-0.90932 2.0436l-0.90931 1.7694 1.8654-1.9924c1.026-1.0958 1.8881-2.0469 1.9158-2.1134zm-32.193 2.6911c-0.0585-0.0585-0.82081-0.45255-1.694-0.87564-0.87323-0.42309-2.4934-1.3628-3.6004-2.0882-3.4044-2.2309-3.0588-2.1633-5.9605-1.1651-2.1065 0.72465-2.741 0.85698-4.2356 0.8833-0.96685 0.017-1.6949 0.0889-1.6179 0.15976 0.077 0.0708 0.81763 0.42297 1.6459 0.78251 2.1024 0.91271 5.6691 1.7499 8.866 2.0811 2.7302 0.28284 6.7941 0.41977 6.5966 0.22226zm13.613-0.52142c1.1002-0.22091 2.0888-0.45633 2.1969-0.52315 0.21978-0.13584-1.3497-0.61316-2.587-0.78678-0.66732-0.0936-1.0961 0.0281-2.5053 0.7111-0.9351 0.45324-1.8129 0.82406-1.9506 0.82406-0.13771 0-0.31428 0.10344-0.39241 0.22985-0.19472 0.31506 2.6213 0.0704 5.2384-0.45508zm8.0729-2.3896c3.3535-1.1198 7.938-2.8909 7.9396-3.0674 6e-3 -0.68259-4.0902-0.14117-6.0785 0.80337-1.2341 0.58626-4.8404 3.0674-4.4585 3.0674 0.10533 0 1.2741-0.36151 2.5973-0.80335zm-43.891-0.88467c-0.55144-0.3749-1.0278-0.65919-1.0586-0.63174-0.0309 0.0274 0.0322 0.28126 0.13956 0.56403 0.19794 0.5206 0.51742 0.6837 1.4223 0.726 0.42042 0.0196 0.3408-0.0845-0.50323-0.65829zm52.404-0.0211c-0.0597-0.0597-0.41377 0.0198-0.78688 0.17671-0.65118 0.27381-0.65843 0.28849-0.18142 0.36657 0.47902 0.0784 1.1907-0.32089 0.9683-0.54328zm3.7005-0.6128c0.61189-0.54951 1.8606-1.9048 2.775-3.0119 0.91433-1.107 1.8538-2.2317 2.0878-2.4994 0.23398-0.26763-0.60159 0.42314-1.8568 1.535s-3.0667 2.4829-4.0255 3.0467c-2.0921 1.2301-2.2466 1.3546-2.2466 1.8107 0 0.30956 0.13754 0.33976 1.0768 0.23638 0.92957-0.10232 1.2289-0.25514 2.1893-1.1176zm-57.625 0.56078c-0.0231-0.90148-0.22167-1.179-1.5961-2.2301-0.71957-0.55029-2.0766-1.87-3.0157-2.9327-0.93904-1.0627-1.7683-1.9322-1.8426-1.9322-0.1366 0-0.10576 0.4283 0.23637 3.2824 0.1686 1.4064 0.27787 1.6861 1.0404 2.6623 0.89793 1.1497 1.4725 1.395 3.6822 1.5717 0.44278 0.0354 0.96359 0.0796 1.1573 0.0982 0.26118 0.0251 0.34857-0.10924 0.3381-0.51968zm85.162-0.0544c0.4384-0.22366 0.79709-0.48797 0.79709-0.58737s0.055-0.32399 0.12218-0.4991c0.0976-0.25436-0.0249-0.31838-0.61017-0.31838-0.41764 0-0.75972 0.10812-0.79611 0.2516-0.0351 0.13837-0.16022 0.54596-0.27812 0.90574-0.11785 0.35979-0.17327 0.65414-0.12312 0.65414 0.0501 0 0.44986-0.18298 0.88825-0.40663zm-92.185-5.2876c-0.0795-0.97316-0.22689-1.8442-0.32754-1.9357-0.34024-0.30919-2.0951-1.2654-2.0951-1.1416 0 0.20892 2.4358 4.9943 2.5035 4.9183 0.0352-0.0394 0-0.86785-0.0808-1.841zm-0.20862-3.0539c0-0.9711-6.8822-6.7707-7.708-6.4955-0.12802 0.0427 0.2009 0.33176 0.73098 0.64241 1.0034 0.588 3.0606 2.8581 3.8204 4.2155 0.33136 0.59208 0.73639 0.92613 1.6471 1.3585 1.3871 0.65848 1.5096 0.68112 1.5096 0.27908zm-29.605-6.7741c0.48146-0.16784 0.61158-0.30892 0.51038-0.55351-0.0747-0.18053-0.18272-0.49187-0.24007-0.69185-0.07-0.24397-0.21146-0.31824-0.43004-0.22572-0.17915 0.0758-0.53333 0.18283-0.78704 0.23774-0.25372 0.0549-0.43197 0.15647-0.3961 0.22571 0.036 0.0693 0.19005 0.37497 0.34264 0.67939 0.1526 0.30443 0.29469 0.55351 0.31575 0.55351 0.021 0 0.32905-0.10137 0.68448-0.22527zm18.334-1.1157c0-0.75794-3.2766-4.2677-5.6716-6.0753-1.0656-0.80418-4.7843-2.6444-5.3483-2.6465-0.14299-4.3e-4 -0.25162 0.2481-0.25162 0.5761 0 0.45481 0.17902 0.69556 0.84484 1.1362 0.46465 0.30748 1.4926 1.0668 2.2844 1.6873 2.0764 1.6273 4.5691 3.4005 6.319 4.4951 1.5058 0.94196 1.8232 1.086 1.8232 0.82716zm-19.151-0.49018c0.71665-0.24984 0.70558-0.21718 0.42149-1.24-0.22226-0.80036-0.32239-0.80741-1.2825-0.0903-0.34702 0.25919-0.36032 0.35607-0.12651 0.9205 0.14371 0.34694 0.28206 0.63081 0.30746 0.63081 0.0253 0 0.33141-0.0994 0.68006-0.22096zm121.05-1.3582c1.3007-0.35226 2.8631-0.82687 3.472-1.0547 1.0844-0.40572 1.1072-0.43052 1.1072-1.2066v-0.7924l-1.0567 0.0966c-0.58121 0.0531-1.8207 0.14803-2.7544 0.21084-0.93373 0.0629-2.4782 0.28807-3.4322 0.50056-3.0371 0.6765-7.2486 2.327-7.2486 2.8407 0 0.15015 1.1596 0.19044 3.7739 0.13112 3.4622-0.0786 3.9693-0.13853 6.1388-0.72609zm-101.26-7.6292c0.0699-6.1677 0.12849-7.2836 0.41047-7.8119 0.45852-0.85891 2.2951-2.7029 4.7859-4.8053 1.1623-0.9811 3.6466-3.2874 5.5205-5.1251 1.8739-1.8377 3.18-3.0243 2.9024-2.6369-2.9872 4.1695-5.063 6.9035-6.3659 8.3844-0.86139 0.97903-2.1747 2.4958-2.9186 3.3707l-1.3525 1.5906v3.2891l1.6605 0.54506c2.3567 0.77359 4.2452 1.1294 5.988 1.1284 3.0618-2e-3 4.4842-1.3726 5.3379-5.1439 1.3172-5.8187 3.1881-8.5929 5.5788-8.2722 1.427 0.19141 2.1716 1.2119 3.762 5.1561 0.54903 1.3615 1.0421 2.5194 1.0958 2.5731 0.20219 0.20217 1.3892-1.3334 2.8952-3.7451 0.96243-1.5414 2.1359-3.0928 3.0681-4.0566 1.3227-1.3674 1.6591-1.6038 2.7173-1.9094 0.85445-0.24681 1.4094-0.5615 1.8973-1.076 0.90778-0.95703 3.0339-4.2013 3.0339-4.6294 0-0.43095-0.50892-1.1229-2.6166-3.5577-3.2151-3.7141-3.859-4.3291-5.1938-4.961-1.5375-0.72794-2.7053-2.09-3.1739-3.7018-0.52514-1.8064 0.0812-3.2421 1.665-3.9427 1.1645-0.51513 2.9874-0.42344 4.235 0.213 1.0617 0.54166 2.0553 0.54521 3.1022 0.01106l0.81978-0.4182-0.49348-0.53785c-1.0854-1.183-1.5286-2.0691-2.8531-5.7041-0.47049-1.2912-1.5222-2.4212-4.5606-4.8998-2.5216-2.0571-3.9268-3.5875-4.4331-4.8284-0.14321-0.35089-0.30476-2.2089-0.38567-4.4355-0.13025-3.5831-0.18135-3.9579-0.78723-5.7765-0.35633-1.0696-0.86474-2.2437-1.1298-2.6091-1.8784-2.5893-1.9458-4.7884-0.28241-9.2043 0.43488-1.1545 0.79074-2.2167 0.79074-2.3604 0-0.51075-0.95235-0.86786-3.8472-1.4426-2.4232-0.48111-3.3176-0.765-5.1467-1.6336-2.1094-1.0016-2.2529-1.0407-3.0424-0.82815-1.1242 0.30271-2.3989 1.3157-3.3186 2.6372-3.954 5.6813-7.0509 7.6202-10.122 6.3371-1.0748-0.44909-1.5874-0.97729-2.0963-2.1602-0.9523-2.2138-0.41454-4.1865 1.8112-6.6438l1.223-1.3502-0.80743-0.41191c-0.44406-0.22655-1.2924-0.53823-1.8852-0.69262-0.96182-0.25052-1.2927-0.24042-3.0756 0.09391-1.0988 0.20605-3.8998 0.47757-6.2246 0.60338-4.1502 0.2246-4.276 0.24458-6.944 1.1026-1.4945 0.48064-3.3059 1.0222-4.0255 1.2036-0.79949 0.20146-1.5342 0.53882-1.8891 0.86748-0.72012 0.66684-1.5418 2.4247-2.2091 4.7265-0.56851 1.961-0.93552 2.5697-2.2441 3.7215-1.0667 0.93894-2.3239 1.346-3.5517 1.1502-2.7823-0.44388-5.2024-2.6653-6.4348-5.9066-0.15028-0.39527-0.28216-0.46068-0.73308-0.36358-0.3024 0.06513-1.4556 0.22482-2.5626 0.35488l-2.0128 0.23646-1.2076 1.1643c-0.84084 0.81068-1.6947 1.3849-2.8112 1.8904-0.88194 0.39932-1.6731 0.83545-1.7581 0.96918-0.37515 0.59029-0.13311 1.5117 0.75051 2.857 0.5012 0.76305 1.0548 1.891 1.2302 2.5065 0.17546 0.61553 0.8943 2.0702 1.5974 3.2325 2.4332 4.0227 2.4909 5.3266 0.32167 7.2769-2.0057 1.8034-4.068 2.4033-6.8 1.9783-2.0867-0.32462-2.379-0.15918-2.3233 1.315 0.0808 2.1364 0.59305 3.4488 1.8993 4.8659 1.1418 1.2387 1.6789 1.4709 3.4051 1.4722 0.80807 4.29e-4 1.8113 0.09613 2.2295 0.21225 0.87002 0.24162 2.0458 1.1995 2.4633 2.0068 0.19735 0.38163 0.50108 0.59084 0.99126 0.6828 0.38871 0.07292 1.1945 0.38915 1.7906 0.70273 0.59615 0.31358 1.572 0.72852 2.1685 0.92208 2.2326 0.72437 3.0884 1.3568 3.4761 2.5689 0.20412 0.63814-0.25332 1.3599-2.2418 3.537-4.6271 5.0662-5.829 5.9596-7.9994 5.9468-1.8279-0.01085-2.6467-0.37628-4.2268-1.8865-0.77495-0.74066-1.8618-1.5597-2.4153-1.82-0.55351-0.26036-1.534-0.99872-2.1788-1.6408-0.98679-0.98259-1.233-1.135-1.5553-0.96254-0.61995 0.33179-0.7946 0.88228-0.7946 2.5043 0 1.7765 0.87063 7.1101 1.2944 7.9296 0.41047 0.79377 0.62913 0.92615 2.3759 1.4385 1.911 0.56054 2.8278 1.2993 3.9207 3.1593 1.5799 2.689 1.6285 3.4979 0.35946 5.985-0.54282 1.0638-0.90576 2.0467-0.90576 2.4529v0.67788l1.258 3e-3c4.428 0.01047 7.8758 2.621 6.4398 4.8758-0.45831 0.71956-2.5239 2.3501-4.266 3.3676-1.6686 0.97453-1.6722 1.152-0.0587 2.9068 0.6019 0.65452 1.4153 1.6735 1.8077 2.2644 0.6725 1.0129 0.7613 1.0743 1.554 1.0743 0.46242 0 1.2966-0.13537 1.8537-0.30082 1.7348-0.51517 6.8147-3.037 7.2612-3.6047 0.2278-0.28962 0.56372-1.2276 0.74647-2.0844 0.63432-2.9741 1.0728-4.1381 2.1164-5.6181 1.7616-2.4982 3.4726-3.5798 5.6419-3.5663 3.01 0.01874 4.4865 1.8371 3.4979 4.3077-0.45625 1.1403-0.28992 2.6467 0.46783 4.2364 1.0683 2.2413 1.0377 2.2258 2.2985 1.1658 1.7949-1.5091 3.679-2.7584 5.2644-3.4909l1.5012-0.6936 0.12929-1.5661c0.26564-3.2173 0.6263-12.566 0.62725-16.259v-3.8242l-0.76891-1.107c-1.3253-1.908-2.8509-4.2836-3.49-5.4344-1.1378-2.0486-4.5124-10.353-4.4936-11.058 0-0.06225 0.57859 0.9284 1.2821 2.2015 2.8418 5.1427 5.0991 8.4885 8.1103 12.021 2.0911 2.4532 2.1776 2.7273 2.1769 6.8987-4.3e-4 4.3329-0.41819 15.38-0.69983 18.517-0.23836 2.655-0.59833 9.1288-0.51253 9.2174 0.0317 0.0327 0.78001 0.23197 1.6632 0.4429 2.1521 0.51402 3.1272 0.91394 4.6828 1.9206 1.5201 0.98371 4.2007 3.4183 4.614 4.1905 0.15654 0.29252 0.34984 0.53187 0.42955 0.53187 0.0797 0 0.1816-3.238 0.22644-7.1956zm1.3721-13.62c0-0.05667 0.36933-0.44753 0.82073-0.86857 0.69936-0.65237 0.80026-0.84687 0.68259-1.3158l-0.1381-0.55024-1.0936 0.99945c-1.6413 1.5-3.0437 1.7125-3.7609 0.56984-0.29348-0.46766-0.73111-3.1489-1.143-7.0033-0.12424-1.1624-0.40545-3.0136-0.62493-4.1138-0.98156-4.9202-1.0918-7.1277-0.42257-8.4659 0.50001-1 7.796-10.436 12.385-16.017 0.56205-0.68361 0.56144-0.67985-0.0825 0.51905-1.5002 2.7929-4.9195 8.7224-5.5132 9.5606-0.35285 0.49816-1.1196 1.7209-1.7038 2.7172-0.58422 0.99632-1.3914 2.3549-1.7937 3.0191-0.67667 1.1171-0.73008 1.3209-0.71257 2.7172 0.0103 0.83026 0.25148 2.9135 0.53574 4.6293 0.36023 2.1747 0.55612 4.3071 0.64655 7.0392 0.0714 2.1557 0.16148 3.9512 0.20034 3.99 0.12952 0.12954 1.2017-0.53245 2.4439-1.509 0.6759-0.53132 1.8048-1.4189 2.5086-1.9724 0.70377-0.55351 1.682-1.3687 2.1738-1.8115 1.3118-1.1812 0.72806-0.23848-1.0912 1.7621-0.82445 0.90663-1.499 1.7701-1.499 1.9188 0 0.23309 0.32527 0.99657 0.52193 1.225 0.0356 0.04144 0.52154-0.25279 1.0798-0.65381 0.55821-0.40103 1.0149-0.68784 1.0149-0.63736 0 0.13407-2.2639 2.3229-2.4026 2.3229-0.0646 0-0.3656 0.2301-0.6689 0.51134-0.30331 0.28123-0.55145 0.45803-0.55145 0.39288s-0.40759 0.16198-0.90575 0.50472c-0.49816 0.34274-0.90576 0.5768-0.90576 0.52013zm2.5716-2.2907c0.41377-0.31842 0.43561-0.41759 0.22518-1.0212l-0.23303-0.66856-0.48902 0.48901c-0.37619 0.3762-0.45796 0.61281-0.35432 1.0257 0.15774 0.62858 0.23999 0.64549 0.85119 0.17508zm-12.887-0.64483c-0.27645-1.8782-0.36284-4.0721-0.22986-5.8343 0.0758-1.0026 0.17079-1.7897 0.21129-1.7492 0.19254 0.19254 0.40768 5.2637 0.28756 6.7784-0.12514 1.5786-0.14595 1.6408-0.26899 0.80511zm0.0159-21.631c-0.68731-0.37324-3.4727-3.8306-5.184-6.4345-0.72755-1.107-1.6783-2.8279-2.1128-3.8242-0.43454-0.99632-1.1365-2.416-1.5599-3.1549-0.42342-0.73888-0.76985-1.4013-0.76985-1.4721 0-0.29647 2.2458 2.4775 3.0512 3.7689 1.2366 1.9825 3.4003 2.8713 5.2371 6.2926l2.3705 2.4153 0.51613-0.60383c0.28385-0.33208 1.2194-1.6454 2.0789-2.9185 4.3556-6.4511 4.7416-6.9615 7.9442-10.505 1.8346-2.0299 5.9233-5.8348 5.1494-4.7919-1.523 2.0521-5.1223 7.4369-6.3233 9.46-1.2995 2.1891-1.822 3.0496-4.6435 7.6485-2.3387 3.8118-4.0565 5.0418-5.7542 4.1199zm-7.0361-4.082c-0.48378-0.63638-1.1432-1.5648-1.4655-2.0631-0.7314-1.1311-2.4047-4.6246-2.2766-4.7528 0.14089-0.14087 2.3204 3.3303 3.6474 5.8092 0.63711 1.19 1.117 2.1637 1.0663 2.1637-0.0507 0-0.48791-0.52067-0.9717-1.1571zm17.573-3.9925c0.96191-1.7621 1.4821-2.4095 0.79451-0.9887-0.32162 0.66455-0.78237 1.4344-1.0239 1.7108-0.30773 0.35217-0.23908 0.13606 0.22939-0.72214zm-21.86 52.508c0.24006-0.35412 0.59983-1.5428 0.84818-2.8023 0.92137-4.6728 0.7058-4.8549-0.56427-0.47651-0.4656 1.6052-0.9224 3.1736-1.0151 3.4854-0.22055 0.74214 0.16123 0.6343 0.73116-0.20651zm5.9341-10.481c0.13445-2.1346 0.19403-3.9315 0.13251-3.9931-0.0615-0.0616-0.45864 0.1206-0.88237 0.40482-0.85822 0.57562-4.0524 3.3728-4.0762 3.5697-9e-3 0.0692 0.26542 0.18194 0.60846 0.25055 0.72128 0.14425 2.6804 2.0473 3.2947 3.2004 0.21785 0.40892 0.45963 0.67717 0.53733 0.59612 0.0777-0.0811 0.25122-1.8939 0.38563-4.0285z" stroke-width=".20128"/></svg>
